<svg width="297" height="42" viewBox="0 0 297 42" fill="none" xmlns="http://www.w3.org/2000/svg">
<path d="M6.80114 4.36364C6.74148 3.85985 6.49953 3.46875 6.07528 3.19034C5.65104 2.91193 5.13068 2.77273 4.5142 2.77273C4.06345 2.77273 3.66903 2.84564 3.33097 2.99148C2.99621 3.13731 2.73438 3.33783 2.54545 3.59304C2.35985 3.84825 2.26705 4.13826 2.26705 4.46307C2.26705 4.73485 2.33168 4.96851 2.46094 5.16406C2.59351 5.3563 2.76255 5.51705 2.96804 5.64631C3.17353 5.77225 3.38897 5.87666 3.61435 5.95952C3.83973 6.03906 4.04688 6.10369 4.2358 6.15341L5.26989 6.43182C5.53504 6.50142 5.83002 6.59754 6.15483 6.72017C6.48295 6.8428 6.79616 7.01018 7.09446 7.2223C7.39607 7.43111 7.64465 7.69957 7.8402 8.0277C8.03575 8.35582 8.13352 8.75852 8.13352 9.2358C8.13352 9.78598 7.98935 10.2831 7.70099 10.7273C7.41596 11.1714 6.99834 11.5244 6.44815 11.7862C5.90128 12.0481 5.23674 12.179 4.45455 12.179C3.72538 12.179 3.09399 12.0613 2.56037 11.826C2.03007 11.5907 1.61245 11.2625 1.30753 10.8416C1.00592 10.4207 0.835227 9.93182 0.795455 9.375H2.06818C2.10133 9.75947 2.23059 10.0777 2.45597 10.3295C2.68466 10.5781 2.97301 10.7637 3.32102 10.8864C3.67235 11.0057 4.05019 11.0653 4.45455 11.0653C4.92519 11.0653 5.34777 10.9891 5.7223 10.8366C6.09683 10.6809 6.39347 10.4654 6.61222 10.1903C6.83097 9.91193 6.94034 9.58712 6.94034 9.21591C6.94034 8.87784 6.84588 8.60275 6.65696 8.39062C6.46804 8.1785 6.21946 8.00616 5.91122 7.87358C5.60298 7.741 5.26989 7.625 4.91193 7.52557L3.65909 7.16761C2.86364 6.93892 2.2339 6.61245 1.76989 6.18821C1.30587 5.76397 1.07386 5.20881 1.07386 4.52273C1.07386 3.95265 1.22798 3.45549 1.53622 3.03125C1.84777 2.60369 2.26539 2.27225 2.78906 2.03693C3.31605 1.7983 3.90436 1.67898 4.55398 1.67898C5.21023 1.67898 5.79356 1.79664 6.30398 2.03196C6.81439 2.26397 7.21875 2.58215 7.51705 2.98651C7.81866 3.39086 7.97775 3.8499 7.99432 4.36364H6.80114ZM14.8141 8.87784V4.36364H15.9874V12H14.8141V10.7074H14.7346C14.5556 11.0952 14.2772 11.425 13.8993 11.6967C13.5215 11.9652 13.0442 12.0994 12.4675 12.0994C11.9902 12.0994 11.566 11.995 11.1948 11.7862C10.8236 11.5741 10.5319 11.2559 10.3198 10.8317C10.1077 10.4041 10.0016 9.86553 10.0016 9.21591V4.36364H11.1749V9.13636C11.1749 9.69318 11.3307 10.1373 11.6422 10.4688C11.9571 10.8002 12.3581 10.9659 12.8453 10.9659C13.137 10.9659 13.4337 10.8913 13.7353 10.7422C14.0402 10.593 14.2954 10.3643 14.5009 10.0561C14.7097 9.74787 14.8141 9.35511 14.8141 8.87784ZM23.5455 6.07386L22.4915 6.37216C22.4252 6.1965 22.3274 6.0258 22.1982 5.86009C22.0722 5.69105 21.8999 5.55185 21.6811 5.44247C21.4624 5.3331 21.1823 5.27841 20.8409 5.27841C20.3736 5.27841 19.9841 5.38613 19.6726 5.60156C19.3643 5.81368 19.2102 6.08381 19.2102 6.41193C19.2102 6.7036 19.3163 6.93395 19.5284 7.10298C19.7405 7.27202 20.072 7.41288 20.5227 7.52557L21.6562 7.80398C22.339 7.9697 22.8478 8.22325 23.1825 8.56463C23.5173 8.9027 23.6847 9.33854 23.6847 9.87216C23.6847 10.3097 23.5587 10.7008 23.3068 11.0455C23.0582 11.3902 22.7102 11.6619 22.2628 11.8608C21.8153 12.0597 21.295 12.1591 20.7017 12.1591C19.9228 12.1591 19.2782 11.9901 18.7678 11.652C18.2573 11.3139 17.9342 10.8201 17.7983 10.1705L18.9119 9.89205C19.018 10.303 19.2185 10.6113 19.5135 10.8168C19.8118 11.0223 20.2012 11.125 20.6818 11.125C21.2287 11.125 21.6629 11.009 21.9844 10.777C22.3092 10.5417 22.4716 10.2599 22.4716 9.93182C22.4716 9.66667 22.3788 9.4446 22.1932 9.26562C22.0076 9.08333 21.7225 8.94744 21.3381 8.85795L20.0653 8.55966C19.366 8.39394 18.8523 8.13707 18.5241 7.78906C18.1993 7.43774 18.0369 6.99858 18.0369 6.47159C18.0369 6.04072 18.1579 5.65956 18.3999 5.32812C18.6451 4.99669 18.9782 4.73651 19.3991 4.54758C19.8234 4.35866 20.304 4.2642 20.8409 4.2642C21.5966 4.2642 22.1899 4.42992 22.6207 4.76136C23.0549 5.0928 23.3632 5.5303 23.5455 6.07386ZM28.5531 12.1591C27.8372 12.1591 27.2207 11.9901 26.7037 11.652C26.1866 11.3139 25.7889 10.8482 25.5105 10.255C25.2321 9.66169 25.0929 8.9839 25.0929 8.22159C25.0929 7.44602 25.2354 6.7616 25.5204 6.16832C25.8088 5.57173 26.2098 5.10606 26.7235 4.77131C27.2406 4.43324 27.8438 4.2642 28.5332 4.2642C29.0701 4.2642 29.554 4.36364 29.9849 4.5625C30.4158 4.76136 30.7688 5.03977 31.0439 5.39773C31.319 5.75568 31.4896 6.1733 31.5559 6.65057H30.3826C30.2931 6.30256 30.0943 5.99432 29.786 5.72585C29.4811 5.45407 29.0701 5.31818 28.5531 5.31818C28.0957 5.31818 27.6947 5.4375 27.35 5.67614C27.0086 5.91146 26.7418 6.24455 26.5495 6.67543C26.3606 7.10298 26.2662 7.60511 26.2662 8.18182C26.2662 8.77178 26.359 9.28551 26.5446 9.72301C26.7335 10.1605 26.9986 10.5002 27.34 10.7422C27.6847 10.9841 28.0891 11.1051 28.5531 11.1051C28.858 11.1051 29.1348 11.0521 29.3833 10.946C29.6319 10.84 29.8424 10.6875 30.0147 10.4886C30.1871 10.2898 30.3097 10.0511 30.3826 9.77273H31.5559C31.4896 10.2235 31.3256 10.6295 31.0637 10.9908C30.8052 11.3487 30.4622 11.6338 30.0346 11.8459C29.6104 12.0547 29.1165 12.1591 28.5531 12.1591ZM33.2711 12V4.36364H34.4047V5.51705H34.4842C34.6234 5.1392 34.8753 4.83262 35.2399 4.5973C35.6045 4.36198 36.0154 4.24432 36.4728 4.24432C36.559 4.24432 36.6667 4.24597 36.796 4.24929C36.9252 4.2526 37.023 4.25758 37.0893 4.2642V5.45739C37.0495 5.44744 36.9584 5.43253 36.8159 5.41264C36.6767 5.38944 36.5292 5.37784 36.3734 5.37784C36.0022 5.37784 35.6708 5.45573 35.3791 5.61151C35.0907 5.76397 34.862 5.97609 34.693 6.24787C34.5273 6.51634 34.4444 6.82292 34.4444 7.16761V12H33.2711ZM38.4801 12V4.36364H39.6534V12H38.4801ZM39.0767 3.09091C38.848 3.09091 38.6508 3.01302 38.4851 2.85724C38.3227 2.70147 38.2415 2.5142 38.2415 2.29545C38.2415 2.0767 38.3227 1.88944 38.4851 1.73366C38.6508 1.57789 38.848 1.5 39.0767 1.5C39.3054 1.5 39.5009 1.57789 39.6634 1.73366C39.8291 1.88944 39.9119 2.0767 39.9119 2.29545C39.9119 2.5142 39.8291 2.70147 39.6634 2.85724C39.5009 3.01302 39.3054 3.09091 39.0767 3.09091ZM41.9615 12V1.81818H43.1348V5.5767H43.2342C43.3204 5.44413 43.4397 5.27509 43.5922 5.0696C43.7479 4.8608 43.97 4.67519 44.2583 4.51278C44.55 4.34706 44.9444 4.2642 45.4416 4.2642C46.0846 4.2642 46.6513 4.42495 47.1419 4.74645C47.6324 5.06794 48.0152 5.52367 48.2903 6.11364C48.5654 6.7036 48.7029 7.39962 48.7029 8.2017C48.7029 9.01042 48.5654 9.71141 48.2903 10.3047C48.0152 10.8946 47.6341 11.352 47.1468 11.6768C46.6596 11.9983 46.0978 12.1591 45.4615 12.1591C44.9709 12.1591 44.5782 12.0779 44.2832 11.9155C43.9882 11.7498 43.7612 11.5625 43.6021 11.3537C43.443 11.1416 43.3204 10.9659 43.2342 10.8267H43.095V12H41.9615ZM43.1149 8.18182C43.1149 8.75852 43.1994 9.26728 43.3684 9.7081C43.5375 10.1456 43.7844 10.4886 44.1092 10.7372C44.434 10.9825 44.8317 11.1051 45.3024 11.1051C45.7929 11.1051 46.2022 10.9759 46.5304 10.7173C46.8618 10.4555 47.1104 10.1042 47.2761 9.66335C47.4451 9.21922 47.5297 8.72538 47.5297 8.18182C47.5297 7.64489 47.4468 7.16098 47.2811 6.73011C47.1187 6.29593 46.8717 5.95289 46.5403 5.70099C46.2122 5.44579 45.7995 5.31818 45.3024 5.31818C44.8251 5.31818 44.4241 5.43916 44.0993 5.68111C43.7744 5.91974 43.5292 6.2545 43.3635 6.68537C43.1977 7.11293 43.1149 7.61174 43.1149 8.18182ZM50.4977 12V4.36364H51.671V12H50.4977ZM51.0943 3.09091C50.8656 3.09091 50.6684 3.01302 50.5027 2.85724C50.3403 2.70147 50.2591 2.5142 50.2591 2.29545C50.2591 2.0767 50.3403 1.88944 50.5027 1.73366C50.6684 1.57789 50.8656 1.5 51.0943 1.5C51.323 1.5 51.5185 1.57789 51.6809 1.73366C51.8467 1.88944 51.9295 2.0767 51.9295 2.29545C51.9295 2.5142 51.8467 2.70147 51.6809 2.85724C51.5185 3.01302 51.323 3.09091 51.0943 3.09091ZM57.141 4.36364V5.35795H53.1836V4.36364H57.141ZM54.337 2.53409H55.5103V9.8125C55.5103 10.1439 55.5584 10.3925 55.6545 10.5582C55.7539 10.7206 55.8799 10.83 56.0323 10.8864C56.1881 10.9394 56.3522 10.9659 56.5245 10.9659C56.6538 10.9659 56.7598 10.9593 56.8427 10.946C56.9255 10.9295 56.9918 10.9162 57.0415 10.9062L57.2802 11.9602C57.2006 11.9901 57.0896 12.0199 56.9471 12.0497C56.8046 12.0829 56.6239 12.0994 56.4052 12.0994C56.0737 12.0994 55.7489 12.0282 55.4308 11.8857C55.1159 11.7431 54.854 11.526 54.6452 11.2344C54.4397 10.9427 54.337 10.5748 54.337 10.1307V2.53409ZM62.0256 12.1591C61.2898 12.1591 60.6551 11.9967 60.1214 11.6719C59.5911 11.3438 59.1818 10.8864 58.8935 10.2997C58.6084 9.70975 58.4659 9.02367 58.4659 8.24148C58.4659 7.45928 58.6084 6.76989 58.8935 6.1733C59.1818 5.57339 59.5829 5.10606 60.0966 4.77131C60.6136 4.43324 61.2169 4.2642 61.9062 4.2642C62.304 4.2642 62.6967 4.33049 63.0845 4.46307C63.4723 4.59564 63.8253 4.81108 64.1435 5.10938C64.4616 5.40436 64.7152 5.79545 64.9041 6.28267C65.093 6.76989 65.1875 7.36979 65.1875 8.08239V8.57955H59.3011V7.56534H63.9943C63.9943 7.13447 63.9081 6.75 63.7358 6.41193C63.5668 6.07386 63.3248 5.80705 63.0099 5.61151C62.6984 5.41596 62.3305 5.31818 61.9062 5.31818C61.4389 5.31818 61.0346 5.43419 60.6932 5.66619C60.3551 5.89489 60.0949 6.19318 59.9126 6.56108C59.7304 6.92898 59.6392 7.32339 59.6392 7.74432V8.42045C59.6392 8.99716 59.7386 9.48603 59.9375 9.88707C60.1397 10.2848 60.4197 10.5881 60.7777 10.7969C61.1357 11.0024 61.5516 11.1051 62.0256 11.1051C62.3338 11.1051 62.6122 11.062 62.8608 10.9759C63.1127 10.8864 63.3298 10.7538 63.5121 10.5781C63.6944 10.3991 63.8352 10.1771 63.9347 9.91193L65.0682 10.2301C64.9489 10.6146 64.7483 10.9527 64.4666 11.2443C64.1849 11.5327 63.8369 11.758 63.4226 11.9205C63.0083 12.0795 62.5426 12.1591 62.0256 12.1591ZM73.157 12.179C72.6731 12.179 72.2339 12.0878 71.8395 11.9055C71.4451 11.7199 71.1319 11.4531 70.8999 11.1051C70.6679 10.7538 70.5518 10.3295 70.5518 9.83239C70.5518 9.39489 70.638 9.04025 70.8104 8.76847C70.9827 8.49337 71.2131 8.27794 71.5014 8.12216C71.7898 7.96638 72.108 7.85038 72.456 7.77415C72.8073 7.6946 73.1603 7.63163 73.5149 7.58523C73.9789 7.52557 74.3551 7.48082 74.6435 7.45099C74.9351 7.41785 75.1473 7.36316 75.2798 7.28693C75.4157 7.2107 75.4837 7.07812 75.4837 6.8892V6.84943C75.4837 6.3589 75.3494 5.97775 75.081 5.70597C74.8158 5.43419 74.4131 5.2983 73.8729 5.2983C73.3127 5.2983 72.8736 5.42093 72.5554 5.66619C72.2372 5.91146 72.0135 6.1733 71.8842 6.4517L70.7706 6.05398C70.9695 5.58996 71.2346 5.22869 71.5661 4.97017C71.9008 4.70833 72.2654 4.52604 72.6598 4.4233C73.0575 4.31723 73.4486 4.2642 73.8331 4.2642C74.0784 4.2642 74.3601 4.29403 74.6783 4.35369C74.9998 4.41004 75.3097 4.5277 75.608 4.70668C75.9096 4.88565 76.1598 5.15578 76.3587 5.51705C76.5575 5.87831 76.657 6.36222 76.657 6.96875V12H75.4837V10.9659H75.424C75.3445 11.1316 75.2119 11.3089 75.0263 11.4979C74.8407 11.6868 74.5938 11.8475 74.2855 11.9801C73.9773 12.1127 73.6011 12.179 73.157 12.179ZM73.3359 11.125C73.8 11.125 74.1911 11.0339 74.5092 10.8516C74.8307 10.6693 75.0727 10.4339 75.2351 10.1456C75.4008 9.85724 75.4837 9.55398 75.4837 9.2358V8.16193C75.4339 8.22159 75.3246 8.27628 75.1555 8.32599C74.9898 8.3724 74.7976 8.41383 74.5788 8.45028C74.3634 8.48343 74.1529 8.51326 73.9474 8.53977C73.7453 8.56297 73.5812 8.58286 73.4553 8.59943C73.1503 8.6392 72.8653 8.70384 72.6001 8.79332C72.3383 8.8795 72.1262 9.01042 71.9638 9.18608C71.8047 9.35843 71.7251 9.59375 71.7251 9.89205C71.7251 10.2997 71.8759 10.608 72.1776 10.8168C72.4825 11.0223 72.8686 11.125 73.3359 11.125ZM83.9093 7.40625V12H82.736V4.36364H83.8695V5.55682H83.9689C84.1479 5.16903 84.4197 4.85748 84.7843 4.62216C85.1489 4.38352 85.6195 4.2642 86.1962 4.2642C86.7132 4.2642 87.1657 4.37027 87.5534 4.58239C87.9412 4.79119 88.2428 5.10938 88.4583 5.53693C88.6737 5.96117 88.7814 6.49811 88.7814 7.14773V12H87.6081V7.22727C87.6081 6.62737 87.4524 6.16004 87.1408 5.82528C86.8292 5.48722 86.4017 5.31818 85.8581 5.31818C85.4836 5.31818 85.1489 5.39938 84.8539 5.56179C84.5622 5.72419 84.3319 5.96117 84.1628 6.27273C83.9938 6.58428 83.9093 6.96212 83.9093 7.40625ZM95.7379 8.87784V4.36364H96.9112V12H95.7379V10.7074H95.6584C95.4794 11.0952 95.201 11.425 94.8232 11.6967C94.4453 11.9652 93.968 12.0994 93.3913 12.0994C92.9141 12.0994 92.4898 11.995 92.1186 11.7862C91.7474 11.5741 91.4557 11.2559 91.2436 10.8317C91.0315 10.4041 90.9254 9.86553 90.9254 9.21591V4.36364H92.0987V9.13636C92.0987 9.69318 92.2545 10.1373 92.5661 10.4688C92.8809 10.8002 93.282 10.9659 93.7692 10.9659C94.0608 10.9659 94.3575 10.8913 94.6591 10.7422C94.964 10.593 95.2192 10.3643 95.4247 10.0561C95.6335 9.74787 95.7379 9.35511 95.7379 8.87784ZM102.262 12.1591C101.526 12.1591 100.891 11.9967 100.358 11.6719C99.8275 11.3438 99.4181 10.8864 99.1298 10.2997C98.8448 9.70975 98.7022 9.02367 98.7022 8.24148C98.7022 7.45928 98.8448 6.76989 99.1298 6.1733C99.4181 5.57339 99.8192 5.10606 100.333 4.77131C100.85 4.43324 101.453 4.2642 102.143 4.2642C102.54 4.2642 102.933 4.33049 103.321 4.46307C103.709 4.59564 104.062 4.81108 104.38 5.10938C104.698 5.40436 104.952 5.79545 105.14 6.28267C105.329 6.76989 105.424 7.36979 105.424 8.08239V8.57955H99.5375V7.56534H104.231C104.231 7.13447 104.144 6.75 103.972 6.41193C103.803 6.07386 103.561 5.80705 103.246 5.61151C102.935 5.41596 102.567 5.31818 102.143 5.31818C101.675 5.31818 101.271 5.43419 100.93 5.66619C100.591 5.89489 100.331 6.19318 100.149 6.56108C99.9667 6.92898 99.8755 7.32339 99.8755 7.74432V8.42045C99.8755 8.99716 99.975 9.48603 100.174 9.88707C100.376 10.2848 100.656 10.5881 101.014 10.7969C101.372 11.0024 101.788 11.1051 102.262 11.1051C102.57 11.1051 102.849 11.062 103.097 10.9759C103.349 10.8864 103.566 10.7538 103.748 10.5781C103.931 10.3991 104.072 10.1771 104.171 9.91193L105.305 10.2301C105.185 10.6146 104.985 10.9527 104.703 11.2443C104.421 11.5327 104.073 11.758 103.659 11.9205C103.245 12.0795 102.779 12.1591 102.262 12.1591ZM112.618 6.07386L111.564 6.37216C111.497 6.1965 111.4 6.0258 111.27 5.86009C111.144 5.69105 110.972 5.55185 110.753 5.44247C110.535 5.3331 110.255 5.27841 109.913 5.27841C109.446 5.27841 109.056 5.38613 108.745 5.60156C108.437 5.81368 108.282 6.08381 108.282 6.41193C108.282 6.7036 108.389 6.93395 108.601 7.10298C108.813 7.27202 109.144 7.41288 109.595 7.52557L110.729 7.80398C111.411 7.9697 111.92 8.22325 112.255 8.56463C112.59 8.9027 112.757 9.33854 112.757 9.87216C112.757 10.3097 112.631 10.7008 112.379 11.0455C112.131 11.3902 111.782 11.6619 111.335 11.8608C110.888 12.0597 110.367 12.1591 109.774 12.1591C108.995 12.1591 108.35 11.9901 107.84 11.652C107.33 11.3139 107.006 10.8201 106.871 10.1705L107.984 9.89205C108.09 10.303 108.291 10.6113 108.586 10.8168C108.884 11.0223 109.273 11.125 109.754 11.125C110.301 11.125 110.735 11.009 111.057 10.777C111.381 10.5417 111.544 10.2599 111.544 9.93182C111.544 9.66667 111.451 9.4446 111.265 9.26562C111.08 9.08333 110.795 8.94744 110.41 8.85795L109.138 8.55966C108.438 8.39394 107.925 8.13707 107.596 7.78906C107.272 7.43774 107.109 6.99858 107.109 6.47159C107.109 6.04072 107.23 5.65956 107.472 5.32812C107.717 4.99669 108.05 4.73651 108.471 4.54758C108.896 4.35866 109.376 4.2642 109.913 4.2642C110.669 4.2642 111.262 4.42992 111.693 4.76136C112.127 5.0928 112.435 5.5303 112.618 6.07386ZM117.844 4.36364V5.35795H113.887V4.36364H117.844ZM115.04 2.53409H116.213V9.8125C116.213 10.1439 116.261 10.3925 116.358 10.5582C116.457 10.7206 116.583 10.83 116.735 10.8864C116.891 10.9394 117.055 10.9659 117.228 10.9659C117.357 10.9659 117.463 10.9593 117.546 10.946C117.629 10.9295 117.695 10.9162 117.745 10.9062L117.983 11.9602C117.904 11.9901 117.793 12.0199 117.65 12.0497C117.508 12.0829 117.327 12.0994 117.108 12.0994C116.777 12.0994 116.452 12.0282 116.134 11.8857C115.819 11.7431 115.557 11.526 115.348 11.2344C115.143 10.9427 115.04 10.5748 115.04 10.1307V2.53409ZM119.609 12V4.36364H120.743V5.51705H120.822C120.961 5.1392 121.213 4.83262 121.578 4.5973C121.942 4.36198 122.353 4.24432 122.811 4.24432C122.897 4.24432 123.005 4.24597 123.134 4.24929C123.263 4.2526 123.361 4.25758 123.427 4.2642V5.45739C123.387 5.44744 123.296 5.43253 123.154 5.41264C123.015 5.38944 122.867 5.37784 122.711 5.37784C122.34 5.37784 122.009 5.45573 121.717 5.61151C121.429 5.76397 121.2 5.97609 121.031 6.24787C120.865 6.51634 120.782 6.82292 120.782 7.16761V12H119.609ZM127.688 12.1591C126.998 12.1591 126.394 11.995 125.873 11.6669C125.356 11.3388 124.952 10.8797 124.66 10.2898C124.372 9.69981 124.228 9.01042 124.228 8.22159C124.228 7.42614 124.372 6.73177 124.66 6.13849C124.952 5.54522 125.356 5.08452 125.873 4.75639C126.394 4.42827 126.998 4.2642 127.688 4.2642C128.377 4.2642 128.98 4.42827 129.498 4.75639C130.018 5.08452 130.422 5.54522 130.711 6.13849C131.002 6.73177 131.148 7.42614 131.148 8.22159C131.148 9.01042 131.002 9.69981 130.711 10.2898C130.422 10.8797 130.018 11.3388 129.498 11.6669C128.98 11.995 128.377 12.1591 127.688 12.1591ZM127.688 11.1051C128.212 11.1051 128.642 10.9709 128.98 10.7024C129.319 10.4339 129.569 10.081 129.731 9.64347C129.894 9.20597 129.975 8.73201 129.975 8.22159C129.975 7.71117 129.894 7.23556 129.731 6.79474C129.569 6.35393 129.319 5.99763 128.98 5.72585C128.642 5.45407 128.212 5.31818 127.688 5.31818C127.164 5.31818 126.733 5.45407 126.395 5.72585C126.057 5.99763 125.807 6.35393 125.645 6.79474C125.482 7.23556 125.401 7.71117 125.401 8.22159C125.401 8.73201 125.482 9.20597 125.645 9.64347C125.807 10.081 126.057 10.4339 126.395 10.7024C126.733 10.9709 127.164 11.1051 127.688 11.1051ZM138.05 7.40625V12H136.877V4.36364H138.01V5.55682H138.11C138.289 5.16903 138.56 4.85748 138.925 4.62216C139.289 4.38352 139.76 4.2642 140.337 4.2642C140.854 4.2642 141.306 4.37027 141.694 4.58239C142.082 4.79119 142.383 5.10938 142.599 5.53693C142.814 5.96117 142.922 6.49811 142.922 7.14773V12H141.749V7.22727C141.749 6.62737 141.593 6.16004 141.281 5.82528C140.97 5.48722 140.542 5.31818 139.999 5.31818C139.624 5.31818 139.289 5.39938 138.994 5.56179C138.703 5.72419 138.472 5.96117 138.303 6.27273C138.134 6.58428 138.05 6.96212 138.05 7.40625ZM148.268 12.1591C147.532 12.1591 146.897 11.9967 146.364 11.6719C145.833 11.3438 145.424 10.8864 145.136 10.2997C144.851 9.70975 144.708 9.02367 144.708 8.24148C144.708 7.45928 144.851 6.76989 145.136 6.1733C145.424 5.57339 145.825 5.10606 146.339 4.77131C146.856 4.43324 147.459 4.2642 148.148 4.2642C148.546 4.2642 148.939 4.33049 149.327 4.46307C149.714 4.59564 150.067 4.81108 150.386 5.10938C150.704 5.40436 150.957 5.79545 151.146 6.28267C151.335 6.76989 151.43 7.36979 151.43 8.08239V8.57955H145.543V7.56534H150.237C150.237 7.13447 150.15 6.75 149.978 6.41193C149.809 6.07386 149.567 5.80705 149.252 5.61151C148.941 5.41596 148.573 5.31818 148.148 5.31818C147.681 5.31818 147.277 5.43419 146.935 5.66619C146.597 5.89489 146.337 6.19318 146.155 6.56108C145.973 6.92898 145.881 7.32339 145.881 7.74432V8.42045C145.881 8.99716 145.981 9.48603 146.18 9.88707C146.382 10.2848 146.662 10.5881 147.02 10.7969C147.378 11.0024 147.794 11.1051 148.268 11.1051C148.576 11.1051 148.854 11.062 149.103 10.9759C149.355 10.8864 149.572 10.7538 149.754 10.5781C149.937 10.3991 150.077 10.1771 150.177 9.91193L151.31 10.2301C151.191 10.6146 150.991 10.9527 150.709 11.2443C150.427 11.5327 150.079 11.758 149.665 11.9205C149.25 12.0795 148.785 12.1591 148.268 12.1591ZM154.945 12L152.618 4.36364H153.851L155.501 10.2102H155.581L157.212 4.36364H158.464L160.075 10.1903H160.155L161.805 4.36364H163.038L160.712 12H159.558L157.888 6.13352H157.768L156.098 12H154.945ZM169.999 6.07386L168.945 6.37216C168.878 6.1965 168.781 6.0258 168.651 5.86009C168.525 5.69105 168.353 5.55185 168.134 5.44247C167.915 5.3331 167.635 5.27841 167.294 5.27841C166.827 5.27841 166.437 5.38613 166.126 5.60156C165.817 5.81368 165.663 6.08381 165.663 6.41193C165.663 6.7036 165.769 6.93395 165.982 7.10298C166.194 7.27202 166.525 7.41288 166.976 7.52557L168.109 7.80398C168.792 7.9697 169.301 8.22325 169.636 8.56463C169.97 8.9027 170.138 9.33854 170.138 9.87216C170.138 10.3097 170.012 10.7008 169.76 11.0455C169.511 11.3902 169.163 11.6619 168.716 11.8608C168.268 12.0597 167.748 12.1591 167.155 12.1591C166.376 12.1591 165.731 11.9901 165.221 11.652C164.71 11.3139 164.387 10.8201 164.251 10.1705L165.365 9.89205C165.471 10.303 165.672 10.6113 165.967 10.8168C166.265 11.0223 166.654 11.125 167.135 11.125C167.682 11.125 168.116 11.009 168.438 10.777C168.762 10.5417 168.925 10.2599 168.925 9.93182C168.925 9.66667 168.832 9.4446 168.646 9.26562C168.461 9.08333 168.176 8.94744 167.791 8.85795L166.518 8.55966C165.819 8.39394 165.305 8.13707 164.977 7.78906C164.652 7.43774 164.49 6.99858 164.49 6.47159C164.49 6.04072 164.611 5.65956 164.853 5.32812C165.098 4.99669 165.431 4.73651 165.852 4.54758C166.277 4.35866 166.757 4.2642 167.294 4.2642C168.05 4.2642 168.643 4.42992 169.074 4.76136C169.508 5.0928 169.816 5.5303 169.999 6.07386ZM173.077 1.81818V12H171.904V1.81818H173.077ZM178.428 12.1591C177.692 12.1591 177.057 11.9967 176.524 11.6719C175.993 11.3438 175.584 10.8864 175.296 10.2997C175.011 9.70975 174.868 9.02367 174.868 8.24148C174.868 7.45928 175.011 6.76989 175.296 6.1733C175.584 5.57339 175.985 5.10606 176.499 4.77131C177.016 4.43324 177.619 4.2642 178.309 4.2642C178.706 4.2642 179.099 4.33049 179.487 4.46307C179.875 4.59564 180.228 4.81108 180.546 5.10938C180.864 5.40436 181.118 5.79545 181.306 6.28267C181.495 6.76989 181.59 7.36979 181.59 8.08239V8.57955H175.703V7.56534H180.397C180.397 7.13447 180.31 6.75 180.138 6.41193C179.969 6.07386 179.727 5.80705 179.412 5.61151C179.101 5.41596 178.733 5.31818 178.309 5.31818C177.841 5.31818 177.437 5.43419 177.096 5.66619C176.757 5.89489 176.497 6.19318 176.315 6.56108C176.133 6.92898 176.042 7.32339 176.042 7.74432V8.42045C176.042 8.99716 176.141 9.48603 176.34 9.88707C176.542 10.2848 176.822 10.5881 177.18 10.7969C177.538 11.0024 177.954 11.1051 178.428 11.1051C178.736 11.1051 179.015 11.062 179.263 10.9759C179.515 10.8864 179.732 10.7538 179.914 10.5781C180.097 10.3991 180.238 10.1771 180.337 9.91193L181.471 10.2301C181.351 10.6146 181.151 10.9527 180.869 11.2443C180.587 11.5327 180.239 11.758 179.825 11.9205C179.411 12.0795 178.945 12.1591 178.428 12.1591ZM186.696 4.36364V5.35795H182.738V4.36364H186.696ZM183.892 2.53409H185.065V9.8125C185.065 10.1439 185.113 10.3925 185.209 10.5582C185.309 10.7206 185.435 10.83 185.587 10.8864C185.743 10.9394 185.907 10.9659 186.079 10.9659C186.208 10.9659 186.315 10.9593 186.397 10.946C186.48 10.9295 186.547 10.9162 186.596 10.9062L186.835 11.9602C186.755 11.9901 186.644 12.0199 186.502 12.0497C186.359 12.0829 186.179 12.0994 185.96 12.0994C185.628 12.0994 185.304 12.0282 184.985 11.8857C184.671 11.7431 184.409 11.526 184.2 11.2344C183.994 10.9427 183.892 10.5748 183.892 10.1307V2.53409ZM191.782 4.36364V5.35795H187.824V4.36364H191.782ZM188.978 2.53409H190.151V9.8125C190.151 10.1439 190.199 10.3925 190.295 10.5582C190.395 10.7206 190.52 10.83 190.673 10.8864C190.829 10.9394 190.993 10.9659 191.165 10.9659C191.294 10.9659 191.4 10.9593 191.483 10.946C191.566 10.9295 191.632 10.9162 191.682 10.9062L191.921 11.9602C191.841 11.9901 191.73 12.0199 191.588 12.0497C191.445 12.0829 191.265 12.0994 191.046 12.0994C190.714 12.0994 190.39 12.0282 190.071 11.8857C189.757 11.7431 189.495 11.526 189.286 11.2344C189.08 10.9427 188.978 10.5748 188.978 10.1307V2.53409ZM196.666 12.1591C195.93 12.1591 195.296 11.9967 194.762 11.6719C194.232 11.3438 193.822 10.8864 193.534 10.2997C193.249 9.70975 193.107 9.02367 193.107 8.24148C193.107 7.45928 193.249 6.76989 193.534 6.1733C193.822 5.57339 194.223 5.10606 194.737 4.77131C195.254 4.43324 195.857 4.2642 196.547 4.2642C196.945 4.2642 197.337 4.33049 197.725 4.46307C198.113 4.59564 198.466 4.81108 198.784 5.10938C199.102 5.40436 199.356 5.79545 199.545 6.28267C199.734 6.76989 199.828 7.36979 199.828 8.08239V8.57955H193.942V7.56534H198.635C198.635 7.13447 198.549 6.75 198.376 6.41193C198.207 6.07386 197.965 5.80705 197.651 5.61151C197.339 5.41596 196.971 5.31818 196.547 5.31818C196.08 5.31818 195.675 5.43419 195.334 5.66619C194.996 5.89489 194.736 6.19318 194.553 6.56108C194.371 6.92898 194.28 7.32339 194.28 7.74432V8.42045C194.28 8.99716 194.379 9.48603 194.578 9.88707C194.78 10.2848 195.06 10.5881 195.418 10.7969C195.776 11.0024 196.192 11.1051 196.666 11.1051C196.974 11.1051 197.253 11.062 197.501 10.9759C197.753 10.8864 197.97 10.7538 198.153 10.5781C198.335 10.3991 198.476 10.1771 198.575 9.91193L199.709 10.2301C199.589 10.6146 199.389 10.9527 199.107 11.2443C198.826 11.5327 198.478 11.758 198.063 11.9205C197.649 12.0795 197.183 12.1591 196.666 12.1591ZM201.613 12V4.36364H202.746V5.51705H202.826C202.965 5.1392 203.217 4.83262 203.582 4.5973C203.946 4.36198 204.357 4.24432 204.815 4.24432C204.901 4.24432 205.009 4.24597 205.138 4.24929C205.267 4.2526 205.365 4.25758 205.431 4.2642V5.45739C205.391 5.44744 205.3 5.43253 205.158 5.41264C205.018 5.38944 204.871 5.37784 204.715 5.37784C204.344 5.37784 204.013 5.45573 203.721 5.61151C203.433 5.76397 203.204 5.97609 203.035 6.24787C202.869 6.51634 202.786 6.82292 202.786 7.16761V12H201.613ZM210.759 14.8636V4.36364H211.893V5.5767H212.032C212.118 5.44413 212.238 5.27509 212.39 5.0696C212.546 4.8608 212.768 4.67519 213.056 4.51278C213.348 4.34706 213.742 4.2642 214.24 4.2642C214.883 4.2642 215.449 4.42495 215.94 4.74645C216.43 5.06794 216.813 5.52367 217.088 6.11364C217.363 6.7036 217.501 7.39962 217.501 8.2017C217.501 9.01042 217.363 9.71141 217.088 10.3047C216.813 10.8946 216.432 11.352 215.945 11.6768C215.458 11.9983 214.896 12.1591 214.259 12.1591C213.769 12.1591 213.376 12.0779 213.081 11.9155C212.786 11.7498 212.559 11.5625 212.4 11.3537C212.241 11.1416 212.118 10.9659 212.032 10.8267H211.933V14.8636H210.759ZM211.913 8.18182C211.913 8.75852 211.997 9.26728 212.166 9.7081C212.335 10.1456 212.582 10.4886 212.907 10.7372C213.232 10.9825 213.63 11.1051 214.1 11.1051C214.591 11.1051 215 10.9759 215.328 10.7173C215.66 10.4555 215.908 10.1042 216.074 9.66335C216.243 9.21922 216.328 8.72538 216.328 8.18182C216.328 7.64489 216.245 7.16098 216.079 6.73011C215.917 6.29593 215.67 5.95289 215.338 5.70099C215.01 5.44579 214.597 5.31818 214.1 5.31818C213.623 5.31818 213.222 5.43916 212.897 5.68111C212.572 5.91974 212.327 6.2545 212.161 6.68537C211.996 7.11293 211.913 7.61174 211.913 8.18182ZM221.538 12.179C221.054 12.179 220.615 12.0878 220.22 11.9055C219.826 11.7199 219.513 11.4531 219.281 11.1051C219.049 10.7538 218.933 10.3295 218.933 9.83239C218.933 9.39489 219.019 9.04025 219.191 8.76847C219.364 8.49337 219.594 8.27794 219.882 8.12216C220.171 7.96638 220.489 7.85038 220.837 7.77415C221.188 7.6946 221.541 7.63163 221.896 7.58523C222.36 7.52557 222.736 7.48082 223.024 7.45099C223.316 7.41785 223.528 7.36316 223.661 7.28693C223.797 7.2107 223.865 7.07812 223.865 6.8892V6.84943C223.865 6.3589 223.73 5.97775 223.462 5.70597C223.197 5.43419 222.794 5.2983 222.254 5.2983C221.694 5.2983 221.254 5.42093 220.936 5.66619C220.618 5.91146 220.394 6.1733 220.265 6.4517L219.151 6.05398C219.35 5.58996 219.615 5.22869 219.947 4.97017C220.282 4.70833 220.646 4.52604 221.041 4.4233C221.438 4.31723 221.829 4.2642 222.214 4.2642C222.459 4.2642 222.741 4.29403 223.059 4.35369C223.381 4.41004 223.691 4.5277 223.989 4.70668C224.29 4.88565 224.541 5.15578 224.74 5.51705C224.938 5.87831 225.038 6.36222 225.038 6.96875V12H223.865V10.9659H223.805C223.725 11.1316 223.593 11.3089 223.407 11.4979C223.222 11.6868 222.975 11.8475 222.666 11.9801C222.358 12.1127 221.982 12.179 221.538 12.179ZM221.717 11.125C222.181 11.125 222.572 11.0339 222.89 10.8516C223.212 10.6693 223.454 10.4339 223.616 10.1456C223.782 9.85724 223.865 9.55398 223.865 9.2358V8.16193C223.815 8.22159 223.705 8.27628 223.536 8.32599C223.371 8.3724 223.178 8.41383 222.96 8.45028C222.744 8.48343 222.534 8.51326 222.328 8.53977C222.126 8.56297 221.962 8.58286 221.836 8.59943C221.531 8.6392 221.246 8.70384 220.981 8.79332C220.719 8.8795 220.507 9.01042 220.345 9.18608C220.186 9.35843 220.106 9.59375 220.106 9.89205C220.106 10.2997 220.257 10.608 220.558 10.8168C220.863 11.0223 221.249 11.125 221.717 11.125ZM227.179 12V4.36364H228.313V5.51705H228.392C228.532 5.1392 228.783 4.83262 229.148 4.5973C229.513 4.36198 229.924 4.24432 230.381 4.24432C230.467 4.24432 230.575 4.24597 230.704 4.24929C230.833 4.2526 230.931 4.25758 230.998 4.2642V5.45739C230.958 5.44744 230.867 5.43253 230.724 5.41264C230.585 5.38944 230.437 5.37784 230.282 5.37784C229.91 5.37784 229.579 5.45573 229.287 5.61151C228.999 5.76397 228.77 5.97609 228.601 6.24787C228.435 6.51634 228.353 6.82292 228.353 7.16761V12H227.179ZM234.635 12.179C234.152 12.179 233.712 12.0878 233.318 11.9055C232.924 11.7199 232.61 11.4531 232.378 11.1051C232.146 10.7538 232.03 10.3295 232.03 9.83239C232.03 9.39489 232.117 9.04025 232.289 8.76847C232.461 8.49337 232.692 8.27794 232.98 8.12216C233.268 7.96638 233.586 7.85038 233.934 7.77415C234.286 7.6946 234.639 7.63163 234.993 7.58523C235.457 7.52557 235.834 7.48082 236.122 7.45099C236.414 7.41785 236.626 7.36316 236.758 7.28693C236.894 7.2107 236.962 7.07812 236.962 6.8892V6.84943C236.962 6.3589 236.828 5.97775 236.559 5.70597C236.294 5.43419 235.892 5.2983 235.351 5.2983C234.791 5.2983 234.352 5.42093 234.034 5.66619C233.716 5.91146 233.492 6.1733 233.363 6.4517L232.249 6.05398C232.448 5.58996 232.713 5.22869 233.045 4.97017C233.379 4.70833 233.744 4.52604 234.138 4.4233C234.536 4.31723 234.927 4.2642 235.312 4.2642C235.557 4.2642 235.839 4.29403 236.157 4.35369C236.478 4.41004 236.788 4.5277 237.086 4.70668C237.388 4.88565 237.638 5.15578 237.837 5.51705C238.036 5.87831 238.135 6.36222 238.135 6.96875V12H236.962V10.9659H236.903C236.823 11.1316 236.69 11.3089 236.505 11.4979C236.319 11.6868 236.072 11.8475 235.764 11.9801C235.456 12.1127 235.08 12.179 234.635 12.179ZM234.814 11.125C235.278 11.125 235.67 11.0339 235.988 10.8516C236.309 10.6693 236.551 10.4339 236.714 10.1456C236.879 9.85724 236.962 9.55398 236.962 9.2358V8.16193C236.912 8.22159 236.803 8.27628 236.634 8.32599C236.468 8.3724 236.276 8.41383 236.057 8.45028C235.842 8.48343 235.631 8.51326 235.426 8.53977C235.224 8.56297 235.06 8.58286 234.934 8.59943C234.629 8.6392 234.344 8.70384 234.079 8.79332C233.817 8.8795 233.605 9.01042 233.442 9.18608C233.283 9.35843 233.204 9.59375 233.204 9.89205C233.204 10.2997 233.354 10.608 233.656 10.8168C233.961 11.0223 234.347 11.125 234.814 11.125ZM247.317 12.1591C246.627 12.1591 246.022 11.995 245.502 11.6669C244.985 11.3388 244.581 10.8797 244.289 10.2898C244.001 9.69981 243.857 9.01042 243.857 8.22159C243.857 7.42614 244.001 6.73177 244.289 6.13849C244.581 5.54522 244.985 5.08452 245.502 4.75639C246.022 4.42827 246.627 4.2642 247.317 4.2642C248.006 4.2642 248.609 4.42827 249.126 4.75639C249.647 5.08452 250.051 5.54522 250.339 6.13849C250.631 6.73177 250.777 7.42614 250.777 8.22159C250.777 9.01042 250.631 9.69981 250.339 10.2898C250.051 10.8797 249.647 11.3388 249.126 11.6669C248.609 11.995 248.006 12.1591 247.317 12.1591ZM247.317 11.1051C247.84 11.1051 248.271 10.9709 248.609 10.7024C248.947 10.4339 249.198 10.081 249.36 9.64347C249.522 9.20597 249.604 8.73201 249.604 8.22159C249.604 7.71117 249.522 7.23556 249.36 6.79474C249.198 6.35393 248.947 5.99763 248.609 5.72585C248.271 5.45407 247.84 5.31818 247.317 5.31818C246.793 5.31818 246.362 5.45407 246.024 5.72585C245.686 5.99763 245.436 6.35393 245.273 6.79474C245.111 7.23556 245.03 7.71117 245.03 8.22159C245.03 8.73201 245.111 9.20597 245.273 9.64347C245.436 10.081 245.686 10.4339 246.024 10.7024C246.362 10.9709 246.793 11.1051 247.317 11.1051ZM252.727 12V1.81818H253.9V5.5767H254C254.086 5.44413 254.205 5.27509 254.358 5.0696C254.514 4.8608 254.736 4.67519 255.024 4.51278C255.316 4.34706 255.71 4.2642 256.207 4.2642C256.85 4.2642 257.417 4.42495 257.907 4.74645C258.398 5.06794 258.781 5.52367 259.056 6.11364C259.331 6.7036 259.469 7.39962 259.469 8.2017C259.469 9.01042 259.331 9.71141 259.056 10.3047C258.781 10.8946 258.4 11.352 257.912 11.6768C257.425 11.9983 256.863 12.1591 256.227 12.1591C255.737 12.1591 255.344 12.0779 255.049 11.9155C254.754 11.7498 254.527 11.5625 254.368 11.3537C254.209 11.1416 254.086 10.9659 254 10.8267H253.861V12H252.727ZM253.881 8.18182C253.881 8.75852 253.965 9.26728 254.134 9.7081C254.303 10.1456 254.55 10.4886 254.875 10.7372C255.2 10.9825 255.597 11.1051 256.068 11.1051C256.559 11.1051 256.968 10.9759 257.296 10.7173C257.627 10.4555 257.876 10.1042 258.042 9.66335C258.211 9.21922 258.295 8.72538 258.295 8.18182C258.295 7.64489 258.212 7.16098 258.047 6.73011C257.884 6.29593 257.637 5.95289 257.306 5.70099C256.978 5.44579 256.565 5.31818 256.068 5.31818C255.591 5.31818 255.19 5.43916 254.865 5.68111C254.54 5.91974 254.295 6.2545 254.129 6.68537C253.963 7.11293 253.881 7.61174 253.881 8.18182ZM264.584 4.36364V5.35795H260.627V4.36364H264.584ZM261.78 2.53409H262.954V9.8125C262.954 10.1439 263.002 10.3925 263.098 10.5582C263.197 10.7206 263.323 10.83 263.476 10.8864C263.631 10.9394 263.796 10.9659 263.968 10.9659C264.097 10.9659 264.203 10.9593 264.286 10.946C264.369 10.9295 264.435 10.9162 264.485 10.9062L264.724 11.9602C264.644 11.9901 264.533 12.0199 264.39 12.0497C264.248 12.0829 264.067 12.0994 263.849 12.0994C263.517 12.0994 263.192 12.0282 262.874 11.8857C262.559 11.7431 262.297 11.526 262.089 11.2344C261.883 10.9427 261.78 10.5748 261.78 10.1307V2.53409ZM269.469 12.1591C268.733 12.1591 268.098 11.9967 267.565 11.6719C267.035 11.3438 266.625 10.8864 266.337 10.2997C266.052 9.70975 265.909 9.02367 265.909 8.24148C265.909 7.45928 266.052 6.76989 266.337 6.1733C266.625 5.57339 267.026 5.10606 267.54 4.77131C268.057 4.43324 268.66 4.2642 269.35 4.2642C269.747 4.2642 270.14 4.33049 270.528 4.46307C270.916 4.59564 271.269 4.81108 271.587 5.10938C271.905 5.40436 272.159 5.79545 272.347 6.28267C272.536 6.76989 272.631 7.36979 272.631 8.08239V8.57955H266.744V7.56534H271.438C271.438 7.13447 271.352 6.75 271.179 6.41193C271.01 6.07386 270.768 5.80705 270.453 5.61151C270.142 5.41596 269.774 5.31818 269.35 5.31818C268.882 5.31818 268.478 5.43419 268.137 5.66619C267.798 5.89489 267.538 6.19318 267.356 6.56108C267.174 6.92898 267.083 7.32339 267.083 7.74432V8.42045C267.083 8.99716 267.182 9.48603 267.381 9.88707C267.583 10.2848 267.863 10.5881 268.221 10.7969C268.579 11.0024 268.995 11.1051 269.469 11.1051C269.777 11.1051 270.056 11.062 270.304 10.9759C270.556 10.8864 270.773 10.7538 270.955 10.5781C271.138 10.3991 271.279 10.1771 271.378 9.91193L272.512 10.2301C272.392 10.6146 272.192 10.9527 271.91 11.2443C271.628 11.5327 271.28 11.758 270.866 11.9205C270.452 12.0795 269.986 12.1591 269.469 12.1591ZM275.589 7.40625V12H274.416V4.36364H275.549V5.55682H275.649C275.828 5.16903 276.099 4.85748 276.464 4.62216C276.829 4.38352 277.299 4.2642 277.876 4.2642C278.393 4.2642 278.845 4.37027 279.233 4.58239C279.621 4.79119 279.923 5.10938 280.138 5.53693C280.353 5.96117 280.461 6.49811 280.461 7.14773V12H279.288V7.22727C279.288 6.62737 279.132 6.16004 278.82 5.82528C278.509 5.48722 278.081 5.31818 277.538 5.31818C277.163 5.31818 276.829 5.39938 276.534 5.56179C276.242 5.72419 276.012 5.96117 275.843 6.27273C275.673 6.58428 275.589 6.96212 275.589 7.40625ZM285.807 12.1591C285.071 12.1591 284.436 11.9967 283.903 11.6719C283.372 11.3438 282.963 10.8864 282.675 10.2997C282.39 9.70975 282.247 9.02367 282.247 8.24148C282.247 7.45928 282.39 6.76989 282.675 6.1733C282.963 5.57339 283.364 5.10606 283.878 4.77131C284.395 4.43324 284.998 4.2642 285.688 4.2642C286.085 4.2642 286.478 4.33049 286.866 4.46307C287.254 4.59564 287.607 4.81108 287.925 5.10938C288.243 5.40436 288.496 5.79545 288.685 6.28267C288.874 6.76989 288.969 7.36979 288.969 8.08239V8.57955H283.082V7.56534H287.776C287.776 7.13447 287.689 6.75 287.517 6.41193C287.348 6.07386 287.106 5.80705 286.791 5.61151C286.48 5.41596 286.112 5.31818 285.688 5.31818C285.22 5.31818 284.816 5.43419 284.474 5.66619C284.136 5.89489 283.876 6.19318 283.694 6.56108C283.512 6.92898 283.42 7.32339 283.42 7.74432V8.42045C283.42 8.99716 283.52 9.48603 283.719 9.88707C283.921 10.2848 284.201 10.5881 284.559 10.7969C284.917 11.0024 285.333 11.1051 285.807 11.1051C286.115 11.1051 286.393 11.062 286.642 10.9759C286.894 10.8864 287.111 10.7538 287.293 10.5781C287.476 10.3991 287.616 10.1771 287.716 9.91193L288.849 10.2301C288.73 10.6146 288.53 10.9527 288.248 11.2443C287.966 11.5327 287.618 11.758 287.204 11.9205C286.79 12.0795 286.324 12.1591 285.807 12.1591ZM290.754 12V4.36364H291.887V5.51705H291.967C292.106 5.1392 292.358 4.83262 292.722 4.5973C293.087 4.36198 293.498 4.24432 293.955 4.24432C294.041 4.24432 294.149 4.24597 294.278 4.24929C294.408 4.2526 294.505 4.25758 294.572 4.2642V5.45739C294.532 5.44744 294.441 5.43253 294.298 5.41264C294.159 5.38944 294.012 5.37784 293.856 5.37784C293.485 5.37784 293.153 5.45573 292.862 5.61151C292.573 5.76397 292.344 5.97609 292.175 6.24787C292.01 6.51634 291.927 6.82292 291.927 7.16761V12H290.754Z" fill="#EDE8E2"/>
<path d="M2.07997 26V18.3636H3.25326V26H2.07997ZM2.67656 17.0909C2.44786 17.0909 2.25066 17.013 2.08494 16.8572C1.92253 16.7015 1.84133 16.5142 1.84133 16.2955C1.84133 16.0767 1.92253 15.8894 2.08494 15.7337C2.25066 15.5779 2.44786 15.5 2.67656 15.5C2.90525 15.5 3.1008 15.5779 3.26321 15.7337C3.42893 15.8894 3.51179 16.0767 3.51179 16.2955C3.51179 16.5142 3.42893 16.7015 3.26321 16.8572C3.1008 17.013 2.90525 17.0909 2.67656 17.0909ZM6.57553 21.4062V26H5.40223V18.3636H6.53576V19.5568H6.63519C6.81416 19.169 7.08595 18.8575 7.45053 18.6222C7.81511 18.3835 8.28576 18.2642 8.86246 18.2642C9.37951 18.2642 9.83192 18.3703 10.2197 18.5824C10.6075 18.7912 10.9091 19.1094 11.1245 19.5369C11.34 19.9612 11.4477 20.4981 11.4477 21.1477V26H10.2744V21.2273C10.2744 20.6274 10.1186 20.16 9.80706 19.8253C9.49551 19.4872 9.06795 19.3182 8.52439 19.3182C8.14987 19.3182 7.81511 19.3994 7.52013 19.5618C7.22846 19.7242 6.99811 19.9612 6.82908 20.2727C6.66005 20.5843 6.57553 20.9621 6.57553 21.4062ZM16.9923 18.3636V19.358H12.8758V18.3636H16.9923ZM14.1087 26V17.3097C14.1087 16.8722 14.2115 16.5076 14.417 16.2159C14.6225 15.9242 14.8893 15.7055 15.2174 15.5597C15.5455 15.4138 15.8919 15.3409 16.2565 15.3409C16.5448 15.3409 16.7801 15.3641 16.9624 15.4105C17.1447 15.4569 17.2806 15.5 17.3701 15.5398L17.032 16.554C16.9724 16.5341 16.8895 16.5092 16.7834 16.4794C16.6807 16.4496 16.5448 16.4347 16.3758 16.4347C15.988 16.4347 15.7079 16.5324 15.5356 16.728C15.3665 16.9235 15.282 17.2102 15.282 17.5881V26H14.1087ZM21.4244 26.1591C20.735 26.1591 20.1302 25.995 19.6098 25.6669C19.0928 25.3388 18.6884 24.8797 18.3967 24.2898C18.1084 23.6998 17.9642 23.0104 17.9642 22.2216C17.9642 21.4261 18.1084 20.7318 18.3967 20.1385C18.6884 19.5452 19.0928 19.0845 19.6098 18.7564C20.1302 18.4283 20.735 18.2642 21.4244 18.2642C22.1138 18.2642 22.717 18.4283 23.2341 18.7564C23.7544 19.0845 24.1588 19.5452 24.4472 20.1385C24.7388 20.7318 24.8847 21.4261 24.8847 22.2216C24.8847 23.0104 24.7388 23.6998 24.4472 24.2898C24.1588 24.8797 23.7544 25.3388 23.2341 25.6669C22.717 25.995 22.1138 26.1591 21.4244 26.1591ZM21.4244 25.1051C21.9481 25.1051 22.379 24.9709 22.717 24.7024C23.0551 24.4339 23.3053 24.081 23.4678 23.6435C23.6302 23.206 23.7114 22.732 23.7114 22.2216C23.7114 21.7112 23.6302 21.2356 23.4678 20.7947C23.3053 20.3539 23.0551 19.9976 22.717 19.7259C22.379 19.4541 21.9481 19.3182 21.4244 19.3182C20.9008 19.3182 20.4699 19.4541 20.1318 19.7259C19.7937 19.9976 19.5435 20.3539 19.3811 20.7947C19.2187 21.2356 19.1375 21.7112 19.1375 22.2216C19.1375 22.732 19.2187 23.206 19.3811 23.6435C19.5435 24.081 19.7937 24.4339 20.1318 24.7024C20.4699 24.9709 20.9008 25.1051 21.4244 25.1051ZM26.6757 26V18.3636H27.8092V19.517H27.8887C28.0279 19.1392 28.2798 18.8326 28.6444 18.5973C29.009 18.362 29.42 18.2443 29.8774 18.2443C29.9635 18.2443 30.0713 18.246 30.2005 18.2493C30.3298 18.2526 30.4276 18.2576 30.4939 18.2642V19.4574C30.4541 19.4474 30.3629 19.4325 30.2204 19.4126C30.0812 19.3894 29.9337 19.3778 29.7779 19.3778C29.4067 19.3778 29.0753 19.4557 28.7836 19.6115C28.4953 19.764 28.2666 19.9761 28.0975 20.2479C27.9318 20.5163 27.849 20.8229 27.849 21.1676V26H26.6757ZM31.8847 26V18.3636H33.0182V19.5568H33.1176C33.2767 19.1491 33.5336 18.8326 33.8882 18.6072C34.2428 18.3786 34.6687 18.2642 35.1659 18.2642C35.6697 18.2642 36.089 18.3786 36.4237 18.6072C36.7618 18.8326 37.0253 19.1491 37.2142 19.5568H37.2937C37.4893 19.1624 37.7826 18.8492 38.1737 18.6172C38.5648 18.3819 39.0338 18.2642 39.5807 18.2642C40.2634 18.2642 40.8219 18.478 41.2561 18.9055C41.6903 19.3298 41.9074 19.991 41.9074 20.8892V26H40.7341V20.8892C40.7341 20.3258 40.58 19.9231 40.2717 19.6811C39.9635 19.4392 39.6006 19.3182 39.183 19.3182C38.646 19.3182 38.2301 19.4806 37.9351 19.8054C37.6401 20.1269 37.4926 20.5346 37.4926 21.0284V26H36.2994V20.7699C36.2994 20.3357 36.1586 19.986 35.8768 19.7209C35.5951 19.4524 35.2322 19.3182 34.7881 19.3182C34.4831 19.3182 34.1981 19.3994 33.933 19.5618C33.6711 19.7242 33.459 19.9496 33.2966 20.2379C33.1375 20.523 33.058 20.8527 33.058 21.2273V26H31.8847ZM46.2998 26.179C45.8159 26.179 45.3767 26.0878 44.9823 25.9055C44.5879 25.7199 44.2747 25.4531 44.0427 25.1051C43.8107 24.7538 43.6947 24.3295 43.6947 23.8324C43.6947 23.3949 43.7808 23.0402 43.9532 22.7685C44.1255 22.4934 44.3559 22.2779 44.6442 22.1222C44.9326 21.9664 45.2508 21.8504 45.5988 21.7741C45.9501 21.6946 46.3031 21.6316 46.6577 21.5852C47.1218 21.5256 47.4979 21.4808 47.7863 21.451C48.078 21.4179 48.2901 21.3632 48.4227 21.2869C48.5585 21.2107 48.6265 21.0781 48.6265 20.8892V20.8494C48.6265 20.3589 48.4923 19.9777 48.2238 19.706C47.9586 19.4342 47.5559 19.2983 47.0157 19.2983C46.4556 19.2983 46.0164 19.4209 45.6982 19.6662C45.38 19.9115 45.1563 20.1733 45.0271 20.4517L43.9134 20.054C44.1123 19.59 44.3774 19.2287 44.7089 18.9702C45.0436 18.7083 45.4082 18.526 45.8026 18.4233C46.2004 18.3172 46.5914 18.2642 46.9759 18.2642C47.2212 18.2642 47.5029 18.294 47.8211 18.3537C48.1426 18.41 48.4525 18.5277 48.7508 18.7067C49.0524 18.8857 49.3026 19.1558 49.5015 19.517C49.7004 19.8783 49.7998 20.3622 49.7998 20.9688V26H48.6265V24.9659H48.5668C48.4873 25.1316 48.3547 25.3089 48.1691 25.4979C47.9835 25.6868 47.7366 25.8475 47.4283 25.9801C47.1201 26.1127 46.7439 26.179 46.2998 26.179ZM46.4788 25.125C46.9428 25.125 47.3339 25.0339 47.6521 24.8516C47.9736 24.6693 48.2155 24.4339 48.3779 24.1456C48.5436 23.8572 48.6265 23.554 48.6265 23.2358V22.1619C48.5768 22.2216 48.4674 22.2763 48.2984 22.326C48.1326 22.3724 47.9404 22.4138 47.7217 22.4503C47.5062 22.4834 47.2958 22.5133 47.0903 22.5398C46.8881 22.563 46.724 22.5829 46.5981 22.5994C46.2932 22.6392 46.0081 22.7038 45.743 22.7933C45.4811 22.8795 45.269 23.0104 45.1066 23.1861C44.9475 23.3584 44.868 23.5937 44.868 23.892C44.868 24.2997 45.0188 24.608 45.3204 24.8168C45.6253 25.0223 46.0114 25.125 46.4788 25.125ZM55.0436 26.1591C54.3277 26.1591 53.7112 25.9901 53.1941 25.652C52.6771 25.3139 52.2794 24.8482 52.001 24.255C51.7225 23.6617 51.5833 22.9839 51.5833 22.2216C51.5833 21.446 51.7259 20.7616 52.0109 20.1683C52.2992 19.5717 52.7003 19.1061 53.214 18.7713C53.7311 18.4332 54.3343 18.2642 55.0237 18.2642C55.5606 18.2642 56.0445 18.3636 56.4754 18.5625C56.9063 18.7614 57.2592 19.0398 57.5343 19.3977C57.8094 19.7557 57.9801 20.1733 58.0464 20.6506H56.8731C56.7836 20.3026 56.5848 19.9943 56.2765 19.7259C55.9716 19.4541 55.5606 19.3182 55.0436 19.3182C54.5862 19.3182 54.1851 19.4375 53.8404 19.6761C53.4991 19.9115 53.2323 20.2446 53.04 20.6754C52.8511 21.103 52.7566 21.6051 52.7566 22.1818C52.7566 22.7718 52.8494 23.2855 53.035 23.723C53.224 24.1605 53.4891 24.5002 53.8305 24.7422C54.1752 24.9841 54.5796 25.1051 55.0436 25.1051C55.3485 25.1051 55.6252 25.0521 55.8738 24.946C56.1224 24.84 56.3329 24.6875 56.5052 24.4886C56.6776 24.2898 56.8002 24.0511 56.8731 23.7727H58.0464C57.9801 24.2235 57.8161 24.6295 57.5542 24.9908C57.2957 25.3487 56.9527 25.6338 56.5251 25.8459C56.1009 26.0547 55.607 26.1591 55.0436 26.1591ZM59.7616 26V18.3636H60.9349V26H59.7616ZM60.3582 17.0909C60.1295 17.0909 59.9323 17.013 59.7666 16.8572C59.6042 16.7015 59.523 16.5142 59.523 16.2955C59.523 16.0767 59.6042 15.8894 59.7666 15.7337C59.9323 15.5779 60.1295 15.5 60.3582 15.5C60.5869 15.5 60.7824 15.5779 60.9448 15.7337C61.1106 15.8894 61.1934 16.0767 61.1934 16.2955C61.1934 16.5142 61.1106 16.7015 60.9448 16.8572C60.7824 17.013 60.5869 17.0909 60.3582 17.0909ZM66.1861 26.1591C65.4968 26.1591 64.8919 25.995 64.3715 25.6669C63.8545 25.3388 63.4501 24.8797 63.1584 24.2898C62.8701 23.6998 62.7259 23.0104 62.7259 22.2216C62.7259 21.4261 62.8701 20.7318 63.1584 20.1385C63.4501 19.5452 63.8545 19.0845 64.3715 18.7564C64.8919 18.4283 65.4968 18.2642 66.1861 18.2642C66.8755 18.2642 67.4788 18.4283 67.9958 18.7564C68.5162 19.0845 68.9205 19.5452 69.2089 20.1385C69.5005 20.7318 69.6464 21.4261 69.6464 22.2216C69.6464 23.0104 69.5005 23.6998 69.2089 24.2898C68.9205 24.8797 68.5162 25.3388 67.9958 25.6669C67.4788 25.995 66.8755 26.1591 66.1861 26.1591ZM66.1861 25.1051C66.7098 25.1051 67.1407 24.9709 67.4788 24.7024C67.8168 24.4339 68.0671 24.081 68.2295 23.6435C68.3919 23.206 68.4731 22.732 68.4731 22.2216C68.4731 21.7112 68.3919 21.2356 68.2295 20.7947C68.0671 20.3539 67.8168 19.9976 67.4788 19.7259C67.1407 19.4541 66.7098 19.3182 66.1861 19.3182C65.6625 19.3182 65.2316 19.4541 64.8935 19.7259C64.5555 19.9976 64.3052 20.3539 64.1428 20.7947C63.9804 21.2356 63.8992 21.7112 63.8992 22.2216C63.8992 22.732 63.9804 23.206 64.1428 23.6435C64.3052 24.081 64.5555 24.4339 64.8935 24.7024C65.2316 24.9709 65.6625 25.1051 66.1861 25.1051ZM65.6492 17.3295L66.8623 15.0227H68.2344L66.6833 17.3295H65.6492ZM72.6107 21.4062V26H71.4374V18.3636H72.5709V19.5568H72.6703C72.8493 19.169 73.1211 18.8575 73.4857 18.6222C73.8503 18.3835 74.3209 18.2642 74.8976 18.2642C75.4147 18.2642 75.8671 18.3703 76.2549 18.5824C76.6426 18.7912 76.9443 19.1094 77.1597 19.5369C77.3751 19.9612 77.4828 20.4981 77.4828 21.1477V26H76.3095V21.2273C76.3095 20.6274 76.1538 20.16 75.8422 19.8253C75.5307 19.4872 75.1031 19.3182 74.5595 19.3182C74.185 19.3182 73.8503 19.3994 73.5553 19.5618C73.2636 19.7242 73.0333 19.9612 72.8642 20.2727C72.6952 20.5843 72.6107 20.9621 72.6107 21.4062ZM84.32 28.8636C84.1212 28.8636 83.9438 28.8471 83.7881 28.8139C83.6323 28.7841 83.5246 28.7543 83.4649 28.7244L83.7632 27.6903C84.0482 27.7633 84.3001 27.7898 84.5189 27.7699C84.7376 27.75 84.9315 27.6522 85.1006 27.4766C85.2729 27.3042 85.4303 27.0241 85.5729 26.6364L85.7916 26.0398L82.9678 18.3636H84.2405L86.3484 24.4489H86.428L88.5359 18.3636H89.8087L86.5672 27.1136C86.4213 27.508 86.2407 27.8345 86.0253 28.093C85.8098 28.3549 85.5596 28.5488 85.2746 28.6747C84.9928 28.8007 84.6747 28.8636 84.32 28.8636ZM95.2948 28.8636V18.3636H96.4283V19.5767H96.5675C96.6537 19.4441 96.773 19.2751 96.9255 19.0696C97.0813 18.8608 97.3033 18.6752 97.5917 18.5128C97.8834 18.3471 98.2778 18.2642 98.7749 18.2642C99.4179 18.2642 99.9847 18.425 100.475 18.7464C100.966 19.0679 101.349 19.5237 101.624 20.1136C101.899 20.7036 102.036 21.3996 102.036 22.2017C102.036 23.0104 101.899 23.7114 101.624 24.3047C101.349 24.8946 100.967 25.352 100.48 25.6768C99.993 25.9983 99.4312 26.1591 98.7948 26.1591C98.3043 26.1591 97.9115 26.0779 97.6165 25.9155C97.3216 25.7498 97.0945 25.5625 96.9354 25.3537C96.7763 25.1416 96.6537 24.9659 96.5675 24.8267H96.4681V28.8636H95.2948ZM96.4482 22.1818C96.4482 22.7585 96.5327 23.2673 96.7018 23.7081C96.8708 24.1456 97.1177 24.4886 97.4425 24.7372C97.7673 24.9825 98.1651 25.1051 98.6357 25.1051C99.1263 25.1051 99.5356 24.9759 99.8637 24.7173C100.195 24.4555 100.444 24.1042 100.609 23.6634C100.778 23.2192 100.863 22.7254 100.863 22.1818C100.863 21.6449 100.78 21.161 100.614 20.7301C100.452 20.2959 100.205 19.9529 99.8736 19.701C99.5455 19.4458 99.1329 19.3182 98.6357 19.3182C98.1584 19.3182 97.7574 19.4392 97.4326 19.6811C97.1078 19.9197 96.8625 20.2545 96.6968 20.6854C96.5311 21.1129 96.4482 21.6117 96.4482 22.1818ZM103.826 26V18.3636H104.96V19.517H105.039C105.178 19.1392 105.43 18.8326 105.795 18.5973C106.159 18.362 106.57 18.2443 107.028 18.2443C107.114 18.2443 107.222 18.246 107.351 18.2493C107.48 18.2526 107.578 18.2576 107.644 18.2642V19.4574C107.604 19.4474 107.513 19.4325 107.371 19.4126C107.232 19.3894 107.084 19.3778 106.928 19.3778C106.557 19.3778 106.226 19.4557 105.934 19.6115C105.646 19.764 105.417 19.9761 105.248 20.2479C105.082 20.5163 104.999 20.8229 104.999 21.1676V26H103.826ZM111.905 26.1591C111.216 26.1591 110.611 25.995 110.09 25.6669C109.573 25.3388 109.169 24.8797 108.877 24.2898C108.589 23.6998 108.445 23.0104 108.445 22.2216C108.445 21.4261 108.589 20.7318 108.877 20.1385C109.169 19.5452 109.573 19.0845 110.09 18.7564C110.611 18.4283 111.216 18.2642 111.905 18.2642C112.594 18.2642 113.198 18.4283 113.715 18.7564C114.235 19.0845 114.639 19.5452 114.928 20.1385C115.219 20.7318 115.365 21.4261 115.365 22.2216C115.365 23.0104 115.219 23.6998 114.928 24.2898C114.639 24.8797 114.235 25.3388 113.715 25.6669C113.198 25.995 112.594 26.1591 111.905 26.1591ZM111.905 25.1051C112.429 25.1051 112.859 24.9709 113.198 24.7024C113.536 24.4339 113.786 24.081 113.948 23.6435C114.111 23.206 114.192 22.732 114.192 22.2216C114.192 21.7112 114.111 21.2356 113.948 20.7947C113.786 20.3539 113.536 19.9976 113.198 19.7259C112.859 19.4541 112.429 19.3182 111.905 19.3182C111.381 19.3182 110.95 19.4541 110.612 19.7259C110.274 19.9976 110.024 20.3539 109.862 20.7947C109.699 21.2356 109.618 21.7112 109.618 22.2216C109.618 22.732 109.699 23.206 109.862 23.6435C110.024 24.081 110.274 24.4339 110.612 24.7024C110.95 24.9709 111.381 25.1051 111.905 25.1051ZM117.156 26V18.3636H118.29V19.5568H118.389C118.548 19.1491 118.805 18.8326 119.16 18.6072C119.514 18.3786 119.94 18.2642 120.437 18.2642C120.941 18.2642 121.36 18.3786 121.695 18.6072C122.033 18.8326 122.297 19.1491 122.486 19.5568H122.565C122.761 19.1624 123.054 18.8492 123.445 18.6172C123.836 18.3819 124.305 18.2642 124.852 18.2642C125.535 18.2642 126.093 18.478 126.528 18.9055C126.962 19.3298 127.179 19.991 127.179 20.8892V26H126.006V20.8892C126.006 20.3258 125.851 19.9231 125.543 19.6811C125.235 19.4392 124.872 19.3182 124.454 19.3182C123.918 19.3182 123.502 19.4806 123.207 19.8054C122.912 20.1269 122.764 20.5346 122.764 21.0284V26H121.571V20.7699C121.571 20.3357 121.43 19.986 121.148 19.7209C120.867 19.4524 120.504 19.3182 120.06 19.3182C119.755 19.3182 119.47 19.3994 119.204 19.5618C118.943 19.7242 118.73 19.9496 118.568 20.2379C118.409 20.523 118.329 20.8527 118.329 21.2273V26H117.156ZM132.426 26.1591C131.737 26.1591 131.132 25.995 130.612 25.6669C130.095 25.3388 129.69 24.8797 129.399 24.2898C129.11 23.6998 128.966 23.0104 128.966 22.2216C128.966 21.4261 129.11 20.7318 129.399 20.1385C129.69 19.5452 130.095 19.0845 130.612 18.7564C131.132 18.4283 131.737 18.2642 132.426 18.2642C133.116 18.2642 133.719 18.4283 134.236 18.7564C134.756 19.0845 135.161 19.5452 135.449 20.1385C135.741 20.7318 135.887 21.4261 135.887 22.2216C135.887 23.0104 135.741 23.6998 135.449 24.2898C135.161 24.8797 134.756 25.3388 134.236 25.6669C133.719 25.995 133.116 26.1591 132.426 26.1591ZM132.426 25.1051C132.95 25.1051 133.381 24.9709 133.719 24.7024C134.057 24.4339 134.307 24.081 134.47 23.6435C134.632 23.206 134.713 22.732 134.713 22.2216C134.713 21.7112 134.632 21.2356 134.47 20.7947C134.307 20.3539 134.057 19.9976 133.719 19.7259C133.381 19.4541 132.95 19.3182 132.426 19.3182C131.903 19.3182 131.472 19.4541 131.134 19.7259C130.796 19.9976 130.545 20.3539 130.383 20.7947C130.221 21.2356 130.139 21.7112 130.139 22.2216C130.139 22.732 130.221 23.206 130.383 23.6435C130.545 24.081 130.796 24.4339 131.134 24.7024C131.472 24.9709 131.903 25.1051 132.426 25.1051ZM140.78 26.1591C140.064 26.1591 139.448 25.9901 138.93 25.652C138.413 25.3139 138.016 24.8482 137.737 24.255C137.459 23.6617 137.32 22.9839 137.32 22.2216C137.32 21.446 137.462 20.7616 137.747 20.1683C138.036 19.5717 138.437 19.1061 138.95 18.7713C139.467 18.4332 140.071 18.2642 140.76 18.2642C141.297 18.2642 141.781 18.3636 142.212 18.5625C142.643 18.7614 142.996 19.0398 143.271 19.3977C143.546 19.7557 143.716 20.1733 143.783 20.6506H142.609C142.52 20.3026 142.321 19.9943 142.013 19.7259C141.708 19.4541 141.297 19.3182 140.78 19.3182C140.323 19.3182 139.921 19.4375 139.577 19.6761C139.235 19.9115 138.969 20.2446 138.776 20.6754C138.587 21.103 138.493 21.6051 138.493 22.1818C138.493 22.7718 138.586 23.2855 138.771 23.723C138.96 24.1605 139.225 24.5002 139.567 24.7422C139.912 24.9841 140.316 25.1051 140.78 25.1051C141.085 25.1051 141.362 25.0521 141.61 24.946C141.859 24.84 142.069 24.6875 142.242 24.4886C142.414 24.2898 142.537 24.0511 142.609 23.7727H143.783C143.716 24.2235 143.552 24.6295 143.291 24.9908C143.032 25.3487 142.689 25.6338 142.261 25.8459C141.837 26.0547 141.343 26.1591 140.78 26.1591ZM145.498 26V18.3636H146.671V26H145.498ZM146.095 17.0909C145.866 17.0909 145.669 17.013 145.503 16.8572C145.341 16.7015 145.259 16.5142 145.259 16.2955C145.259 16.0767 145.341 15.8894 145.503 15.7337C145.669 15.5779 145.866 15.5 146.095 15.5C146.323 15.5 146.519 15.5779 146.681 15.7337C146.847 15.8894 146.93 16.0767 146.93 16.2955C146.93 16.5142 146.847 16.7015 146.681 16.8572C146.519 17.013 146.323 17.0909 146.095 17.0909ZM151.922 26.1591C151.233 26.1591 150.628 25.995 150.108 25.6669C149.591 25.3388 149.186 24.8797 148.895 24.2898C148.606 23.6998 148.462 23.0104 148.462 22.2216C148.462 21.4261 148.606 20.7318 148.895 20.1385C149.186 19.5452 149.591 19.0845 150.108 18.7564C150.628 18.4283 151.233 18.2642 151.922 18.2642C152.612 18.2642 153.215 18.4283 153.732 18.7564C154.252 19.0845 154.657 19.5452 154.945 20.1385C155.237 20.7318 155.383 21.4261 155.383 22.2216C155.383 23.0104 155.237 23.6998 154.945 24.2898C154.657 24.8797 154.252 25.3388 153.732 25.6669C153.215 25.995 152.612 26.1591 151.922 26.1591ZM151.922 25.1051C152.446 25.1051 152.877 24.9709 153.215 24.7024C153.553 24.4339 153.803 24.081 153.966 23.6435C154.128 23.206 154.209 22.732 154.209 22.2216C154.209 21.7112 154.128 21.2356 153.966 20.7947C153.803 20.3539 153.553 19.9976 153.215 19.7259C152.877 19.4541 152.446 19.3182 151.922 19.3182C151.399 19.3182 150.968 19.4541 150.63 19.7259C150.292 19.9976 150.042 20.3539 149.879 20.7947C149.717 21.2356 149.636 21.7112 149.636 22.2216C149.636 22.732 149.717 23.206 149.879 23.6435C150.042 24.081 150.292 24.4339 150.63 24.7024C150.968 24.9709 151.399 25.1051 151.922 25.1051ZM158.347 21.4062V26H157.174V18.3636H158.307V19.5568H158.407C158.586 19.169 158.857 18.8575 159.222 18.6222C159.587 18.3835 160.057 18.2642 160.634 18.2642C161.151 18.2642 161.603 18.3703 161.991 18.5824C162.379 18.7912 162.681 19.1094 162.896 19.5369C163.111 19.9612 163.219 20.4981 163.219 21.1477V26H162.046V21.2273C162.046 20.6274 161.89 20.16 161.579 19.8253C161.267 19.4872 160.839 19.3182 160.296 19.3182C159.921 19.3182 159.587 19.3994 159.292 19.5618C159 19.7242 158.77 19.9612 158.601 20.2727C158.432 20.5843 158.347 20.9621 158.347 21.4062ZM168.565 26.1591C167.829 26.1591 167.194 25.9967 166.661 25.6719C166.13 25.3438 165.721 24.8864 165.433 24.2997C165.148 23.7098 165.005 23.0237 165.005 22.2415C165.005 21.4593 165.148 20.7699 165.433 20.1733C165.721 19.5734 166.122 19.1061 166.636 18.7713C167.153 18.4332 167.756 18.2642 168.446 18.2642C168.843 18.2642 169.236 18.3305 169.624 18.4631C170.012 18.5956 170.365 18.8111 170.683 19.1094C171.001 19.4044 171.255 19.7955 171.443 20.2827C171.632 20.7699 171.727 21.3698 171.727 22.0824V22.5795H165.84V21.5653H170.534C170.534 21.1345 170.447 20.75 170.275 20.4119C170.106 20.0739 169.864 19.8071 169.549 19.6115C169.238 19.416 168.87 19.3182 168.446 19.3182C167.978 19.3182 167.574 19.4342 167.232 19.6662C166.894 19.8949 166.634 20.1932 166.452 20.5611C166.27 20.929 166.179 21.3234 166.179 21.7443V22.4205C166.179 22.9972 166.278 23.486 166.477 23.8871C166.679 24.2848 166.959 24.5881 167.317 24.7969C167.675 25.0024 168.091 25.1051 168.565 25.1051C168.873 25.1051 169.152 25.062 169.4 24.9759C169.652 24.8864 169.869 24.7538 170.051 24.5781C170.234 24.3991 170.375 24.1771 170.474 23.9119L171.607 24.2301C171.488 24.6146 171.288 24.9527 171.006 25.2443C170.724 25.5327 170.376 25.758 169.962 25.9205C169.548 26.0795 169.082 26.1591 168.565 26.1591ZM178.921 20.0739L177.867 20.3722C177.8 20.1965 177.703 20.0258 177.573 19.8601C177.447 19.6911 177.275 19.5518 177.056 19.4425C176.838 19.3331 176.558 19.2784 176.216 19.2784C175.749 19.2784 175.359 19.3861 175.048 19.6016C174.74 19.8137 174.585 20.0838 174.585 20.4119C174.585 20.7036 174.692 20.9339 174.904 21.103C175.116 21.272 175.447 21.4129 175.898 21.5256L177.031 21.804C177.714 21.9697 178.223 22.2232 178.558 22.5646C178.893 22.9027 179.06 23.3385 179.06 23.8722C179.06 24.3097 178.934 24.7008 178.682 25.0455C178.433 25.3902 178.085 25.6619 177.638 25.8608C177.191 26.0597 176.67 26.1591 176.077 26.1591C175.298 26.1591 174.653 25.9901 174.143 25.652C173.633 25.3139 173.309 24.8201 173.174 24.1705L174.287 23.892C174.393 24.303 174.594 24.6113 174.889 24.8168C175.187 25.0223 175.576 25.125 176.057 25.125C176.604 25.125 177.038 25.009 177.36 24.777C177.684 24.5417 177.847 24.2599 177.847 23.9318C177.847 23.6667 177.754 23.4446 177.568 23.2656C177.383 23.0833 177.098 22.9474 176.713 22.858L175.441 22.5597C174.741 22.3939 174.228 22.1371 173.899 21.7891C173.575 21.4377 173.412 20.9986 173.412 20.4716C173.412 20.0407 173.533 19.6596 173.775 19.3281C174.02 18.9967 174.353 18.7365 174.774 18.5476C175.199 18.3587 175.679 18.2642 176.216 18.2642C176.972 18.2642 177.565 18.4299 177.996 18.7614C178.43 19.0928 178.738 19.5303 178.921 20.0739ZM187.965 26.1591C187.229 26.1591 186.595 25.9967 186.061 25.6719C185.531 25.3438 185.122 24.8864 184.833 24.2997C184.548 23.7098 184.406 23.0237 184.406 22.2415C184.406 21.4593 184.548 20.7699 184.833 20.1733C185.122 19.5734 185.523 19.1061 186.036 18.7713C186.553 18.4332 187.157 18.2642 187.846 18.2642C188.244 18.2642 188.636 18.3305 189.024 18.4631C189.412 18.5956 189.765 18.8111 190.083 19.1094C190.401 19.4044 190.655 19.7955 190.844 20.2827C191.033 20.7699 191.127 21.3698 191.127 22.0824V22.5795H185.241V21.5653H189.934C189.934 21.1345 189.848 20.75 189.675 20.4119C189.506 20.0739 189.265 19.8071 188.95 19.6115C188.638 19.416 188.27 19.3182 187.846 19.3182C187.379 19.3182 186.974 19.4342 186.633 19.6662C186.295 19.8949 186.035 20.1932 185.852 20.5611C185.67 20.929 185.579 21.3234 185.579 21.7443V22.4205C185.579 22.9972 185.678 23.486 185.877 23.8871C186.079 24.2848 186.359 24.5881 186.717 24.7969C187.075 25.0024 187.491 25.1051 187.965 25.1051C188.274 25.1051 188.552 25.062 188.8 24.9759C189.052 24.8864 189.269 24.7538 189.452 24.5781C189.634 24.3991 189.775 24.1771 189.874 23.9119L191.008 24.2301C190.889 24.6146 190.688 24.9527 190.406 25.2443C190.125 25.5327 189.777 25.758 189.362 25.9205C188.948 26.0795 188.482 26.1591 187.965 26.1591ZM193.582 18.3636L195.411 21.4858L197.241 18.3636H198.593L196.127 22.1818L198.593 26H197.241L195.411 23.0369L193.582 26H192.23L194.656 22.1818L192.23 18.3636H193.582ZM203.055 26.1591C202.339 26.1591 201.723 25.9901 201.206 25.652C200.689 25.3139 200.291 24.8482 200.013 24.255C199.734 23.6617 199.595 22.9839 199.595 22.2216C199.595 21.446 199.738 20.7616 200.023 20.1683C200.311 19.5717 200.712 19.1061 201.226 18.7713C201.743 18.4332 202.346 18.2642 203.035 18.2642C203.572 18.2642 204.056 18.3636 204.487 18.5625C204.918 18.7614 205.271 19.0398 205.546 19.3977C205.821 19.7557 205.992 20.1733 206.058 20.6506H204.885C204.795 20.3026 204.596 19.9943 204.288 19.7259C203.983 19.4541 203.572 19.3182 203.055 19.3182C202.598 19.3182 202.197 19.4375 201.852 19.6761C201.511 19.9115 201.244 20.2446 201.052 20.6754C200.863 21.103 200.768 21.6051 200.768 22.1818C200.768 22.7718 200.861 23.2855 201.047 23.723C201.236 24.1605 201.501 24.5002 201.842 24.7422C202.187 24.9841 202.591 25.1051 203.055 25.1051C203.36 25.1051 203.637 25.0521 203.886 24.946C204.134 24.84 204.345 24.6875 204.517 24.4886C204.689 24.2898 204.812 24.0511 204.885 23.7727H206.058C205.992 24.2235 205.828 24.6295 205.566 24.9908C205.307 25.3487 204.964 25.6338 204.537 25.8459C204.113 26.0547 203.619 26.1591 203.055 26.1591ZM208.947 15.8182V26H207.773V15.8182H208.947ZM215.908 22.8778V18.3636H217.081V26H215.908V24.7074H215.829C215.65 25.0952 215.371 25.425 214.993 25.6967C214.615 25.9652 214.138 26.0994 213.562 26.0994C213.084 26.0994 212.66 25.995 212.289 25.7862C211.918 25.5741 211.626 25.2559 211.414 24.8317C211.202 24.4041 211.096 23.8655 211.096 23.2159V18.3636H212.269V23.1364C212.269 23.6932 212.425 24.1373 212.736 24.4688C213.051 24.8002 213.452 24.9659 213.939 24.9659C214.231 24.9659 214.528 24.8913 214.829 24.7422C215.134 24.593 215.389 24.3643 215.595 24.0561C215.804 23.7479 215.908 23.3551 215.908 22.8778ZM224.639 20.0739L223.585 20.3722C223.519 20.1965 223.421 20.0258 223.292 19.8601C223.166 19.6911 222.994 19.5518 222.775 19.4425C222.556 19.3331 222.276 19.2784 221.935 19.2784C221.468 19.2784 221.078 19.3861 220.767 19.6016C220.458 19.8137 220.304 20.0838 220.304 20.4119C220.304 20.7036 220.41 20.9339 220.622 21.103C220.835 21.272 221.166 21.4129 221.617 21.5256L222.75 21.804C223.433 21.9697 223.942 22.2232 224.277 22.5646C224.611 22.9027 224.779 23.3385 224.779 23.8722C224.779 24.3097 224.653 24.7008 224.401 25.0455C224.152 25.3902 223.804 25.6619 223.357 25.8608C222.909 26.0597 222.389 26.1591 221.796 26.1591C221.017 26.1591 220.372 25.9901 219.862 25.652C219.351 25.3139 219.028 24.8201 218.892 24.1705L220.006 23.892C220.112 24.303 220.313 24.6113 220.607 24.8168C220.906 25.0223 221.295 25.125 221.776 25.125C222.323 25.125 222.757 25.009 223.078 24.777C223.403 24.5417 223.566 24.2599 223.566 23.9318C223.566 23.6667 223.473 23.4446 223.287 23.2656C223.102 23.0833 222.817 22.9474 222.432 22.858L221.159 22.5597C220.46 22.3939 219.946 22.1371 219.618 21.7891C219.293 21.4377 219.131 20.9986 219.131 20.4716C219.131 20.0407 219.252 19.6596 219.494 19.3281C219.739 18.9967 220.072 18.7365 220.493 18.5476C220.917 18.3587 221.398 18.2642 221.935 18.2642C222.691 18.2642 223.284 18.4299 223.715 18.7614C224.149 19.0928 224.457 19.5303 224.639 20.0739ZM226.545 26V18.3636H227.718V26H226.545ZM227.141 17.0909C226.913 17.0909 226.716 17.013 226.55 16.8572C226.387 16.7015 226.306 16.5142 226.306 16.2955C226.306 16.0767 226.387 15.8894 226.55 15.7337C226.716 15.5779 226.913 15.5 227.141 15.5C227.37 15.5 227.566 15.5779 227.728 15.7337C227.894 15.8894 227.977 16.0767 227.977 16.2955C227.977 16.5142 227.894 16.7015 227.728 16.8572C227.566 17.013 227.37 17.0909 227.141 17.0909ZM236.111 18.3636L233.288 26H232.094L229.27 18.3636H230.543L232.651 24.4489H232.731L234.839 18.3636H236.111ZM239.675 26.179C239.191 26.179 238.752 26.0878 238.357 25.9055C237.963 25.7199 237.65 25.4531 237.418 25.1051C237.186 24.7538 237.07 24.3295 237.07 23.8324C237.07 23.3949 237.156 23.0402 237.328 22.7685C237.501 22.4934 237.731 22.2779 238.019 22.1222C238.308 21.9664 238.626 21.8504 238.974 21.7741C239.325 21.6946 239.678 21.6316 240.033 21.5852C240.497 21.5256 240.873 21.4808 241.161 21.451C241.453 21.4179 241.665 21.3632 241.798 21.2869C241.934 21.2107 242.001 21.0781 242.001 20.8892V20.8494C242.001 20.3589 241.867 19.9777 241.599 19.706C241.334 19.4342 240.931 19.2983 240.391 19.2983C239.831 19.2983 239.391 19.4209 239.073 19.6662C238.755 19.9115 238.531 20.1733 238.402 20.4517L237.288 20.054C237.487 19.59 237.752 19.2287 238.084 18.9702C238.419 18.7083 238.783 18.526 239.178 18.4233C239.575 18.3172 239.966 18.2642 240.351 18.2642C240.596 18.2642 240.878 18.294 241.196 18.3537C241.518 18.41 241.827 18.5277 242.126 18.7067C242.427 18.8857 242.678 19.1558 242.876 19.517C243.075 19.8783 243.175 20.3622 243.175 20.9688V26H242.001V24.9659H241.942C241.862 25.1316 241.73 25.3089 241.544 25.4979C241.358 25.6868 241.112 25.8475 240.803 25.9801C240.495 26.1127 240.119 26.179 239.675 26.179ZM239.854 25.125C240.318 25.125 240.709 25.0339 241.027 24.8516C241.349 24.6693 241.591 24.4339 241.753 24.1456C241.919 23.8572 242.001 23.554 242.001 23.2358V22.1619C241.952 22.2216 241.842 22.2763 241.673 22.326C241.508 22.3724 241.315 22.4138 241.097 22.4503C240.881 22.4834 240.671 22.5133 240.465 22.5398C240.263 22.563 240.099 22.5829 239.973 22.5994C239.668 22.6392 239.383 22.7038 239.118 22.7933C238.856 22.8795 238.644 23.0104 238.482 23.1861C238.323 23.3584 238.243 23.5937 238.243 23.892C238.243 24.2997 238.394 24.608 238.695 24.8168C239 25.0223 239.386 25.125 239.854 25.125ZM250.725 20.0739L249.671 20.3722C249.605 20.1965 249.507 20.0258 249.378 19.8601C249.252 19.6911 249.08 19.5518 248.861 19.4425C248.642 19.3331 248.362 19.2784 248.021 19.2784C247.554 19.2784 247.164 19.3861 246.853 19.6016C246.544 19.8137 246.39 20.0838 246.39 20.4119C246.39 20.7036 246.496 20.9339 246.708 21.103C246.92 21.272 247.252 21.4129 247.703 21.5256L248.836 21.804C249.519 21.9697 250.028 22.2232 250.362 22.5646C250.697 22.9027 250.865 23.3385 250.865 23.8722C250.865 24.3097 250.739 24.7008 250.487 25.0455C250.238 25.3902 249.89 25.6619 249.443 25.8608C248.995 26.0597 248.475 26.1591 247.882 26.1591C247.103 26.1591 246.458 25.9901 245.948 25.652C245.437 25.3139 245.114 24.8201 244.978 24.1705L246.092 23.892C246.198 24.303 246.398 24.6113 246.693 24.8168C246.992 25.0223 247.381 25.125 247.862 25.125C248.409 25.125 248.843 25.009 249.164 24.777C249.489 24.5417 249.652 24.2599 249.652 23.9318C249.652 23.6667 249.559 23.4446 249.373 23.2656C249.188 23.0833 248.902 22.9474 248.518 22.858L247.245 22.5597C246.546 22.3939 246.032 22.1371 245.704 21.7891C245.379 21.4377 245.217 20.9986 245.217 20.4716C245.217 20.0407 245.338 19.6596 245.58 19.3281C245.825 18.9967 246.158 18.7365 246.579 18.5476C247.003 18.3587 247.484 18.2642 248.021 18.2642C248.777 18.2642 249.37 18.4299 249.801 18.7614C250.235 19.0928 250.543 19.5303 250.725 20.0739ZM258.815 26.179C258.332 26.179 257.892 26.0878 257.498 25.9055C257.104 25.7199 256.79 25.4531 256.558 25.1051C256.326 24.7538 256.21 24.3295 256.21 23.8324C256.21 23.3949 256.296 23.0402 256.469 22.7685C256.641 22.4934 256.872 22.2779 257.16 22.1222C257.448 21.9664 257.766 21.8504 258.114 21.7741C258.466 21.6946 258.819 21.6316 259.173 21.5852C259.637 21.5256 260.014 21.4808 260.302 21.451C260.594 21.4179 260.806 21.3632 260.938 21.2869C261.074 21.2107 261.142 21.0781 261.142 20.8892V20.8494C261.142 20.3589 261.008 19.9777 260.739 19.706C260.474 19.4342 260.072 19.2983 259.531 19.2983C258.971 19.2983 258.532 19.4209 258.214 19.6662C257.896 19.9115 257.672 20.1733 257.543 20.4517L256.429 20.054C256.628 19.59 256.893 19.2287 257.224 18.9702C257.559 18.7083 257.924 18.526 258.318 18.4233C258.716 18.3172 259.107 18.2642 259.492 18.2642C259.737 18.2642 260.019 18.294 260.337 18.3537C260.658 18.41 260.968 18.5277 261.266 18.7067C261.568 18.8857 261.818 19.1558 262.017 19.517C262.216 19.8783 262.315 20.3622 262.315 20.9688V26H261.142V24.9659H261.082C261.003 25.1316 260.87 25.3089 260.685 25.4979C260.499 25.6868 260.252 25.8475 259.944 25.9801C259.636 26.1127 259.26 26.179 258.815 26.179ZM258.994 25.125C259.458 25.125 259.849 25.0339 260.168 24.8516C260.489 24.6693 260.731 24.4339 260.894 24.1456C261.059 23.8572 261.142 23.554 261.142 23.2358V22.1619C261.092 22.2216 260.983 22.2763 260.814 22.326C260.648 22.3724 260.456 22.4138 260.237 22.4503C260.022 22.4834 259.811 22.5133 259.606 22.5398C259.404 22.563 259.24 22.5829 259.114 22.5994C258.809 22.6392 258.524 22.7038 258.259 22.7933C257.997 22.8795 257.785 23.0104 257.622 23.1861C257.463 23.3584 257.384 23.5937 257.384 23.892C257.384 24.2997 257.534 24.608 257.836 24.8168C258.141 25.0223 258.527 25.125 258.994 25.125ZM265.63 21.4062V26H264.457V18.3636H265.59V19.5568H265.69C265.869 19.169 266.141 18.8575 266.505 18.6222C266.87 18.3835 267.34 18.2642 267.917 18.2642C268.434 18.2642 268.887 18.3703 269.274 18.5824C269.662 18.7912 269.964 19.1094 270.179 19.5369C270.395 19.9612 270.502 20.4981 270.502 21.1477V26H269.329V21.2273C269.329 20.6274 269.173 20.16 268.862 19.8253C268.55 19.4872 268.123 19.3182 267.579 19.3182C267.205 19.3182 266.87 19.3994 266.575 19.5618C266.283 19.7242 266.053 19.9612 265.884 20.2727C265.715 20.5843 265.63 20.9621 265.63 21.4062ZM275.967 18.3636V19.358H272.01V18.3636H275.967ZM273.163 16.5341H274.337V23.8125C274.337 24.1439 274.385 24.3925 274.481 24.5582C274.58 24.7206 274.706 24.83 274.859 24.8864C275.015 24.9394 275.179 24.9659 275.351 24.9659C275.48 24.9659 275.586 24.9593 275.669 24.946C275.752 24.9295 275.818 24.9162 275.868 24.9062L276.107 25.9602C276.027 25.9901 275.916 26.0199 275.774 26.0497C275.631 26.0829 275.45 26.0994 275.232 26.0994C274.9 26.0994 274.575 26.0282 274.257 25.8857C273.942 25.7431 273.68 25.526 273.472 25.2344C273.266 24.9427 273.163 24.5748 273.163 24.1307V16.5341ZM280.852 26.1591C280.116 26.1591 279.481 25.9967 278.948 25.6719C278.418 25.3438 278.008 24.8864 277.72 24.2997C277.435 23.7098 277.292 23.0237 277.292 22.2415C277.292 21.4593 277.435 20.7699 277.72 20.1733C278.008 19.5734 278.409 19.1061 278.923 18.7713C279.44 18.4332 280.043 18.2642 280.733 18.2642C281.13 18.2642 281.523 18.3305 281.911 18.4631C282.299 18.5956 282.652 18.8111 282.97 19.1094C283.288 19.4044 283.542 19.7955 283.731 20.2827C283.919 20.7699 284.014 21.3698 284.014 22.0824V22.5795H278.128V21.5653H282.821C282.821 21.1345 282.735 20.75 282.562 20.4119C282.393 20.0739 282.151 19.8071 281.836 19.6115C281.525 19.416 281.157 19.3182 280.733 19.3182C280.265 19.3182 279.861 19.4342 279.52 19.6662C279.182 19.8949 278.921 20.1932 278.739 20.5611C278.557 20.929 278.466 21.3234 278.466 21.7443V22.4205C278.466 22.9972 278.565 23.486 278.764 23.8871C278.966 24.2848 279.246 24.5881 279.604 24.7969C279.962 25.0024 280.378 25.1051 280.852 25.1051C281.16 25.1051 281.439 25.062 281.687 24.9759C281.939 24.8864 282.156 24.7538 282.338 24.5781C282.521 24.3991 282.662 24.1771 282.761 23.9119L283.895 24.2301C283.775 24.6146 283.575 24.9527 283.293 25.2443C283.011 25.5327 282.663 25.758 282.249 25.9205C281.835 26.0795 281.369 26.1591 280.852 26.1591ZM291.208 20.0739L290.154 20.3722C290.088 20.1965 289.99 20.0258 289.861 19.8601C289.735 19.6911 289.562 19.5518 289.343 19.4425C289.125 19.3331 288.845 19.2784 288.503 19.2784C288.036 19.2784 287.646 19.3861 287.335 19.6016C287.027 19.8137 286.873 20.0838 286.873 20.4119C286.873 20.7036 286.979 20.9339 287.191 21.103C287.403 21.272 287.734 21.4129 288.185 21.5256L289.319 21.804C290.001 21.9697 290.51 22.2232 290.845 22.5646C291.18 22.9027 291.347 23.3385 291.347 23.8722C291.347 24.3097 291.221 24.7008 290.969 25.0455C290.721 25.3902 290.373 25.6619 289.925 25.8608C289.478 26.0597 288.957 26.1591 288.364 26.1591C287.585 26.1591 286.941 25.9901 286.43 25.652C285.92 25.3139 285.597 24.8201 285.461 24.1705L286.574 23.892C286.68 24.303 286.881 24.6113 287.176 24.8168C287.474 25.0223 287.864 25.125 288.344 25.125C288.891 25.125 289.325 25.009 289.647 24.777C289.972 24.5417 290.134 24.2599 290.134 23.9318C290.134 23.6667 290.041 23.4446 289.856 23.2656C289.67 23.0833 289.385 22.9474 289 22.858L287.728 22.5597C287.028 22.3939 286.515 22.1371 286.187 21.7891C285.862 21.4377 285.699 20.9986 285.699 20.4716C285.699 20.0407 285.82 19.6596 286.062 19.3281C286.307 18.9967 286.641 18.7365 287.062 18.5476C287.486 18.3587 287.966 18.2642 288.503 18.2642C289.259 18.2642 289.852 18.4299 290.283 18.7614C290.717 19.0928 291.026 19.5303 291.208 20.0739Z" fill="#EDE8E2"/>
<path d="M86.7714 42.8636V38.8267H86.672C86.5858 38.9659 86.4632 39.1416 86.3041 39.3537C86.145 39.5625 85.9179 39.7498 85.623 39.9155C85.328 40.0779 84.9352 40.1591 84.4447 40.1591C83.8083 40.1591 83.2465 39.9983 82.7593 39.6768C82.2721 39.352 81.891 38.8946 81.6159 38.3047C81.3408 37.7114 81.2032 37.0104 81.2032 36.2017C81.2032 35.3996 81.3408 34.7036 81.6159 34.1136C81.891 33.5237 82.2738 33.0679 82.7643 32.7464C83.2548 32.425 83.8216 32.2642 84.4646 32.2642C84.9617 32.2642 85.3545 32.3471 85.6428 32.5128C85.9345 32.6752 86.1566 32.8608 86.309 33.0696C86.4648 33.2751 86.5858 33.4441 86.672 33.5767H86.8112V32.3636H87.9447V42.8636H86.7714ZM84.6038 39.1051C85.0744 39.1051 85.4722 38.9825 85.797 38.7372C86.1218 38.4886 86.3687 38.1456 86.5377 37.7081C86.7068 37.2673 86.7913 36.7585 86.7913 36.1818C86.7913 35.6117 86.7084 35.1129 86.5427 34.6854C86.377 34.2545 86.1317 33.9197 85.8069 33.6811C85.4821 33.4392 85.0811 33.3182 84.6038 33.3182C84.1066 33.3182 83.6923 33.4458 83.3609 33.701C83.0328 33.9529 82.7858 34.2959 82.6201 34.7301C82.4577 35.161 82.3765 35.6449 82.3765 36.1818C82.3765 36.7254 82.4594 37.2192 82.6251 37.6634C82.7941 38.1042 83.0427 38.4555 83.3708 38.7173C83.7023 38.9759 84.1133 39.1051 84.6038 39.1051ZM94.9049 36.8778V32.3636H96.0782V40H94.9049V38.7074H94.8254C94.6464 39.0952 94.368 39.425 93.9901 39.6967C93.6123 39.9652 93.135 40.0994 92.5583 40.0994C92.0811 40.0994 91.6568 39.995 91.2856 39.7862C90.9144 39.5741 90.6227 39.2559 90.4106 38.8317C90.1985 38.4041 90.0924 37.8655 90.0924 37.2159V32.3636H91.2657V37.1364C91.2657 37.6932 91.4215 38.1373 91.733 38.4688C92.0479 38.8002 92.449 38.9659 92.9362 38.9659C93.2278 38.9659 93.5245 38.8913 93.8261 38.7422C94.131 38.593 94.3862 38.3643 94.5917 38.0561C94.8005 37.7479 94.9049 37.3551 94.9049 36.8778ZM101.429 40.1591C100.693 40.1591 100.058 39.9967 99.5248 39.6719C98.9945 39.3438 98.5851 38.8864 98.2968 38.2997C98.0117 37.7098 97.8692 37.0237 97.8692 36.2415C97.8692 35.4593 98.0117 34.7699 98.2968 34.1733C98.5851 33.5734 98.9862 33.1061 99.4999 32.7713C100.017 32.4332 100.62 32.2642 101.31 32.2642C101.707 32.2642 102.1 32.3305 102.488 32.4631C102.876 32.5956 103.229 32.8111 103.547 33.1094C103.865 33.4044 104.119 33.7955 104.307 34.2827C104.496 34.7699 104.591 35.3698 104.591 36.0824V36.5795H98.7045V35.5653H103.398C103.398 35.1345 103.311 34.75 103.139 34.4119C102.97 34.0739 102.728 33.8071 102.413 33.6115C102.102 33.416 101.734 33.3182 101.31 33.3182C100.842 33.3182 100.438 33.4342 100.097 33.6662C99.7584 33.8949 99.4983 34.1932 99.316 34.5611C99.1337 34.929 99.0425 35.3234 99.0425 35.7443V36.4205C99.0425 36.9972 99.142 37.486 99.3408 37.8871C99.543 38.2848 99.8231 38.5881 100.181 38.7969C100.539 39.0024 100.955 39.1051 101.429 39.1051C101.737 39.1051 102.016 39.062 102.264 38.9759C102.516 38.8864 102.733 38.7538 102.915 38.5781C103.098 38.3991 103.239 38.1771 103.338 37.9119L104.472 38.2301C104.352 38.6146 104.152 38.9527 103.87 39.2443C103.588 39.5327 103.24 39.758 102.826 39.9205C102.412 40.0795 101.946 40.1591 101.429 40.1591ZM113.634 32.3636V33.358H109.677V32.3636H113.634ZM110.83 30.5341H112.003V37.8125C112.003 38.1439 112.052 38.3925 112.148 38.5582C112.247 38.7206 112.373 38.83 112.525 38.8864C112.681 38.9394 112.845 38.9659 113.018 38.9659C113.147 38.9659 113.253 38.9593 113.336 38.946C113.419 38.9295 113.485 38.9162 113.535 38.9062L113.773 39.9602C113.694 39.9901 113.583 40.0199 113.44 40.0497C113.298 40.0829 113.117 40.0994 112.898 40.0994C112.567 40.0994 112.242 40.0282 111.924 39.8857C111.609 39.7431 111.347 39.526 111.138 39.2344C110.933 38.9427 110.83 38.5748 110.83 38.1307V30.5341ZM118.419 40.1591C117.73 40.1591 117.125 39.995 116.605 39.6669C116.088 39.3388 115.683 38.8797 115.392 38.2898C115.103 37.6998 114.959 37.0104 114.959 36.2216C114.959 35.4261 115.103 34.7318 115.392 34.1385C115.683 33.5452 116.088 33.0845 116.605 32.7564C117.125 32.4283 117.73 32.2642 118.419 32.2642C119.109 32.2642 119.712 32.4283 120.229 32.7564C120.749 33.0845 121.154 33.5452 121.442 34.1385C121.734 34.7318 121.88 35.4261 121.88 36.2216C121.88 37.0104 121.734 37.6998 121.442 38.2898C121.154 38.8797 120.749 39.3388 120.229 39.6669C119.712 39.995 119.109 40.1591 118.419 40.1591ZM118.419 39.1051C118.943 39.1051 119.374 38.9709 119.712 38.7024C120.05 38.4339 120.3 38.081 120.463 37.6435C120.625 37.206 120.706 36.732 120.706 36.2216C120.706 35.7112 120.625 35.2356 120.463 34.7947C120.3 34.3539 120.05 33.9976 119.712 33.7259C119.374 33.4541 118.943 33.3182 118.419 33.3182C117.896 33.3182 117.465 33.4541 117.127 33.7259C116.789 33.9976 116.538 34.3539 116.376 34.7947C116.214 35.2356 116.132 35.7112 116.132 36.2216C116.132 36.732 116.214 37.206 116.376 37.6435C116.538 38.081 116.789 38.4339 117.127 38.7024C117.465 38.9709 117.896 39.1051 118.419 39.1051ZM126.554 40.1591C125.918 40.1591 125.356 39.9983 124.869 39.6768C124.381 39.352 124 38.8946 123.725 38.3047C123.45 37.7114 123.313 37.0104 123.313 36.2017C123.313 35.3996 123.45 34.7036 123.725 34.1136C124 33.5237 124.383 33.0679 124.874 32.7464C125.364 32.425 125.931 32.2642 126.574 32.2642C127.071 32.2642 127.464 32.3471 127.752 32.5128C128.044 32.6752 128.266 32.8608 128.418 33.0696C128.574 33.2751 128.695 33.4441 128.781 33.5767H128.881V29.8182H130.054V40H128.921V38.8267H128.781C128.695 38.9659 128.573 39.1416 128.413 39.3537C128.254 39.5625 128.027 39.7498 127.732 39.9155C127.437 40.0779 127.045 40.1591 126.554 40.1591ZM126.713 39.1051C127.184 39.1051 127.582 38.9825 127.906 38.7372C128.231 38.4886 128.478 38.1456 128.647 37.7081C128.816 37.2673 128.901 36.7585 128.901 36.1818C128.901 35.6117 128.818 35.1129 128.652 34.6854C128.486 34.2545 128.241 33.9197 127.916 33.6811C127.591 33.4392 127.19 33.3182 126.713 33.3182C126.216 33.3182 125.802 33.4458 125.47 33.701C125.142 33.9529 124.895 34.2959 124.729 34.7301C124.567 35.161 124.486 35.6449 124.486 36.1818C124.486 36.7254 124.569 37.2192 124.734 37.6634C124.903 38.1042 125.152 38.4555 125.48 38.7173C125.812 38.9759 126.223 39.1051 126.713 39.1051ZM133.241 32.3636L135.07 35.4858L136.9 32.3636H138.252L135.786 36.1818L138.252 40H136.9L135.07 37.0369L133.241 40H131.889L134.315 36.1818L131.889 32.3636H133.241ZM145.335 34.0739L144.282 34.3722C144.215 34.1965 144.117 34.0258 143.988 33.8601C143.862 33.6911 143.69 33.5518 143.471 33.4425C143.252 33.3331 142.972 33.2784 142.631 33.2784C142.164 33.2784 141.774 33.3861 141.463 33.6016C141.154 33.8137 141 34.0838 141 34.4119C141 34.7036 141.106 34.9339 141.318 35.103C141.531 35.272 141.862 35.4129 142.313 35.5256L143.446 35.804C144.129 35.9697 144.638 36.2232 144.973 36.5646C145.307 36.9027 145.475 37.3385 145.475 37.8722C145.475 38.3097 145.349 38.7008 145.097 39.0455C144.848 39.3902 144.5 39.6619 144.053 39.8608C143.605 40.0597 143.085 40.1591 142.492 40.1591C141.713 40.1591 141.068 39.9901 140.558 39.652C140.047 39.3139 139.724 38.8201 139.588 38.1705L140.702 37.892C140.808 38.303 141.009 38.6113 141.304 38.8168C141.602 39.0223 141.991 39.125 142.472 39.125C143.019 39.125 143.453 39.009 143.774 38.777C144.099 38.5417 144.262 38.2599 144.262 37.9318C144.262 37.6667 144.169 37.4446 143.983 37.2656C143.798 37.0833 143.513 36.9474 143.128 36.858L141.855 36.5597C141.156 36.3939 140.642 36.1371 140.314 35.7891C139.989 35.4377 139.827 34.9986 139.827 34.4716C139.827 34.0407 139.948 33.6596 140.19 33.3281C140.435 32.9967 140.768 32.7365 141.189 32.5476C141.613 32.3587 142.094 32.2642 142.631 32.2642C143.387 32.2642 143.98 32.4299 144.411 32.7614C144.845 33.0928 145.153 33.5303 145.335 34.0739ZM152.352 29.8182V40H151.178V29.8182H152.352ZM155.376 32.3636L157.205 35.4858L159.035 32.3636H160.387L157.921 36.1818L160.387 40H159.035L157.205 37.0369L155.376 40H154.023L156.449 36.1818L154.023 32.3636H155.376ZM167.47 34.0739L166.416 34.3722C166.35 34.1965 166.252 34.0258 166.123 33.8601C165.997 33.6911 165.825 33.5518 165.606 33.4425C165.387 33.3331 165.107 33.2784 164.766 33.2784C164.298 33.2784 163.909 33.3861 163.597 33.6016C163.289 33.8137 163.135 34.0838 163.135 34.4119C163.135 34.7036 163.241 34.9339 163.453 35.103C163.665 35.272 163.997 35.4129 164.448 35.5256L165.581 35.804C166.264 35.9697 166.773 36.2232 167.107 36.5646C167.442 36.9027 167.609 37.3385 167.609 37.8722C167.609 38.3097 167.484 38.7008 167.232 39.0455C166.983 39.3902 166.635 39.6619 166.188 39.8608C165.74 40.0597 165.22 40.1591 164.627 40.1591C163.848 40.1591 163.203 39.9901 162.693 39.652C162.182 39.3139 161.859 38.8201 161.723 38.1705L162.837 37.892C162.943 38.303 163.143 38.6113 163.438 38.8168C163.737 39.0223 164.126 39.125 164.607 39.125C165.153 39.125 165.588 39.009 165.909 38.777C166.234 38.5417 166.396 38.2599 166.396 37.9318C166.396 37.6667 166.304 37.4446 166.118 37.2656C165.932 37.0833 165.647 36.9474 165.263 36.858L163.99 36.5597C163.291 36.3939 162.777 36.1371 162.449 35.7891C162.124 35.4377 161.962 34.9986 161.962 34.4716C161.962 34.0407 162.083 33.6596 162.325 33.3281C162.57 32.9967 162.903 32.7365 163.324 32.5476C163.748 32.3587 164.229 32.2642 164.766 32.2642C165.521 32.2642 166.115 32.4299 166.546 32.7614C166.98 33.0928 167.288 33.5303 167.47 34.0739ZM176.197 40.1591C175.56 40.1591 174.998 39.9983 174.511 39.6768C174.024 39.352 173.643 38.8946 173.368 38.3047C173.093 37.7114 172.955 37.0104 172.955 36.2017C172.955 35.3996 173.093 34.7036 173.368 34.1136C173.643 33.5237 174.026 33.0679 174.516 32.7464C175.007 32.425 175.574 32.2642 176.217 32.2642C176.714 32.2642 177.106 32.3471 177.395 32.5128C177.686 32.6752 177.909 32.8608 178.061 33.0696C178.217 33.2751 178.338 33.4441 178.424 33.5767H178.523V29.8182H179.697V40H178.563V38.8267H178.424C178.338 38.9659 178.215 39.1416 178.056 39.3537C177.897 39.5625 177.67 39.7498 177.375 39.9155C177.08 40.0779 176.687 40.1591 176.197 40.1591ZM176.356 39.1051C176.826 39.1051 177.224 38.9825 177.549 38.7372C177.874 38.4886 178.121 38.1456 178.29 37.7081C178.459 37.2673 178.543 36.7585 178.543 36.1818C178.543 35.6117 178.46 35.1129 178.295 34.6854C178.129 34.2545 177.884 33.9197 177.559 33.6811C177.234 33.4392 176.833 33.3182 176.356 33.3182C175.859 33.3182 175.444 33.4458 175.113 33.701C174.785 33.9529 174.538 34.2959 174.372 34.7301C174.21 35.161 174.128 35.6449 174.128 36.1818C174.128 36.7254 174.211 37.2192 174.377 37.6634C174.546 38.1042 174.795 38.4555 175.123 38.7173C175.454 38.9759 175.865 39.1051 176.356 39.1051ZM185.21 40.1591C184.474 40.1591 183.84 39.9967 183.306 39.6719C182.776 39.3438 182.366 38.8864 182.078 38.2997C181.793 37.7098 181.65 37.0237 181.65 36.2415C181.65 35.4593 181.793 34.7699 182.078 34.1733C182.366 33.5734 182.767 33.1061 183.281 32.7713C183.798 32.4332 184.401 32.2642 185.091 32.2642C185.489 32.2642 185.881 32.3305 186.269 32.4631C186.657 32.5956 187.01 32.8111 187.328 33.1094C187.646 33.4044 187.9 33.7955 188.089 34.2827C188.278 34.7699 188.372 35.3698 188.372 36.0824V36.5795H182.486V35.5653H187.179C187.179 35.1345 187.093 34.75 186.92 34.4119C186.751 34.0739 186.509 33.8071 186.195 33.6115C185.883 33.416 185.515 33.3182 185.091 33.3182C184.623 33.3182 184.219 33.4342 183.878 33.6662C183.54 33.8949 183.28 34.1932 183.097 34.5611C182.915 34.929 182.824 35.3234 182.824 35.7443V36.4205C182.824 36.9972 182.923 37.486 183.122 37.8871C183.324 38.2848 183.604 38.5881 183.962 38.7969C184.32 39.0024 184.736 39.1051 185.21 39.1051C185.518 39.1051 185.797 39.062 186.045 38.9759C186.297 38.8864 186.514 38.7538 186.697 38.5781C186.879 38.3991 187.02 38.1771 187.119 37.9119L188.253 38.2301C188.133 38.6146 187.933 38.9527 187.651 39.2443C187.369 39.5327 187.021 39.758 186.607 39.9205C186.193 40.0795 185.727 40.1591 185.21 40.1591ZM190.157 40V32.3636H191.29V33.5568H191.39C191.549 33.1491 191.806 32.8326 192.16 32.6072C192.515 32.3786 192.941 32.2642 193.438 32.2642C193.942 32.2642 194.361 32.3786 194.696 32.6072C195.034 32.8326 195.297 33.1491 195.486 33.5568H195.566C195.762 33.1624 196.055 32.8492 196.446 32.6172C196.837 32.3819 197.306 32.2642 197.853 32.2642C198.536 32.2642 199.094 32.478 199.528 32.9055C199.963 33.3298 200.18 33.991 200.18 34.8892V40H199.006V34.8892C199.006 34.3258 198.852 33.9231 198.544 33.6811C198.236 33.4392 197.873 33.3182 197.455 33.3182C196.918 33.3182 196.502 33.4806 196.207 33.8054C195.912 34.1269 195.765 34.5346 195.765 35.0284V40H194.572V34.7699C194.572 34.3357 194.431 33.986 194.149 33.7209C193.867 33.4524 193.504 33.3182 193.06 33.3182C192.755 33.3182 192.47 33.3994 192.205 33.5618C191.943 33.7242 191.731 33.9496 191.569 34.2379C191.41 34.523 191.33 34.8527 191.33 35.2273V40H190.157ZM204.572 40.179C204.088 40.179 203.649 40.0878 203.255 39.9055C202.86 39.7199 202.547 39.4531 202.315 39.1051C202.083 38.7538 201.967 38.3295 201.967 37.8324C201.967 37.3949 202.053 37.0402 202.225 36.7685C202.398 36.4934 202.628 36.2779 202.916 36.1222C203.205 35.9664 203.523 35.8504 203.871 35.7741C204.222 35.6946 204.575 35.6316 204.93 35.5852C205.394 35.5256 205.77 35.4808 206.059 35.451C206.35 35.4179 206.562 35.3632 206.695 35.2869C206.831 35.2107 206.899 35.0781 206.899 34.8892V34.8494C206.899 34.3589 206.764 33.9777 206.496 33.706C206.231 33.4342 205.828 33.2983 205.288 33.2983C204.728 33.2983 204.289 33.4209 203.97 33.6662C203.652 33.9115 203.429 34.1733 203.299 34.4517L202.186 34.054C202.384 33.59 202.65 33.2287 202.981 32.9702C203.316 32.7083 203.68 32.526 204.075 32.4233C204.473 32.3172 204.864 32.2642 205.248 32.2642C205.493 32.2642 205.775 32.294 206.093 32.3537C206.415 32.41 206.725 32.5277 207.023 32.7067C207.325 32.8857 207.575 33.1558 207.774 33.517C207.973 33.8783 208.072 34.3622 208.072 34.9688V40H206.899V38.9659H206.839C206.759 39.1316 206.627 39.3089 206.441 39.4979C206.256 39.6868 206.009 39.8475 205.701 39.9801C205.392 40.1127 205.016 40.179 204.572 40.179ZM204.751 39.125C205.215 39.125 205.606 39.0339 205.924 38.8516C206.246 38.6693 206.488 38.4339 206.65 38.1456C206.816 37.8572 206.899 37.554 206.899 37.2358V36.1619C206.849 36.2216 206.74 36.2763 206.571 36.326C206.405 36.3724 206.213 36.4138 205.994 36.4503C205.778 36.4834 205.568 36.5133 205.362 36.5398C205.16 36.563 204.996 36.5829 204.87 36.5994C204.565 36.6392 204.28 36.7038 204.015 36.7933C203.753 36.8795 203.541 37.0104 203.379 37.1861C203.22 37.3584 203.14 37.5937 203.14 37.892C203.14 38.2997 203.291 38.608 203.593 38.8168C203.898 39.0223 204.284 39.125 204.751 39.125ZM204.791 31.3295L206.004 29.0227H207.376L205.825 31.3295H204.791ZM215.623 34.0739L214.569 34.3722C214.502 34.1965 214.405 34.0258 214.275 33.8601C214.149 33.6911 213.977 33.5518 213.758 33.4425C213.54 33.3331 213.259 33.2784 212.918 33.2784C212.451 33.2784 212.061 33.3861 211.75 33.6016C211.441 33.8137 211.287 34.0838 211.287 34.4119C211.287 34.7036 211.393 34.9339 211.606 35.103C211.818 35.272 212.149 35.4129 212.6 35.5256L213.733 35.804C214.416 35.9697 214.925 36.2232 215.26 36.5646C215.594 36.9027 215.762 37.3385 215.762 37.8722C215.762 38.3097 215.636 38.7008 215.384 39.0455C215.135 39.3902 214.787 39.6619 214.34 39.8608C213.892 40.0597 213.372 40.1591 212.779 40.1591C212 40.1591 211.355 39.9901 210.845 39.652C210.334 39.3139 210.011 38.8201 209.875 38.1705L210.989 37.892C211.095 38.303 211.296 38.6113 211.591 38.8168C211.889 39.0223 212.278 39.125 212.759 39.125C213.306 39.125 213.74 39.009 214.062 38.777C214.386 38.5417 214.549 38.2599 214.549 37.9318C214.549 37.6667 214.456 37.4446 214.27 37.2656C214.085 37.0833 213.8 36.9474 213.415 36.858L212.142 36.5597C211.443 36.3939 210.929 36.1371 210.601 35.7891C210.276 35.4377 210.114 34.9986 210.114 34.4716C210.114 34.0407 210.235 33.6596 210.477 33.3281C210.722 32.9967 211.055 32.7365 211.476 32.5476C211.901 32.3587 212.381 32.2642 212.918 32.2642C213.674 32.2642 214.267 32.4299 214.698 32.7614C215.132 33.0928 215.44 33.5303 215.623 34.0739Z" fill="#EDE8E2"/>
</svg>
