<svg width="563" height="40" viewBox="0 0 563 40" fill="none" xmlns="http://www.w3.org/2000/svg">
<g clip-path="url(#clip0_34_47)">
<path d="M21.7159 6.09091C21.6307 5.37121 21.285 4.8125 20.679 4.41477C20.0729 4.01705 19.3295 3.81818 18.4489 3.81818C17.8049 3.81818 17.2415 3.92235 16.7585 4.13068C16.2803 4.33901 15.9063 4.62547 15.6364 4.99006C15.3712 5.35464 15.2386 5.76894 15.2386 6.23295C15.2386 6.62121 15.331 6.95502 15.5156 7.23438C15.705 7.509 15.9465 7.73864 16.2401 7.9233C16.5336 8.10322 16.8414 8.25237 17.1634 8.37074C17.4853 8.48437 17.7812 8.5767 18.0511 8.64773L19.5284 9.04545C19.9072 9.14489 20.3286 9.2822 20.7926 9.45739C21.2614 9.63258 21.7088 9.87169 22.1349 10.1747C22.5658 10.473 22.9209 10.8565 23.2003 11.3253C23.4796 11.794 23.6193 12.3693 23.6193 13.0511C23.6193 13.8371 23.4134 14.5473 23.0014 15.1818C22.5942 15.8163 21.9976 16.3205 21.2116 16.6946C20.4304 17.0687 19.4811 17.2557 18.3636 17.2557C17.322 17.2557 16.42 17.0876 15.6577 16.7514C14.9001 16.4152 14.3035 15.9465 13.8679 15.3452C13.437 14.7438 13.1932 14.0455 13.1364 13.25H14.9545C15.0019 13.7992 15.1866 14.2538 15.5085 14.6136C15.8352 14.9687 16.2472 15.2339 16.7443 15.4091C17.2462 15.5795 17.786 15.6648 18.3636 15.6648C19.036 15.6648 19.6397 15.5559 20.1747 15.3381C20.7098 15.1155 21.1335 14.8078 21.446 14.4148C21.7585 14.017 21.9148 13.553 21.9148 13.0227C21.9148 12.5398 21.7798 12.1468 21.5099 11.8438C21.2401 11.5407 20.8849 11.2945 20.4446 11.1051C20.0043 10.9157 19.5284 10.75 19.017 10.608L17.2273 10.0966C16.0909 9.76989 15.1913 9.3035 14.5284 8.69744C13.8655 8.09138 13.5341 7.2983 13.5341 6.31818C13.5341 5.50379 13.7543 4.79356 14.1946 4.1875C14.6397 3.5767 15.2363 3.10322 15.9844 2.76705C16.7372 2.42614 17.5777 2.25568 18.5057 2.25568C19.4432 2.25568 20.2765 2.42377 21.0057 2.75994C21.7348 3.09138 22.3125 3.54593 22.7386 4.12358C23.1695 4.70123 23.3968 5.35701 23.4205 6.09091H21.7159ZM33.163 12.5398V6.09091H34.8391V17H33.163V15.1534H33.0494C32.7937 15.7074 32.396 16.1785 31.8562 16.5668C31.3164 16.9503 30.6346 17.142 29.8107 17.142C29.1289 17.142 28.5228 16.9929 27.9925 16.6946C27.4622 16.3916 27.0456 15.937 26.7425 15.331C26.4395 14.7202 26.288 13.9508 26.288 13.0227V6.09091H27.9641V12.9091C27.9641 13.7045 28.1867 14.339 28.6317 14.8125C29.0816 15.286 29.6545 15.5227 30.3505 15.5227C30.7672 15.5227 31.1909 15.4162 31.6218 15.2031C32.0574 14.9901 32.422 14.6634 32.7156 14.223C33.0138 13.7827 33.163 13.2216 33.163 12.5398ZM45.6364 8.53409L44.1307 8.96023C44.036 8.70928 43.8963 8.46544 43.7116 8.22869C43.5317 7.98722 43.2855 7.78835 42.973 7.6321C42.6605 7.47585 42.2604 7.39773 41.7727 7.39773C41.1051 7.39773 40.5488 7.55161 40.1037 7.85938C39.6634 8.16241 39.4432 8.5483 39.4432 9.01705C39.4432 9.43371 39.5947 9.76278 39.8977 10.0043C40.2008 10.2457 40.6742 10.447 41.3182 10.608L42.9375 11.0057C43.9129 11.2424 44.6397 11.6046 45.1179 12.0923C45.5961 12.5753 45.8352 13.1979 45.8352 13.9602C45.8352 14.5852 45.6553 15.1439 45.2955 15.6364C44.9403 16.1288 44.4432 16.517 43.804 16.8011C43.1648 17.0852 42.4214 17.2273 41.5739 17.2273C40.4612 17.2273 39.5402 16.9858 38.8111 16.5028C38.0819 16.0199 37.6203 15.3144 37.4261 14.3864L39.017 13.9886C39.1686 14.5758 39.455 15.0161 39.8764 15.3097C40.3026 15.6032 40.8589 15.75 41.5455 15.75C42.3267 15.75 42.947 15.5843 43.4062 15.2528C43.8703 14.9167 44.1023 14.5142 44.1023 14.0455C44.1023 13.6667 43.9697 13.3494 43.7045 13.0938C43.4394 12.8333 43.0322 12.6392 42.483 12.5114L40.6648 12.0852C39.6657 11.8485 38.9318 11.4815 38.4631 10.9844C37.9991 10.4825 37.767 9.85511 37.767 9.10227C37.767 8.48674 37.9399 7.94223 38.2855 7.46875C38.6359 6.99527 39.1117 6.62358 39.7131 6.35369C40.3191 6.08381 41.0057 5.94886 41.7727 5.94886C42.8523 5.94886 43.6998 6.18561 44.3153 6.65909C44.9356 7.13258 45.3759 7.75758 45.6364 8.53409ZM52.7901 17.2273C51.7674 17.2273 50.8867 16.9858 50.1481 16.5028C49.4094 16.0199 48.8413 15.3546 48.4435 14.5071C48.0458 13.6596 47.8469 12.6913 47.8469 11.6023C47.8469 10.4943 48.0505 9.51657 48.4577 8.66903C48.8697 7.81676 49.4426 7.15152 50.1765 6.6733C50.9151 6.19034 51.7769 5.94886 52.7617 5.94886C53.5288 5.94886 54.2201 6.09091 54.8356 6.375C55.4511 6.65909 55.9554 7.05682 56.3484 7.56818C56.7414 8.07955 56.9852 8.67614 57.0799 9.35795H55.4038C55.2759 8.8608 54.9918 8.42045 54.5515 8.03693C54.1159 7.64867 53.5288 7.45455 52.7901 7.45455C52.1367 7.45455 51.5638 7.625 51.0714 7.96591C50.5837 8.30208 50.2025 8.77794 49.9279 9.39347C49.658 10.0043 49.5231 10.7216 49.5231 11.5455C49.5231 12.3883 49.6557 13.1222 49.9208 13.7472C50.1907 14.3722 50.5695 14.8575 51.0572 15.2031C51.5496 15.5488 52.1272 15.7216 52.7901 15.7216C53.2257 15.7216 53.6211 15.6458 53.9762 15.4943C54.3313 15.3428 54.632 15.125 54.8782 14.8409C55.1244 14.5568 55.2996 14.2159 55.4038 13.8182H57.0799C56.9852 14.4621 56.7508 15.0421 56.3768 15.5582C56.0075 16.0696 55.5174 16.4768 54.9066 16.7798C54.3005 17.0781 53.5951 17.2273 52.7901 17.2273ZM59.5302 17V6.09091H61.1495V7.73864H61.2631C61.462 7.19886 61.8219 6.76089 62.3427 6.42472C62.8635 6.08854 63.4506 5.92045 64.104 5.92045C64.2272 5.92045 64.381 5.92282 64.5657 5.92756C64.7504 5.93229 64.89 5.93939 64.9847 5.94886V7.65341C64.9279 7.6392 64.7977 7.6179 64.5941 7.58949C64.3952 7.55634 64.1845 7.53977 63.962 7.53977C63.4317 7.53977 62.9582 7.65104 62.5415 7.87358C62.1296 8.09138 61.8029 8.39441 61.5614 8.78267C61.3247 9.16619 61.2063 9.60417 61.2063 10.0966V17H59.5302ZM66.9716 17V6.09091H68.6477V17H66.9716ZM67.8239 4.27273C67.4972 4.27273 67.2154 4.16146 66.9787 3.93892C66.7467 3.71638 66.6307 3.44886 66.6307 3.13636C66.6307 2.82386 66.7467 2.55634 66.9787 2.33381C67.2154 2.11127 67.4972 2 67.8239 2C68.1506 2 68.4299 2.11127 68.6619 2.33381C68.8987 2.55634 69.017 2.82386 69.017 3.13636C69.017 3.44886 68.8987 3.71638 68.6619 3.93892C68.4299 4.16146 68.1506 4.27273 67.8239 4.27273ZM71.945 17V2.45455H73.6211V7.82386H73.7631C73.8862 7.63447 74.0567 7.39299 74.2745 7.09943C74.497 6.80114 74.8143 6.53598 75.2262 6.30398C75.6429 6.06723 76.2063 5.94886 76.9165 5.94886C77.8351 5.94886 78.6448 6.1785 79.3455 6.63778C80.0463 7.09706 80.5932 7.74811 80.9862 8.59091C81.3791 9.43371 81.5756 10.428 81.5756 11.5739C81.5756 12.7292 81.3791 13.7306 80.9862 14.5781C80.5932 15.4209 80.0487 16.0743 79.3526 16.5384C78.6566 16.9976 77.854 17.2273 76.945 17.2273C76.2442 17.2273 75.6831 17.1113 75.2617 16.8793C74.8403 16.6425 74.516 16.375 74.2887 16.0767C74.0614 15.7737 73.8862 15.5227 73.7631 15.3239H73.5643V17H71.945ZM73.5927 11.5455C73.5927 12.3693 73.7134 13.0961 73.9549 13.7259C74.1964 14.3509 74.5491 14.8409 75.0131 15.196C75.4772 15.5464 76.0453 15.7216 76.7177 15.7216C77.4184 15.7216 78.0032 15.5369 78.4719 15.1676C78.9454 14.7936 79.3005 14.2917 79.5373 13.6619C79.7788 13.0275 79.8995 12.322 79.8995 11.5455C79.8995 10.7784 79.7811 10.0871 79.5444 9.47159C79.3124 8.85133 78.9596 8.36127 78.4862 8.00142C78.0174 7.63684 77.4279 7.45455 76.7177 7.45455C76.0359 7.45455 75.4629 7.62737 74.9989 7.97301C74.5349 8.31392 74.1845 8.79214 73.9478 9.40767C73.7111 10.0185 73.5927 10.7311 73.5927 11.5455ZM84.1396 17V6.09091H85.8157V17H84.1396ZM84.9918 4.27273C84.6651 4.27273 84.3834 4.16146 84.1467 3.93892C83.9147 3.71638 83.7987 3.44886 83.7987 3.13636C83.7987 2.82386 83.9147 2.55634 84.1467 2.33381C84.3834 2.11127 84.6651 2 84.9918 2C85.3185 2 85.5979 2.11127 85.8299 2.33381C86.0666 2.55634 86.185 2.82386 86.185 3.13636C86.185 3.44886 86.0666 3.71638 85.8299 3.93892C85.5979 4.16146 85.3185 4.27273 84.9918 4.27273ZM93.63 6.09091V7.51136H87.9766V6.09091H93.63ZM89.6243 3.47727H91.3004V13.875C91.3004 14.3485 91.3691 14.7036 91.5064 14.9403C91.6484 15.1723 91.8284 15.3286 92.0462 15.4091C92.2687 15.4848 92.5031 15.5227 92.7493 15.5227C92.9339 15.5227 93.0855 15.5133 93.2038 15.4943C93.3222 15.4706 93.4169 15.4517 93.4879 15.4375L93.8288 16.9432C93.7152 16.9858 93.5566 17.0284 93.353 17.071C93.1494 17.1184 92.8913 17.142 92.5788 17.142C92.1054 17.142 91.6413 17.0402 91.1868 16.8366C90.737 16.633 90.3629 16.3229 90.0646 15.9062C89.7711 15.4896 89.6243 14.964 89.6243 14.3295V3.47727ZM100.608 17.2273C99.5568 17.2273 98.6501 16.9953 97.8878 16.5312C97.1302 16.0625 96.5455 15.4091 96.1335 14.571C95.7263 13.7282 95.5227 12.7481 95.5227 11.6307C95.5227 10.5133 95.7263 9.52841 96.1335 8.67614C96.5455 7.81913 97.1184 7.15152 97.8523 6.6733C98.5909 6.19034 99.4527 5.94886 100.438 5.94886C101.006 5.94886 101.567 6.04356 102.121 6.23295C102.675 6.42235 103.179 6.73011 103.634 7.15625C104.088 7.57765 104.45 8.13636 104.72 8.83239C104.99 9.52841 105.125 10.3854 105.125 11.4034V12.1136H96.7159V10.6648H103.42C103.42 10.0492 103.297 9.5 103.051 9.01705C102.81 8.53409 102.464 8.15294 102.014 7.87358C101.569 7.59422 101.044 7.45455 100.438 7.45455C99.7699 7.45455 99.1922 7.62026 98.7045 7.9517C98.2216 8.27841 97.8499 8.70455 97.5895 9.23011C97.3291 9.75568 97.1989 10.3191 97.1989 10.9205V11.8864C97.1989 12.7102 97.3409 13.4086 97.625 13.9815C97.9138 14.5497 98.3139 14.983 98.8253 15.2812C99.3366 15.5748 99.9309 15.7216 100.608 15.7216C101.048 15.7216 101.446 15.66 101.801 15.5369C102.161 15.4091 102.471 15.2197 102.732 14.9688C102.992 14.7131 103.193 14.3958 103.335 14.017L104.955 14.4716C104.784 15.0208 104.498 15.5038 104.095 15.9205C103.693 16.3324 103.196 16.6544 102.604 16.8864C102.012 17.1136 101.347 17.2273 100.608 17.2273ZM116.51 17.2557C115.819 17.2557 115.191 17.1255 114.628 16.8651C114.064 16.5999 113.617 16.2188 113.286 15.7216C112.954 15.2197 112.788 14.6136 112.788 13.9034C112.788 13.2784 112.911 12.7718 113.158 12.3835C113.404 11.9905 113.733 11.6828 114.145 11.4602C114.557 11.2377 115.011 11.072 115.509 10.9631C116.01 10.8494 116.515 10.7595 117.021 10.6932C117.684 10.608 118.222 10.544 118.634 10.5014C119.05 10.4541 119.353 10.3759 119.543 10.267C119.737 10.1581 119.834 9.96875 119.834 9.69886V9.64205C119.834 8.94129 119.642 8.39678 119.259 8.00852C118.88 7.62027 118.304 7.42614 117.533 7.42614C116.732 7.42614 116.105 7.60133 115.651 7.9517C115.196 8.30208 114.876 8.67614 114.692 9.07386L113.101 8.50568C113.385 7.8428 113.764 7.3267 114.237 6.95739C114.715 6.58333 115.236 6.32292 115.8 6.17614C116.368 6.02462 116.927 5.94886 117.476 5.94886C117.826 5.94886 118.229 5.99148 118.683 6.0767C119.143 6.1572 119.585 6.32528 120.011 6.58097C120.442 6.83665 120.8 7.22254 121.084 7.73864C121.368 8.25473 121.51 8.94602 121.51 9.8125V17H119.834V15.5227H119.749C119.635 15.7595 119.446 16.0128 119.18 16.2827C118.915 16.5526 118.563 16.7822 118.122 16.9716C117.682 17.161 117.144 17.2557 116.51 17.2557ZM116.766 15.75C117.429 15.75 117.987 15.6198 118.442 15.3594C118.901 15.099 119.247 14.7628 119.479 14.3509C119.715 13.9389 119.834 13.5057 119.834 13.0511V11.517C119.763 11.6023 119.607 11.6804 119.365 11.7514C119.128 11.8177 118.854 11.8769 118.541 11.929C118.233 11.9763 117.933 12.0189 117.639 12.0568C117.35 12.09 117.116 12.1184 116.936 12.142C116.5 12.1989 116.093 12.2912 115.714 12.419C115.34 12.5421 115.037 12.7292 114.805 12.9801C114.578 13.2263 114.464 13.5625 114.464 13.9886C114.464 14.571 114.68 15.0114 115.111 15.3097C115.546 15.6032 116.098 15.75 116.766 15.75ZM131.87 10.4375V17H130.194V6.09091H131.814V7.79545H131.956C132.211 7.24148 132.6 6.7964 133.12 6.46023C133.641 6.11932 134.314 5.94886 135.137 5.94886C135.876 5.94886 136.522 6.10038 137.076 6.40341C137.63 6.7017 138.061 7.15625 138.369 7.76705C138.677 8.37311 138.831 9.14015 138.831 10.0682V17H137.154V10.1818C137.154 9.32481 136.932 8.6572 136.487 8.17898C136.042 7.69602 135.431 7.45455 134.654 7.45455C134.119 7.45455 133.641 7.57055 133.22 7.80256C132.803 8.03456 132.474 8.37311 132.233 8.81818C131.991 9.26326 131.87 9.80303 131.87 10.4375ZM148.768 12.5398V6.09091H150.445V17H148.768V15.1534H148.655C148.399 15.7074 148.001 16.1785 147.462 16.5668C146.922 16.9503 146.24 17.142 145.416 17.142C144.734 17.142 144.128 16.9929 143.598 16.6946C143.068 16.3916 142.651 15.937 142.348 15.331C142.045 14.7202 141.893 13.9508 141.893 13.0227V6.09091H143.57V12.9091C143.57 13.7045 143.792 14.339 144.237 14.8125C144.687 15.286 145.26 15.5227 145.956 15.5227C146.373 15.5227 146.796 15.4162 147.227 15.2031C147.663 14.9901 148.027 14.6634 148.321 14.223C148.619 13.7827 148.768 13.2216 148.768 12.5398ZM158.088 17.2273C157.037 17.2273 156.131 16.9953 155.368 16.5312C154.611 16.0625 154.026 15.4091 153.614 14.571C153.207 13.7282 153.003 12.7481 153.003 11.6307C153.003 10.5133 153.207 9.52841 153.614 8.67614C154.026 7.81913 154.599 7.15152 155.333 6.6733C156.071 6.19034 156.933 5.94886 157.918 5.94886C158.486 5.94886 159.047 6.04356 159.601 6.23295C160.155 6.42235 160.659 6.73011 161.114 7.15625C161.569 7.57765 161.931 8.13636 162.201 8.83239C162.471 9.52841 162.605 10.3854 162.605 11.4034V12.1136H154.196V10.6648H160.901C160.901 10.0492 160.778 9.5 160.532 9.01705C160.29 8.53409 159.944 8.15294 159.495 7.87358C159.05 7.59422 158.524 7.45455 157.918 7.45455C157.25 7.45455 156.673 7.62026 156.185 7.9517C155.702 8.27841 155.33 8.70455 155.07 9.23011C154.81 9.75568 154.679 10.3191 154.679 10.9205V11.8864C154.679 12.7102 154.821 13.4086 155.105 13.9815C155.394 14.5497 155.794 14.983 156.306 15.2812C156.817 15.5748 157.411 15.7216 158.088 15.7216C158.529 15.7216 158.926 15.66 159.282 15.5369C159.641 15.4091 159.952 15.2197 160.212 14.9688C160.472 14.7131 160.674 14.3958 160.816 14.017L162.435 14.4716C162.265 15.0208 161.978 15.5038 161.576 15.9205C161.173 16.3324 160.676 16.6544 160.084 16.8864C159.492 17.1136 158.827 17.2273 158.088 17.2273ZM172.882 8.53409L171.377 8.96023C171.282 8.70928 171.142 8.46544 170.958 8.22869C170.778 7.98722 170.532 7.78835 170.219 7.6321C169.907 7.47585 169.507 7.39773 169.019 7.39773C168.351 7.39773 167.795 7.55161 167.35 7.85938C166.909 8.16241 166.689 8.5483 166.689 9.01705C166.689 9.43371 166.841 9.76278 167.144 10.0043C167.447 10.2457 167.92 10.447 168.564 10.608L170.184 11.0057C171.159 11.2424 171.886 11.6046 172.364 12.0923C172.842 12.5753 173.081 13.1979 173.081 13.9602C173.081 14.5852 172.901 15.1439 172.542 15.6364C172.186 16.1288 171.689 16.517 171.05 16.8011C170.411 17.0852 169.667 17.2273 168.82 17.2273C167.707 17.2273 166.786 16.9858 166.057 16.5028C165.328 16.0199 164.866 15.3144 164.672 14.3864L166.263 13.9886C166.415 14.5758 166.701 15.0161 167.123 15.3097C167.549 15.6032 168.105 15.75 168.792 15.75C169.573 15.75 170.193 15.5843 170.652 15.2528C171.116 14.9167 171.348 14.5142 171.348 14.0455C171.348 13.6667 171.216 13.3494 170.951 13.0938C170.685 12.8333 170.278 12.6392 169.729 12.5114L167.911 12.0852C166.912 11.8485 166.178 11.4815 165.709 10.9844C165.245 10.4825 165.013 9.85511 165.013 9.10227C165.013 8.48674 165.186 7.94223 165.532 7.46875C165.882 6.99527 166.358 6.62358 166.959 6.35369C167.565 6.08381 168.252 5.94886 169.019 5.94886C170.098 5.94886 170.946 6.18561 171.561 6.65909C172.182 7.13258 172.622 7.75758 172.882 8.53409ZM180.349 6.09091V7.51136H174.695V6.09091H180.349ZM176.343 3.47727H178.019V13.875C178.019 14.3485 178.088 14.7036 178.225 14.9403C178.367 15.1723 178.547 15.3286 178.765 15.4091C178.987 15.4848 179.222 15.5227 179.468 15.5227C179.653 15.5227 179.804 15.5133 179.923 15.4943C180.041 15.4706 180.136 15.4517 180.207 15.4375L180.548 16.9432C180.434 16.9858 180.275 17.0284 180.072 17.071C179.868 17.1184 179.61 17.142 179.298 17.142C178.824 17.142 178.36 17.0402 177.906 16.8366C177.456 16.633 177.082 16.3229 176.783 15.9062C176.49 15.4896 176.343 14.964 176.343 14.3295V3.47727ZM182.87 17V6.09091H184.489V7.73864H184.603C184.802 7.19886 185.162 6.76089 185.683 6.42472C186.203 6.08854 186.79 5.92045 187.444 5.92045C187.567 5.92045 187.721 5.92282 187.906 5.92756C188.09 5.93229 188.23 5.93939 188.325 5.94886V7.65341C188.268 7.6392 188.138 7.6179 187.934 7.58949C187.735 7.55634 187.524 7.53977 187.302 7.53977C186.772 7.53977 186.298 7.65104 185.881 7.87358C185.469 8.09138 185.143 8.39441 184.901 8.78267C184.665 9.16619 184.546 9.60417 184.546 10.0966V17H182.87ZM194.411 17.2273C193.426 17.2273 192.562 16.9929 191.819 16.5241C191.08 16.0554 190.503 15.3996 190.086 14.5568C189.674 13.714 189.468 12.7292 189.468 11.6023C189.468 10.4659 189.674 9.47396 190.086 8.62642C190.503 7.77888 191.08 7.12074 191.819 6.65199C192.562 6.18324 193.426 5.94886 194.411 5.94886C195.396 5.94886 196.258 6.18324 196.996 6.65199C197.74 7.12074 198.317 7.77888 198.729 8.62642C199.146 9.47396 199.354 10.4659 199.354 11.6023C199.354 12.7292 199.146 13.714 198.729 14.5568C198.317 15.3996 197.74 16.0554 196.996 16.5241C196.258 16.9929 195.396 17.2273 194.411 17.2273ZM194.411 15.7216C195.159 15.7216 195.775 15.5298 196.258 15.1463C196.741 14.7628 197.098 14.2585 197.33 13.6335C197.562 13.0085 197.678 12.3314 197.678 11.6023C197.678 10.8731 197.562 10.1937 197.33 9.56392C197.098 8.93419 196.741 8.42519 196.258 8.03693C195.775 7.64867 195.159 7.45455 194.411 7.45455C193.663 7.45455 193.048 7.64867 192.565 8.03693C192.082 8.42519 191.724 8.93419 191.492 9.56392C191.26 10.1937 191.144 10.8731 191.144 11.6023C191.144 12.3314 191.26 13.0085 191.492 13.6335C191.724 14.2585 192.082 14.7628 192.565 15.1463C193.048 15.5298 193.663 15.7216 194.411 15.7216ZM209.214 10.4375V17H207.538V6.09091H209.157V7.79545H209.299C209.555 7.24148 209.943 6.7964 210.464 6.46023C210.985 6.11932 211.657 5.94886 212.481 5.94886C213.22 5.94886 213.866 6.10038 214.42 6.40341C214.974 6.7017 215.405 7.15625 215.713 7.76705C216.02 8.37311 216.174 9.14015 216.174 10.0682V17H214.498V10.1818C214.498 9.32481 214.276 8.6572 213.831 8.17898C213.386 7.69602 212.775 7.45455 211.998 7.45455C211.463 7.45455 210.985 7.57055 210.564 7.80256C210.147 8.03456 209.818 8.37311 209.576 8.81818C209.335 9.26326 209.214 9.80303 209.214 10.4375ZM223.811 17.2273C222.76 17.2273 221.853 16.9953 221.091 16.5312C220.333 16.0625 219.749 15.4091 219.337 14.571C218.929 13.7282 218.726 12.7481 218.726 11.6307C218.726 10.5133 218.929 9.52841 219.337 8.67614C219.749 7.81913 220.321 7.15152 221.055 6.6733C221.794 6.19034 222.656 5.94886 223.641 5.94886C224.209 5.94886 224.77 6.04356 225.324 6.23295C225.878 6.42235 226.382 6.73011 226.837 7.15625C227.291 7.57765 227.653 8.13636 227.923 8.83239C228.193 9.52841 228.328 10.3854 228.328 11.4034V12.1136H219.919V10.6648H226.624C226.624 10.0492 226.5 9.5 226.254 9.01705C226.013 8.53409 225.667 8.15294 225.217 7.87358C224.772 7.59422 224.247 7.45455 223.641 7.45455C222.973 7.45455 222.395 7.62026 221.908 7.9517C221.425 8.27841 221.053 8.70455 220.793 9.23011C220.532 9.75568 220.402 10.3191 220.402 10.9205V11.8864C220.402 12.7102 220.544 13.4086 220.828 13.9815C221.117 14.5497 221.517 14.983 222.028 15.2812C222.54 15.5748 223.134 15.7216 223.811 15.7216C224.251 15.7216 224.649 15.66 225.004 15.5369C225.364 15.4091 225.674 15.2197 225.935 14.9688C226.195 14.7131 226.396 14.3958 226.538 14.017L228.158 14.4716C227.987 15.0208 227.701 15.5038 227.298 15.9205C226.896 16.3324 226.399 16.6544 225.807 16.8864C225.215 17.1136 224.55 17.2273 223.811 17.2273ZM233.349 17L230.026 6.09091H231.787L234.145 14.4432H234.259L236.588 6.09091H238.378L240.679 14.4148H240.793L243.151 6.09091H244.912L241.588 17H239.94L237.554 8.61932H237.384L234.997 17H233.349ZM254.855 8.53409L253.349 8.96023C253.255 8.70928 253.115 8.46544 252.93 8.22869C252.75 7.98722 252.504 7.78835 252.192 7.6321C251.879 7.47585 251.479 7.39773 250.991 7.39773C250.324 7.39773 249.768 7.55161 249.322 7.85938C248.882 8.16241 248.662 8.5483 248.662 9.01705C248.662 9.43371 248.813 9.76278 249.116 10.0043C249.42 10.2457 249.893 10.447 250.537 10.608L252.156 11.0057C253.132 11.2424 253.858 11.6046 254.337 12.0923C254.815 12.5753 255.054 13.1979 255.054 13.9602C255.054 14.5852 254.874 15.1439 254.514 15.6364C254.159 16.1288 253.662 16.517 253.023 16.8011C252.384 17.0852 251.64 17.2273 250.793 17.2273C249.68 17.2273 248.759 16.9858 248.03 16.5028C247.301 16.0199 246.839 15.3144 246.645 14.3864L248.236 13.9886C248.387 14.5758 248.674 15.0161 249.095 15.3097C249.521 15.6032 250.078 15.75 250.764 15.75C251.545 15.75 252.166 15.5843 252.625 15.2528C253.089 14.9167 253.321 14.5142 253.321 14.0455C253.321 13.6667 253.188 13.3494 252.923 13.0938C252.658 12.8333 252.251 12.6392 251.702 12.5114L249.884 12.0852C248.884 11.8485 248.151 11.4815 247.682 10.9844C247.218 10.4825 246.986 9.85511 246.986 9.10227C246.986 8.48674 247.159 7.94223 247.504 7.46875C247.855 6.99527 248.33 6.62358 248.932 6.35369C249.538 6.08381 250.224 5.94886 250.991 5.94886C252.071 5.94886 252.919 6.18561 253.534 6.65909C254.154 7.13258 254.595 7.75758 254.855 8.53409ZM259.253 2.45455V17H257.577V2.45455H259.253ZM266.897 17.2273C265.846 17.2273 264.939 16.9953 264.177 16.5312C263.419 16.0625 262.835 15.4091 262.423 14.571C262.015 13.7282 261.812 12.7481 261.812 11.6307C261.812 10.5133 262.015 9.52841 262.423 8.67614C262.835 7.81913 263.407 7.15152 264.141 6.6733C264.88 6.19034 265.742 5.94886 266.727 5.94886C267.295 5.94886 267.856 6.04356 268.41 6.23295C268.964 6.42235 269.468 6.73011 269.923 7.15625C270.377 7.57765 270.739 8.13636 271.009 8.83239C271.279 9.52841 271.414 10.3854 271.414 11.4034V12.1136H263.005V10.6648H269.71C269.71 10.0492 269.586 9.5 269.34 9.01705C269.099 8.53409 268.753 8.15294 268.303 7.87358C267.858 7.59422 267.333 7.45455 266.727 7.45455C266.059 7.45455 265.481 7.62026 264.994 7.9517C264.511 8.27841 264.139 8.70455 263.879 9.23011C263.618 9.75568 263.488 10.3191 263.488 10.9205V11.8864C263.488 12.7102 263.63 13.4086 263.914 13.9815C264.203 14.5497 264.603 14.983 265.114 15.2812C265.626 15.5748 266.22 15.7216 266.897 15.7216C267.337 15.7216 267.735 15.66 268.09 15.5369C268.45 15.4091 268.76 15.2197 269.021 14.9688C269.281 14.7131 269.482 14.3958 269.624 14.017L271.244 14.4716C271.073 15.0208 270.787 15.5038 270.384 15.9205C269.982 16.3324 269.485 16.6544 268.893 16.8864C268.301 17.1136 267.636 17.2273 266.897 17.2273ZM278.708 6.09091V7.51136H273.055V6.09091H278.708ZM274.702 3.47727H276.379V13.875C276.379 14.3485 276.447 14.7036 276.585 14.9403C276.727 15.1723 276.906 15.3286 277.124 15.4091C277.347 15.4848 277.581 15.5227 277.827 15.5227C278.012 15.5227 278.164 15.5133 278.282 15.4943C278.4 15.4706 278.495 15.4517 278.566 15.4375L278.907 16.9432C278.793 16.9858 278.635 17.0284 278.431 17.071C278.228 17.1184 277.969 17.142 277.657 17.142C277.183 17.142 276.719 17.0402 276.265 16.8366C275.815 16.633 275.441 16.3229 275.143 15.9062C274.849 15.4896 274.702 14.964 274.702 14.3295V3.47727ZM285.974 6.09091V7.51136H280.32V6.09091H285.974ZM281.968 3.47727H283.644V13.875C283.644 14.3485 283.713 14.7036 283.85 14.9403C283.992 15.1723 284.172 15.3286 284.39 15.4091C284.612 15.4848 284.847 15.5227 285.093 15.5227C285.278 15.5227 285.429 15.5133 285.548 15.4943C285.666 15.4706 285.761 15.4517 285.832 15.4375L286.173 16.9432C286.059 16.9858 285.9 17.0284 285.697 17.071C285.493 17.1184 285.235 17.142 284.923 17.142C284.449 17.142 283.985 17.0402 283.531 16.8366C283.081 16.633 282.707 16.3229 282.408 15.9062C282.115 15.4896 281.968 14.964 281.968 14.3295V3.47727ZM292.952 17.2273C291.901 17.2273 290.994 16.9953 290.232 16.5312C289.474 16.0625 288.889 15.4091 288.477 14.571C288.07 13.7282 287.866 12.7481 287.866 11.6307C287.866 10.5133 288.07 9.52841 288.477 8.67614C288.889 7.81913 289.462 7.15152 290.196 6.6733C290.935 6.19034 291.796 5.94886 292.781 5.94886C293.349 5.94886 293.911 6.04356 294.464 6.23295C295.018 6.42235 295.523 6.73011 295.977 7.15625C296.432 7.57765 296.794 8.13636 297.064 8.83239C297.334 9.52841 297.469 10.3854 297.469 11.4034V12.1136H289.06V10.6648H295.764C295.764 10.0492 295.641 9.5 295.395 9.01705C295.153 8.53409 294.808 8.15294 294.358 7.87358C293.913 7.59422 293.387 7.45455 292.781 7.45455C292.114 7.45455 291.536 7.62026 291.048 7.9517C290.565 8.27841 290.194 8.70455 289.933 9.23011C289.673 9.75568 289.543 10.3191 289.543 10.9205V11.8864C289.543 12.7102 289.685 13.4086 289.969 13.9815C290.258 14.5497 290.658 14.983 291.169 15.2812C291.68 15.5748 292.275 15.7216 292.952 15.7216C293.392 15.7216 293.79 15.66 294.145 15.5369C294.505 15.4091 294.815 15.2197 295.075 14.9688C295.336 14.7131 295.537 14.3958 295.679 14.017L297.298 14.4716C297.128 15.0208 296.841 15.5038 296.439 15.9205C296.036 16.3324 295.539 16.6544 294.947 16.8864C294.356 17.1136 293.69 17.2273 292.952 17.2273ZM300.018 17V6.09091H301.638V7.73864H301.751C301.95 7.19886 302.31 6.76089 302.831 6.42472C303.352 6.08854 303.939 5.92045 304.592 5.92045C304.715 5.92045 304.869 5.92282 305.054 5.92756C305.239 5.93229 305.378 5.93939 305.473 5.94886V7.65341C305.416 7.6392 305.286 7.6179 305.082 7.58949C304.884 7.55634 304.673 7.53977 304.45 7.53977C303.92 7.53977 303.446 7.65104 303.03 7.87358C302.618 8.09138 302.291 8.39441 302.05 8.78267C301.813 9.16619 301.695 9.60417 301.695 10.0966V17H300.018ZM313.085 21.0909V6.09091H314.704V7.82386H314.903C315.026 7.63447 315.197 7.39299 315.414 7.09943C315.637 6.80114 315.954 6.53598 316.366 6.30398C316.783 6.06723 317.346 5.94886 318.056 5.94886C318.975 5.94886 319.785 6.1785 320.485 6.63778C321.186 7.09706 321.733 7.74811 322.126 8.59091C322.519 9.43371 322.716 10.428 322.716 11.5739C322.716 12.7292 322.519 13.7306 322.126 14.5781C321.733 15.4209 321.189 16.0743 320.493 16.5384C319.797 16.9976 318.994 17.2273 318.085 17.2273C317.384 17.2273 316.823 17.1113 316.402 16.8793C315.98 16.6425 315.656 16.375 315.429 16.0767C315.201 15.7737 315.026 15.5227 314.903 15.3239H314.761V21.0909H313.085ZM314.733 11.5455C314.733 12.3693 314.853 13.0961 315.095 13.7259C315.336 14.3509 315.689 14.8409 316.153 15.196C316.617 15.5464 317.185 15.7216 317.858 15.7216C318.558 15.7216 319.143 15.5369 319.612 15.1676C320.085 14.7936 320.44 14.2917 320.677 13.6619C320.919 13.0275 321.039 12.322 321.039 11.5455C321.039 10.7784 320.921 10.0871 320.684 9.47159C320.452 8.85133 320.1 8.36127 319.626 8.00142C319.157 7.63684 318.568 7.45455 317.858 7.45455C317.176 7.45455 316.603 7.62737 316.139 7.97301C315.675 8.31392 315.324 8.79214 315.088 9.40767C314.851 10.0185 314.733 10.7311 314.733 11.5455ZM328.483 17.2557C327.791 17.2557 327.164 17.1255 326.6 16.8651C326.037 16.5999 325.59 16.2188 325.258 15.7216C324.927 15.2197 324.761 14.6136 324.761 13.9034C324.761 13.2784 324.884 12.7718 325.13 12.3835C325.377 11.9905 325.706 11.6828 326.118 11.4602C326.529 11.2377 326.984 11.072 327.481 10.9631C327.983 10.8494 328.487 10.7595 328.994 10.6932C329.657 10.608 330.194 10.544 330.606 10.5014C331.023 10.4541 331.326 10.3759 331.515 10.267C331.709 10.1581 331.806 9.96875 331.806 9.69886V9.64205C331.806 8.94129 331.615 8.39678 331.231 8.00852C330.852 7.62027 330.277 7.42614 329.505 7.42614C328.705 7.42614 328.078 7.60133 327.623 7.9517C327.169 8.30208 326.849 8.67614 326.664 9.07386L325.074 8.50568C325.358 7.8428 325.736 7.3267 326.21 6.95739C326.688 6.58333 327.209 6.32292 327.772 6.17614C328.341 6.02462 328.899 5.94886 329.449 5.94886C329.799 5.94886 330.201 5.99148 330.656 6.0767C331.115 6.1572 331.558 6.32528 331.984 6.58097C332.415 6.83665 332.772 7.22254 333.056 7.73864C333.341 8.25473 333.483 8.94602 333.483 9.8125V17H331.806V15.5227H331.721C331.608 15.7595 331.418 16.0128 331.153 16.2827C330.888 16.5526 330.535 16.7822 330.095 16.9716C329.654 17.161 329.117 17.2557 328.483 17.2557ZM328.738 15.75C329.401 15.75 329.96 15.6198 330.414 15.3594C330.874 15.099 331.219 14.7628 331.451 14.3509C331.688 13.9389 331.806 13.5057 331.806 13.0511V11.517C331.735 11.6023 331.579 11.6804 331.338 11.7514C331.101 11.8177 330.826 11.8769 330.514 11.929C330.206 11.9763 329.905 12.0189 329.612 12.0568C329.323 12.09 329.089 12.1184 328.909 12.142C328.473 12.1989 328.066 12.2912 327.687 12.419C327.313 12.5421 327.01 12.7292 326.778 12.9801C326.551 13.2263 326.437 13.5625 326.437 13.9886C326.437 14.571 326.653 15.0114 327.083 15.3097C327.519 15.6032 328.071 15.75 328.738 15.75ZM336.542 17V6.09091H338.161V7.73864H338.275C338.474 7.19886 338.834 6.76089 339.354 6.42472C339.875 6.08854 340.462 5.92045 341.116 5.92045C341.239 5.92045 341.393 5.92282 341.577 5.92756C341.762 5.93229 341.902 5.93939 341.996 5.94886V7.65341C341.94 7.6392 341.809 7.6179 341.606 7.58949C341.407 7.55634 341.196 7.53977 340.974 7.53977C340.443 7.53977 339.97 7.65104 339.553 7.87358C339.141 8.09138 338.815 8.39441 338.573 8.78267C338.336 9.16619 338.218 9.60417 338.218 10.0966V17H336.542ZM347.194 17.2557C346.502 17.2557 345.875 17.1255 345.311 16.8651C344.748 16.5999 344.301 16.2188 343.969 15.7216C343.638 15.2197 343.472 14.6136 343.472 13.9034C343.472 13.2784 343.595 12.7718 343.841 12.3835C344.087 11.9905 344.417 11.6828 344.828 11.4602C345.24 11.2377 345.695 11.072 346.192 10.9631C346.694 10.8494 347.198 10.7595 347.705 10.6932C348.368 10.608 348.905 10.544 349.317 10.5014C349.734 10.4541 350.037 10.3759 350.226 10.267C350.42 10.1581 350.517 9.96875 350.517 9.69886V9.64205C350.517 8.94129 350.326 8.39678 349.942 8.00852C349.563 7.62027 348.988 7.42614 348.216 7.42614C347.416 7.42614 346.789 7.60133 346.334 7.9517C345.88 8.30208 345.56 8.67614 345.375 9.07386L343.784 8.50568C344.069 7.8428 344.447 7.3267 344.921 6.95739C345.399 6.58333 345.92 6.32292 346.483 6.17614C347.051 6.02462 347.61 5.94886 348.159 5.94886C348.51 5.94886 348.912 5.99148 349.367 6.0767C349.826 6.1572 350.269 6.32528 350.695 6.58097C351.126 6.83665 351.483 7.22254 351.767 7.73864C352.051 8.25473 352.194 8.94602 352.194 9.8125V17H350.517V15.5227H350.432C350.319 15.7595 350.129 16.0128 349.864 16.2827C349.599 16.5526 349.246 16.7822 348.806 16.9716C348.365 17.161 347.828 17.2557 347.194 17.2557ZM347.449 15.75C348.112 15.75 348.671 15.6198 349.125 15.3594C349.585 15.099 349.93 14.7628 350.162 14.3509C350.399 13.9389 350.517 13.5057 350.517 13.0511V11.517C350.446 11.6023 350.29 11.6804 350.049 11.7514C349.812 11.8177 349.537 11.8769 349.225 11.929C348.917 11.9763 348.616 12.0189 348.323 12.0568C348.034 12.09 347.8 12.1184 347.62 12.142C347.184 12.1989 346.777 12.2912 346.398 12.419C346.024 12.5421 345.721 12.7292 345.489 12.9801C345.262 13.2263 345.148 13.5625 345.148 13.9886C345.148 14.571 345.364 15.0114 345.794 15.3097C346.23 15.6032 346.782 15.75 347.449 15.75ZM365.31 17.2273C364.325 17.2273 363.461 16.9929 362.717 16.5241C361.979 16.0554 361.401 15.3996 360.984 14.5568C360.572 13.714 360.366 12.7292 360.366 11.6023C360.366 10.4659 360.572 9.47396 360.984 8.62642C361.401 7.77888 361.979 7.12074 362.717 6.65199C363.461 6.18324 364.325 5.94886 365.31 5.94886C366.295 5.94886 367.156 6.18324 367.895 6.65199C368.638 7.12074 369.216 7.77888 369.628 8.62642C370.045 9.47396 370.253 10.4659 370.253 11.6023C370.253 12.7292 370.045 13.714 369.628 14.5568C369.216 15.3996 368.638 16.0554 367.895 16.5241C367.156 16.9929 366.295 17.2273 365.31 17.2273ZM365.31 15.7216C366.058 15.7216 366.673 15.5298 367.156 15.1463C367.639 14.7628 367.997 14.2585 368.229 13.6335C368.461 13.0085 368.577 12.3314 368.577 11.6023C368.577 10.8731 368.461 10.1937 368.229 9.56392C367.997 8.93419 367.639 8.42519 367.156 8.03693C366.673 7.64867 366.058 7.45455 365.31 7.45455C364.562 7.45455 363.946 7.64867 363.463 8.03693C362.98 8.42519 362.623 8.93419 362.391 9.56392C362.159 10.1937 362.043 10.8731 362.043 11.6023C362.043 12.3314 362.159 13.0085 362.391 13.6335C362.623 14.2585 362.98 14.7628 363.463 15.1463C363.946 15.5298 364.562 15.7216 365.31 15.7216ZM373.039 17V2.45455H374.715V7.82386H374.857C374.98 7.63447 375.15 7.39299 375.368 7.09943C375.591 6.80114 375.908 6.53598 376.32 6.30398C376.737 6.06723 377.3 5.94886 378.01 5.94886C378.929 5.94886 379.739 6.1785 380.439 6.63778C381.14 7.09706 381.687 7.74811 382.08 8.59091C382.473 9.43371 382.669 10.428 382.669 11.5739C382.669 12.7292 382.473 13.7306 382.08 14.5781C381.687 15.4209 381.142 16.0743 380.446 16.5384C379.75 16.9976 378.948 17.2273 378.039 17.2273C377.338 17.2273 376.777 17.1113 376.355 16.8793C375.934 16.6425 375.61 16.375 375.382 16.0767C375.155 15.7737 374.98 15.5227 374.857 15.3239H374.658V17H373.039ZM374.686 11.5455C374.686 12.3693 374.807 13.0961 375.049 13.7259C375.29 14.3509 375.643 14.8409 376.107 15.196C376.571 15.5464 377.139 15.7216 377.811 15.7216C378.512 15.7216 379.097 15.5369 379.566 15.1676C380.039 14.7936 380.394 14.2917 380.631 13.6619C380.873 13.0275 380.993 12.322 380.993 11.5455C380.993 10.7784 380.875 10.0871 380.638 9.47159C380.406 8.85133 380.053 8.36127 379.58 8.00142C379.111 7.63684 378.522 7.45455 377.811 7.45455C377.13 7.45455 376.557 7.62737 376.093 7.97301C375.629 8.31392 375.278 8.79214 375.042 9.40767C374.805 10.0185 374.686 10.7311 374.686 11.5455ZM389.978 6.09091V7.51136H384.324V6.09091H389.978ZM385.972 3.47727H387.648V13.875C387.648 14.3485 387.717 14.7036 387.854 14.9403C387.996 15.1723 388.176 15.3286 388.394 15.4091C388.616 15.4848 388.851 15.5227 389.097 15.5227C389.282 15.5227 389.433 15.5133 389.551 15.4943C389.67 15.4706 389.765 15.4517 389.836 15.4375L390.176 16.9432C390.063 16.9858 389.904 17.0284 389.701 17.071C389.497 17.1184 389.239 17.142 388.926 17.142C388.453 17.142 387.989 17.0402 387.534 16.8366C387.085 16.633 386.711 16.3229 386.412 15.9062C386.119 15.4896 385.972 14.964 385.972 14.3295V3.47727ZM396.956 17.2273C395.904 17.2273 394.998 16.9953 394.235 16.5312C393.478 16.0625 392.893 15.4091 392.481 14.571C392.074 13.7282 391.87 12.7481 391.87 11.6307C391.87 10.5133 392.074 9.52841 392.481 8.67614C392.893 7.81913 393.466 7.15152 394.2 6.6733C394.939 6.19034 395.8 5.94886 396.785 5.94886C397.353 5.94886 397.914 6.04356 398.468 6.23295C399.022 6.42235 399.527 6.73011 399.981 7.15625C400.436 7.57765 400.798 8.13636 401.068 8.83239C401.338 9.52841 401.473 10.3854 401.473 11.4034V12.1136H393.064V10.6648H399.768C399.768 10.0492 399.645 9.5 399.399 9.01705C399.157 8.53409 398.812 8.15294 398.362 7.87358C397.917 7.59422 397.391 7.45455 396.785 7.45455C396.118 7.45455 395.54 7.62026 395.052 7.9517C394.569 8.27841 394.198 8.70455 393.937 9.23011C393.677 9.75568 393.547 10.3191 393.547 10.9205V11.8864C393.547 12.7102 393.689 13.4086 393.973 13.9815C394.261 14.5497 394.662 14.983 395.173 15.2812C395.684 15.5748 396.279 15.7216 396.956 15.7216C397.396 15.7216 397.794 15.66 398.149 15.5369C398.509 15.4091 398.819 15.2197 399.079 14.9688C399.34 14.7131 399.541 14.3958 399.683 14.017L401.302 14.4716C401.132 15.0208 400.845 15.5038 400.443 15.9205C400.04 16.3324 399.543 16.6544 398.951 16.8864C398.359 17.1136 397.694 17.2273 396.956 17.2273ZM405.699 10.4375V17H404.022V6.09091H405.642V7.79545H405.784C406.039 7.24148 406.428 6.7964 406.949 6.46023C407.469 6.11932 408.142 5.94886 408.966 5.94886C409.704 5.94886 410.35 6.10038 410.904 6.40341C411.458 6.7017 411.889 7.15625 412.197 7.76705C412.505 8.37311 412.659 9.14015 412.659 10.0682V17H410.983V10.1818C410.983 9.32481 410.76 8.6572 410.315 8.17898C409.87 7.69602 409.259 7.45455 408.483 7.45455C407.948 7.45455 407.469 7.57055 407.048 7.80256C406.631 8.03456 406.302 8.37311 406.061 8.81818C405.819 9.26326 405.699 9.80303 405.699 10.4375ZM420.295 17.2273C419.244 17.2273 418.338 16.9953 417.575 16.5312C416.818 16.0625 416.233 15.4091 415.821 14.571C415.414 13.7282 415.21 12.7481 415.21 11.6307C415.21 10.5133 415.414 9.52841 415.821 8.67614C416.233 7.81913 416.806 7.15152 417.54 6.6733C418.278 6.19034 419.14 5.94886 420.125 5.94886C420.693 5.94886 421.254 6.04356 421.808 6.23295C422.362 6.42235 422.866 6.73011 423.321 7.15625C423.776 7.57765 424.138 8.13636 424.408 8.83239C424.678 9.52841 424.812 10.3854 424.812 11.4034V12.1136H416.403V10.6648H423.108C423.108 10.0492 422.985 9.5 422.739 9.01705C422.497 8.53409 422.152 8.15294 421.702 7.87358C421.257 7.59422 420.731 7.45455 420.125 7.45455C419.457 7.45455 418.88 7.62026 418.392 7.9517C417.909 8.27841 417.537 8.70455 417.277 9.23011C417.017 9.75568 416.886 10.3191 416.886 10.9205V11.8864C416.886 12.7102 417.028 13.4086 417.312 13.9815C417.601 14.5497 418.001 14.983 418.513 15.2812C419.024 15.5748 419.618 15.7216 420.295 15.7216C420.736 15.7216 421.134 15.66 421.489 15.5369C421.848 15.4091 422.159 15.2197 422.419 14.9688C422.679 14.7131 422.881 14.3958 423.023 14.017L424.642 14.4716C424.472 15.0208 424.185 15.5038 423.783 15.9205C423.38 16.3324 422.883 16.6544 422.291 16.8864C421.699 17.1136 421.034 17.2273 420.295 17.2273ZM427.362 17V6.09091H428.982V7.73864H429.095C429.294 7.19886 429.654 6.76089 430.175 6.42472C430.696 6.08854 431.283 5.92045 431.936 5.92045C432.059 5.92045 432.213 5.92282 432.398 5.92756C432.582 5.93229 432.722 5.93939 432.817 5.94886V7.65341C432.76 7.6392 432.63 7.6179 432.426 7.58949C432.227 7.55634 432.017 7.53977 431.794 7.53977C431.264 7.53977 430.79 7.65104 430.374 7.87358C429.962 8.09138 429.635 8.39441 429.393 8.78267C429.157 9.16619 429.038 9.60417 429.038 10.0966V17H427.362ZM440.429 17V6.09091H442.105V17H440.429ZM441.281 4.27273C440.954 4.27273 440.672 4.16146 440.436 3.93892C440.204 3.71638 440.088 3.44886 440.088 3.13636C440.088 2.82386 440.204 2.55634 440.436 2.33381C440.672 2.11127 440.954 2 441.281 2C441.608 2 441.887 2.11127 442.119 2.33381C442.356 2.55634 442.474 2.82386 442.474 3.13636C442.474 3.44886 442.356 3.71638 442.119 3.93892C441.887 4.16146 441.608 4.27273 441.281 4.27273ZM446.851 10.4375V17H445.175V6.09091H446.794V7.79545H446.936C447.192 7.24148 447.58 6.7964 448.101 6.46023C448.622 6.11932 449.294 5.94886 450.118 5.94886C450.857 5.94886 451.503 6.10038 452.057 6.40341C452.611 6.7017 453.042 7.15625 453.349 7.76705C453.657 8.37311 453.811 9.14015 453.811 10.0682V17H452.135V10.1818C452.135 9.32481 451.912 8.6572 451.467 8.17898C451.022 7.69602 450.411 7.45455 449.635 7.45455C449.1 7.45455 448.622 7.57055 448.2 7.80256C447.784 8.03456 447.455 8.37311 447.213 8.81818C446.972 9.26326 446.851 9.80303 446.851 10.4375ZM461.732 6.09091V7.51136H455.851V6.09091H461.732ZM457.613 17V4.58523C457.613 3.96023 457.759 3.43939 458.053 3.02273C458.346 2.60606 458.728 2.29356 459.196 2.08523C459.665 1.87689 460.16 1.77273 460.681 1.77273C461.093 1.77273 461.429 1.80587 461.689 1.87216C461.95 1.93845 462.144 2 462.272 2.05682L461.789 3.50568C461.703 3.47727 461.585 3.44176 461.434 3.39915C461.287 3.35653 461.093 3.33523 460.851 3.33523C460.297 3.33523 459.897 3.4749 459.651 3.75426C459.409 4.03362 459.289 4.44318 459.289 4.98295V17H457.613ZM468.064 17.2273C467.079 17.2273 466.215 16.9929 465.471 16.5241C464.733 16.0554 464.155 15.3996 463.738 14.5568C463.326 13.714 463.12 12.7292 463.12 11.6023C463.12 10.4659 463.326 9.47396 463.738 8.62642C464.155 7.77888 464.733 7.12074 465.471 6.65199C466.215 6.18324 467.079 5.94886 468.064 5.94886C469.048 5.94886 469.91 6.18324 470.649 6.65199C471.392 7.12074 471.97 7.77888 472.382 8.62642C472.798 9.47396 473.007 10.4659 473.007 11.6023C473.007 12.7292 472.798 13.714 472.382 14.5568C471.97 15.3996 471.392 16.0554 470.649 16.5241C469.91 16.9929 469.048 17.2273 468.064 17.2273ZM468.064 15.7216C468.812 15.7216 469.427 15.5298 469.91 15.1463C470.393 14.7628 470.751 14.2585 470.983 13.6335C471.215 13.0085 471.331 12.3314 471.331 11.6023C471.331 10.8731 471.215 10.1937 470.983 9.56392C470.751 8.93419 470.393 8.42519 469.91 8.03693C469.427 7.64867 468.812 7.45455 468.064 7.45455C467.315 7.45455 466.7 7.64867 466.217 8.03693C465.734 8.42519 465.377 8.93419 465.145 9.56392C464.913 10.1937 464.797 10.8731 464.797 11.6023C464.797 12.3314 464.913 13.0085 465.145 13.6335C465.377 14.2585 465.734 14.7628 466.217 15.1463C466.7 15.5298 467.315 15.7216 468.064 15.7216ZM475.565 17V6.09091H477.185V7.73864H477.298C477.497 7.19886 477.857 6.76089 478.378 6.42472C478.899 6.08854 479.486 5.92045 480.139 5.92045C480.262 5.92045 480.416 5.92282 480.601 5.92756C480.786 5.93229 480.925 5.93939 481.02 5.94886V7.65341C480.963 7.6392 480.833 7.6179 480.629 7.58949C480.43 7.55634 480.22 7.53977 479.997 7.53977C479.467 7.53977 478.993 7.65104 478.577 7.87358C478.165 8.09138 477.838 8.39441 477.597 8.78267C477.36 9.16619 477.241 9.60417 477.241 10.0966V17H475.565ZM483.007 17V6.09091H484.626V7.79545H484.768C484.995 7.21307 485.362 6.76089 485.869 6.43892C486.376 6.11222 486.984 5.94886 487.694 5.94886C488.414 5.94886 489.013 6.11222 489.491 6.43892C489.974 6.76089 490.35 7.21307 490.62 7.79545H490.734C491.013 7.23201 491.432 6.78456 491.991 6.45312C492.55 6.11695 493.22 5.94886 494.001 5.94886C494.976 5.94886 495.774 6.25426 496.395 6.86506C497.015 7.47112 497.325 8.41572 497.325 9.69886V17H495.649V9.69886C495.649 8.89394 495.429 8.31866 494.988 7.97301C494.548 7.62737 494.029 7.45455 493.433 7.45455C492.666 7.45455 492.072 7.68655 491.65 8.15057C491.229 8.60985 491.018 9.19223 491.018 9.89773V17H489.314V9.52841C489.314 8.90814 489.112 8.40862 488.71 8.02983C488.307 7.64631 487.789 7.45455 487.154 7.45455C486.719 7.45455 486.312 7.57055 485.933 7.80256C485.559 8.03456 485.256 8.35653 485.024 8.76847C484.797 9.17566 484.683 9.64678 484.683 10.1818V17H483.007ZM503.6 17.2557C502.908 17.2557 502.281 17.1255 501.718 16.8651C501.154 16.5999 500.707 16.2188 500.375 15.7216C500.044 15.2197 499.878 14.6136 499.878 13.9034C499.878 13.2784 500.001 12.7718 500.248 12.3835C500.494 11.9905 500.823 11.6828 501.235 11.4602C501.647 11.2377 502.101 11.072 502.598 10.9631C503.1 10.8494 503.605 10.7595 504.111 10.6932C504.774 10.608 505.311 10.544 505.723 10.5014C506.14 10.4541 506.443 10.3759 506.632 10.267C506.827 10.1581 506.924 9.96875 506.924 9.69886V9.64205C506.924 8.94129 506.732 8.39678 506.348 8.00852C505.97 7.62027 505.394 7.42614 504.623 7.42614C503.822 7.42614 503.195 7.60133 502.74 7.9517C502.286 8.30208 501.966 8.67614 501.782 9.07386L500.191 8.50568C500.475 7.8428 500.854 7.3267 501.327 6.95739C501.805 6.58333 502.326 6.32292 502.89 6.17614C503.458 6.02462 504.016 5.94886 504.566 5.94886C504.916 5.94886 505.319 5.99148 505.773 6.0767C506.232 6.1572 506.675 6.32528 507.101 6.58097C507.532 6.83665 507.89 7.22254 508.174 7.73864C508.458 8.25473 508.6 8.94602 508.6 9.8125V17H506.924V15.5227H506.838C506.725 15.7595 506.535 16.0128 506.27 16.2827C506.005 16.5526 505.652 16.7822 505.212 16.9716C504.772 17.161 504.234 17.2557 503.6 17.2557ZM503.855 15.75C504.518 15.75 505.077 15.6198 505.532 15.3594C505.991 15.099 506.337 14.7628 506.569 14.3509C506.805 13.9389 506.924 13.5057 506.924 13.0511V11.517C506.853 11.6023 506.696 11.6804 506.455 11.7514C506.218 11.8177 505.944 11.8769 505.631 11.929C505.323 11.9763 505.023 12.0189 504.729 12.0568C504.44 12.09 504.206 12.1184 504.026 12.142C503.59 12.1989 503.183 12.2912 502.804 12.419C502.43 12.5421 502.127 12.7292 501.895 12.9801C501.668 13.2263 501.554 13.5625 501.554 13.9886C501.554 14.571 501.77 15.0114 502.201 15.3097C502.636 15.6032 503.188 15.75 503.855 15.75ZM516.091 17.2273C515.068 17.2273 514.188 16.9858 513.449 16.5028C512.71 16.0199 512.142 15.3546 511.744 14.5071C511.347 13.6596 511.148 12.6913 511.148 11.6023C511.148 10.4943 511.351 9.51657 511.759 8.66903C512.17 7.81676 512.743 7.15152 513.477 6.6733C514.216 6.19034 515.078 5.94886 516.062 5.94886C516.83 5.94886 517.521 6.09091 518.136 6.375C518.752 6.65909 519.256 7.05682 519.649 7.56818C520.042 8.07955 520.286 8.67614 520.381 9.35795H518.705C518.577 8.8608 518.293 8.42045 517.852 8.03693C517.417 7.64867 516.83 7.45455 516.091 7.45455C515.438 7.45455 514.865 7.625 514.372 7.96591C513.884 8.30208 513.503 8.77794 513.229 9.39347C512.959 10.0043 512.824 10.7216 512.824 11.5455C512.824 12.3883 512.956 13.1222 513.222 13.7472C513.491 14.3722 513.87 14.8575 514.358 15.2031C514.85 15.5488 515.428 15.7216 516.091 15.7216C516.527 15.7216 516.922 15.6458 517.277 15.4943C517.632 15.3428 517.933 15.125 518.179 14.8409C518.425 14.5568 518.6 14.2159 518.705 13.8182H520.381C520.286 14.4621 520.052 15.0421 519.678 15.5582C519.308 16.0696 518.818 16.4768 518.207 16.7798C517.601 17.0781 516.896 17.2273 516.091 17.2273ZM522.831 17V6.09091H524.507V17H522.831ZM523.683 4.27273C523.357 4.27273 523.075 4.16146 522.838 3.93892C522.606 3.71638 522.49 3.44886 522.49 3.13636C522.49 2.82386 522.606 2.55634 522.838 2.33381C523.075 2.11127 523.357 2 523.683 2C524.01 2 524.289 2.11127 524.521 2.33381C524.758 2.55634 524.876 2.82386 524.876 3.13636C524.876 3.44886 524.758 3.71638 524.521 3.93892C524.289 4.16146 524.01 4.27273 523.683 4.27273ZM532.009 17.2273C531.024 17.2273 530.16 16.9929 529.417 16.5241C528.678 16.0554 528.1 15.3996 527.684 14.5568C527.272 13.714 527.066 12.7292 527.066 11.6023C527.066 10.4659 527.272 9.47396 527.684 8.62642C528.1 7.77888 528.678 7.12074 529.417 6.65199C530.16 6.18324 531.024 5.94886 532.009 5.94886C532.994 5.94886 533.855 6.18324 534.594 6.65199C535.337 7.12074 535.915 7.77888 536.327 8.62642C536.744 9.47396 536.952 10.4659 536.952 11.6023C536.952 12.7292 536.744 13.714 536.327 14.5568C535.915 15.3996 535.337 16.0554 534.594 16.5241C533.855 16.9929 532.994 17.2273 532.009 17.2273ZM532.009 15.7216C532.757 15.7216 533.373 15.5298 533.855 15.1463C534.338 14.7628 534.696 14.2585 534.928 13.6335C535.16 13.0085 535.276 12.3314 535.276 11.6023C535.276 10.8731 535.16 10.1937 534.928 9.56392C534.696 8.93419 534.338 8.42519 533.855 8.03693C533.373 7.64867 532.757 7.45455 532.009 7.45455C531.261 7.45455 530.645 7.64867 530.162 8.03693C529.679 8.42519 529.322 8.93419 529.09 9.56392C528.858 10.1937 528.742 10.8731 528.742 11.6023C528.742 12.3314 528.858 13.0085 529.09 13.6335C529.322 14.2585 529.679 14.7628 530.162 15.1463C530.645 15.5298 531.261 15.7216 532.009 15.7216ZM531.242 4.61364L532.975 1.31818H534.935L532.719 4.61364H531.242ZM541.187 10.4375V17H539.511V6.09091H541.13V7.79545H541.272C541.528 7.24148 541.916 6.7964 542.437 6.46023C542.958 6.11932 543.63 5.94886 544.454 5.94886C545.192 5.94886 545.839 6.10038 546.393 6.40341C546.947 6.7017 547.378 7.15625 547.685 7.76705C547.993 8.37311 548.147 9.14015 548.147 10.0682V17H546.471V10.1818C546.471 9.32481 546.248 8.6572 545.803 8.17898C545.358 7.69602 544.747 7.45455 543.971 7.45455C543.436 7.45455 542.958 7.57055 542.536 7.80256C542.12 8.03456 541.79 8.37311 541.549 8.81818C541.308 9.26326 541.187 9.80303 541.187 10.4375Z" fill="#EDE8E2"/>
<path d="M34.6136 41.0909C34.3295 41.0909 34.0762 41.0672 33.8537 41.0199C33.6312 40.9773 33.4773 40.9347 33.392 40.892L33.8182 39.4148C34.2254 39.5189 34.5852 39.5568 34.8977 39.5284C35.2102 39.5 35.4872 39.3603 35.7287 39.1094C35.9749 38.8632 36.1998 38.4631 36.4034 37.9091L36.7159 37.0568L32.6818 26.0909H34.5L37.5114 34.7841H37.625L40.6364 26.0909H42.4545L37.8239 38.5909C37.6155 39.1544 37.3575 39.6207 37.0497 39.9901C36.742 40.3641 36.3845 40.6411 35.9773 40.821C35.5748 41.0009 35.1203 41.0909 34.6136 41.0909ZM50.2919 41.0909V26.0909H51.9112V27.8239H52.1101C52.2332 27.6345 52.4036 27.393 52.6214 27.0994C52.844 26.8011 53.1612 26.536 53.5732 26.304C53.9898 26.0672 54.5533 25.9489 55.2635 25.9489C56.1821 25.9489 56.9917 26.1785 57.6925 26.6378C58.3932 27.0971 58.9401 27.7481 59.3331 28.5909C59.7261 29.4337 59.9226 30.428 59.9226 31.5739C59.9226 32.7292 59.7261 33.7306 59.3331 34.5781C58.9401 35.4209 58.3956 36.0743 57.6996 36.5384C57.0036 36.9976 56.201 37.2273 55.2919 37.2273C54.5911 37.2273 54.0301 37.1113 53.6087 36.8793C53.1873 36.6425 52.8629 36.375 52.6357 36.0767C52.4084 35.7737 52.2332 35.5227 52.1101 35.3239H51.968V41.0909H50.2919ZM51.9396 31.5455C51.9396 32.3693 52.0604 33.0961 52.3018 33.7259C52.5433 34.3509 52.8961 34.8409 53.3601 35.196C53.8241 35.5464 54.3923 35.7216 55.0646 35.7216C55.7654 35.7216 56.3501 35.5369 56.8189 35.1676C57.2924 34.7936 57.6475 34.2917 57.8842 33.6619C58.1257 33.0275 58.2464 32.322 58.2464 31.5455C58.2464 30.7784 58.1281 30.0871 57.8913 29.4716C57.6593 28.8513 57.3066 28.3613 56.8331 28.0014C56.3643 27.6368 55.7749 27.4545 55.0646 27.4545C54.3828 27.4545 53.8099 27.6274 53.3459 27.973C52.8819 28.3139 52.5315 28.7921 52.2947 29.4077C52.058 30.0185 51.9396 30.7311 51.9396 31.5455ZM62.4794 37V26.0909H64.0987V27.7386H64.2124C64.4112 27.1989 64.7711 26.7609 65.2919 26.4247C65.8127 26.0885 66.3999 25.9205 67.0533 25.9205C67.1764 25.9205 67.3303 25.9228 67.5149 25.9276C67.6996 25.9323 67.8393 25.9394 67.9339 25.9489V27.6534C67.8771 27.6392 67.7469 27.6179 67.5433 27.5895C67.3445 27.5563 67.1338 27.5398 66.9112 27.5398C66.3809 27.5398 65.9074 27.651 65.4908 27.8736C65.0788 28.0914 64.7521 28.3944 64.5107 28.7827C64.2739 29.1662 64.1555 29.6042 64.1555 30.0966V37H62.4794ZM74.0206 37.2273C73.0357 37.2273 72.1716 36.9929 71.4283 36.5241C70.6896 36.0554 70.112 35.3996 69.6953 34.5568C69.2834 33.714 69.0774 32.7292 69.0774 31.6023C69.0774 30.4659 69.2834 29.474 69.6953 28.6264C70.112 27.7789 70.6896 27.1207 71.4283 26.652C72.1716 26.1832 73.0357 25.9489 74.0206 25.9489C75.0054 25.9489 75.8672 26.1832 76.6058 26.652C77.3492 27.1207 77.9268 27.7789 78.3388 28.6264C78.7554 29.474 78.9638 30.4659 78.9638 31.6023C78.9638 32.7292 78.7554 33.714 78.3388 34.5568C77.9268 35.3996 77.3492 36.0554 76.6058 36.5241C75.8672 36.9929 75.0054 37.2273 74.0206 37.2273ZM74.0206 35.7216C74.7687 35.7216 75.3842 35.5298 75.8672 35.1463C76.3501 34.7628 76.7076 34.2585 76.9396 33.6335C77.1716 33.0085 77.2876 32.3314 77.2876 31.6023C77.2876 30.8731 77.1716 30.1937 76.9396 29.5639C76.7076 28.9342 76.3501 28.4252 75.8672 28.0369C75.3842 27.6487 74.7687 27.4545 74.0206 27.4545C73.2725 27.4545 72.657 27.6487 72.174 28.0369C71.6911 28.4252 71.3336 28.9342 71.1016 29.5639C70.8696 30.1937 70.7536 30.8731 70.7536 31.6023C70.7536 32.3314 70.8696 33.0085 71.1016 33.6335C71.3336 34.2585 71.6911 34.7628 72.174 35.1463C72.657 35.5298 73.2725 35.7216 74.0206 35.7216ZM81.5224 37V26.0909H83.1417V27.7955H83.2837C83.511 27.2131 83.878 26.7609 84.3846 26.4389C84.8912 26.1122 85.4996 25.9489 86.2099 25.9489C86.9296 25.9489 87.5285 26.1122 88.0067 26.4389C88.4897 26.7609 88.8661 27.2131 89.136 27.7955H89.2496C89.529 27.232 89.948 26.7846 90.5067 26.4531C91.0655 26.117 91.7354 25.9489 92.5167 25.9489C93.4921 25.9489 94.2899 26.2543 94.9102 26.8651C95.5304 27.4711 95.8406 28.4157 95.8406 29.6989V37H94.1644V29.6989C94.1644 28.8939 93.9442 28.3187 93.5039 27.973C93.0636 27.6274 92.5451 27.4545 91.9485 27.4545C91.1815 27.4545 90.5872 27.6866 90.1658 28.1506C89.7444 28.6098 89.5337 29.1922 89.5337 29.8977V37H87.8292V29.5284C87.8292 28.9081 87.628 28.4086 87.2255 28.0298C86.823 27.6463 86.3046 27.4545 85.6701 27.4545C85.2345 27.4545 84.8273 27.5705 84.4485 27.8026C84.0745 28.0346 83.7714 28.3565 83.5394 28.7685C83.3121 29.1757 83.1985 29.6468 83.1985 30.1818V37H81.5224ZM103.337 37.2273C102.352 37.2273 101.488 36.9929 100.745 36.5241C100.006 36.0554 99.4284 35.3996 99.0117 34.5568C98.5998 33.714 98.3938 32.7292 98.3938 31.6023C98.3938 30.4659 98.5998 29.474 99.0117 28.6264C99.4284 27.7789 100.006 27.1207 100.745 26.652C101.488 26.1832 102.352 25.9489 103.337 25.9489C104.322 25.9489 105.184 26.1832 105.922 26.652C106.666 27.1207 107.243 27.7789 107.655 28.6264C108.072 29.474 108.28 30.4659 108.28 31.6023C108.28 32.7292 108.072 33.714 107.655 34.5568C107.243 35.3996 106.666 36.0554 105.922 36.5241C105.184 36.9929 104.322 37.2273 103.337 37.2273ZM103.337 35.7216C104.085 35.7216 104.701 35.5298 105.184 35.1463C105.667 34.7628 106.024 34.2585 106.256 33.6335C106.488 33.0085 106.604 32.3314 106.604 31.6023C106.604 30.8731 106.488 30.1937 106.256 29.5639C106.024 28.9342 105.667 28.4252 105.184 28.0369C104.701 27.6487 104.085 27.4545 103.337 27.4545C102.589 27.4545 101.973 27.6487 101.49 28.0369C101.007 28.4252 100.65 28.9342 100.418 29.5639C100.186 30.1937 100.07 30.8731 100.07 31.6023C100.07 32.3314 100.186 33.0085 100.418 33.6335C100.65 34.2585 101.007 34.7628 101.49 35.1463C101.973 35.5298 102.589 35.7216 103.337 35.7216ZM115.271 37.2273C114.248 37.2273 113.367 36.9858 112.629 36.5028C111.89 36.0199 111.322 35.3546 110.924 34.5071C110.526 33.6596 110.327 32.6913 110.327 31.6023C110.327 30.4943 110.531 29.5166 110.938 28.669C111.35 27.8168 111.923 27.1515 112.657 26.6733C113.396 26.1903 114.257 25.9489 115.242 25.9489C116.009 25.9489 116.701 26.0909 117.316 26.375C117.932 26.6591 118.436 27.0568 118.829 27.5682C119.222 28.0795 119.466 28.6761 119.56 29.358H117.884C117.756 28.8608 117.472 28.4205 117.032 28.0369C116.596 27.6487 116.009 27.4545 115.271 27.4545C114.617 27.4545 114.044 27.625 113.552 27.9659C113.064 28.3021 112.683 28.7779 112.408 29.3935C112.138 30.0043 112.004 30.7216 112.004 31.5455C112.004 32.3883 112.136 33.1222 112.401 33.7472C112.671 34.3722 113.05 34.8575 113.538 35.2031C114.03 35.5488 114.608 35.7216 115.271 35.7216C115.706 35.7216 116.102 35.6458 116.457 35.4943C116.812 35.3428 117.112 35.125 117.359 34.8409C117.605 34.5568 117.78 34.2159 117.884 33.8182H119.56C119.466 34.4621 119.231 35.0421 118.857 35.5582C118.488 36.0696 117.998 36.4768 117.387 36.7798C116.781 37.0781 116.076 37.2273 115.271 37.2273ZM122.011 37V26.0909H123.687V37H122.011ZM122.863 24.2727C122.536 24.2727 122.254 24.1615 122.018 23.9389C121.786 23.7164 121.67 23.4489 121.67 23.1364C121.67 22.8239 121.786 22.5563 122.018 22.3338C122.254 22.1113 122.536 22 122.863 22C123.19 22 123.469 22.1113 123.701 22.3338C123.938 22.5563 124.056 22.8239 124.056 23.1364C124.056 23.4489 123.938 23.7164 123.701 23.9389C123.469 24.1615 123.19 24.2727 122.863 24.2727ZM131.189 37.2273C130.204 37.2273 129.34 36.9929 128.596 36.5241C127.858 36.0554 127.28 35.3996 126.863 34.5568C126.451 33.714 126.245 32.7292 126.245 31.6023C126.245 30.4659 126.451 29.474 126.863 28.6264C127.28 27.7789 127.858 27.1207 128.596 26.652C129.34 26.1832 130.204 25.9489 131.189 25.9489C132.173 25.9489 133.035 26.1832 133.774 26.652C134.517 27.1207 135.095 27.7789 135.507 28.6264C135.923 29.474 136.132 30.4659 136.132 31.6023C136.132 32.7292 135.923 33.714 135.507 34.5568C135.095 35.3996 134.517 36.0554 133.774 36.5241C133.035 36.9929 132.173 37.2273 131.189 37.2273ZM131.189 35.7216C131.937 35.7216 132.552 35.5298 133.035 35.1463C133.518 34.7628 133.876 34.2585 134.108 33.6335C134.34 33.0085 134.456 32.3314 134.456 31.6023C134.456 30.8731 134.34 30.1937 134.108 29.5639C133.876 28.9342 133.518 28.4252 133.035 28.0369C132.552 27.6487 131.937 27.4545 131.189 27.4545C130.44 27.4545 129.825 27.6487 129.342 28.0369C128.859 28.4252 128.502 28.9342 128.27 29.5639C128.038 30.1937 127.922 30.8731 127.922 31.6023C127.922 32.3314 128.038 33.0085 128.27 33.6335C128.502 34.2585 128.859 34.7628 129.342 35.1463C129.825 35.5298 130.44 35.7216 131.189 35.7216ZM140.366 30.4375V37H138.69V26.0909H140.31V27.7955H140.452C140.707 27.2415 141.096 26.7964 141.616 26.4602C142.137 26.1193 142.81 25.9489 143.634 25.9489C144.372 25.9489 145.018 26.1004 145.572 26.4034C146.126 26.7017 146.557 27.1562 146.865 27.767C147.173 28.3731 147.327 29.1402 147.327 30.0682V37H145.651V30.1818C145.651 29.3248 145.428 28.6572 144.983 28.179C144.538 27.696 143.927 27.4545 143.151 27.4545C142.616 27.4545 142.137 27.5705 141.716 27.8026C141.299 28.0346 140.97 28.3731 140.729 28.8182C140.487 29.2633 140.366 29.803 140.366 30.4375ZM154.963 37.2273C153.912 37.2273 153.006 36.9953 152.243 36.5312C151.486 36.0625 150.901 35.4091 150.489 34.571C150.082 33.7282 149.878 32.7481 149.878 31.6307C149.878 30.5133 150.082 29.5284 150.489 28.6761C150.901 27.8191 151.474 27.1515 152.208 26.6733C152.946 26.1903 153.808 25.9489 154.793 25.9489C155.361 25.9489 155.922 26.0436 156.476 26.233C157.03 26.4223 157.534 26.7301 157.989 27.1562C158.444 27.5777 158.806 28.1364 159.076 28.8324C159.346 29.5284 159.48 30.3854 159.48 31.4034V32.1136H151.071V30.6648H157.776C157.776 30.0492 157.653 29.5 157.407 29.017C157.165 28.5341 156.819 28.1529 156.37 27.8736C155.925 27.5942 155.399 27.4545 154.793 27.4545C154.125 27.4545 153.548 27.6203 153.06 27.9517C152.577 28.2784 152.205 28.7045 151.945 29.2301C151.685 29.7557 151.554 30.3191 151.554 30.9205V31.8864C151.554 32.7102 151.696 33.4086 151.98 33.9815C152.269 34.5497 152.669 34.983 153.181 35.2812C153.692 35.5748 154.286 35.7216 154.963 35.7216C155.404 35.7216 155.801 35.66 156.157 35.5369C156.516 35.4091 156.827 35.2197 157.087 34.9688C157.347 34.7131 157.549 34.3958 157.691 34.017L159.31 34.4716C159.14 35.0208 158.853 35.5038 158.451 35.9205C158.048 36.3324 157.551 36.6544 156.959 36.8864C156.367 37.1136 155.702 37.2273 154.963 37.2273ZM169.757 28.5341L168.252 28.9602C168.157 28.7093 168.017 28.4654 167.833 28.2287C167.653 27.9872 167.407 27.7884 167.094 27.6321C166.782 27.4759 166.382 27.3977 165.894 27.3977C165.226 27.3977 164.67 27.5516 164.225 27.8594C163.784 28.1624 163.564 28.5483 163.564 29.017C163.564 29.4337 163.716 29.7628 164.019 30.0043C164.322 30.2457 164.795 30.447 165.439 30.608L167.059 31.0057C168.034 31.2424 168.761 31.6046 169.239 32.0923C169.717 32.5753 169.956 33.1979 169.956 33.9602C169.956 34.5852 169.776 35.1439 169.417 35.6364C169.061 36.1288 168.564 36.517 167.925 36.8011C167.286 37.0852 166.542 37.2273 165.695 37.2273C164.582 37.2273 163.661 36.9858 162.932 36.5028C162.203 36.0199 161.741 35.3144 161.547 34.3864L163.138 33.9886C163.29 34.5758 163.576 35.0161 163.998 35.3097C164.424 35.6032 164.98 35.75 165.667 35.75C166.448 35.75 167.068 35.5843 167.527 35.2528C167.991 34.9167 168.223 34.5142 168.223 34.0455C168.223 33.6667 168.091 33.3494 167.826 33.0938C167.56 32.8333 167.153 32.6392 166.604 32.5114L164.786 32.0852C163.787 31.8485 163.053 31.4815 162.584 30.9844C162.12 30.4825 161.888 29.8551 161.888 29.1023C161.888 28.4867 162.061 27.9422 162.407 27.4688C162.757 26.9953 163.233 26.6236 163.834 26.3537C164.44 26.0838 165.127 25.9489 165.894 25.9489C166.973 25.9489 167.821 26.1856 168.436 26.6591C169.057 27.1326 169.497 27.7576 169.757 28.5341ZM182.678 37.2273C181.627 37.2273 180.72 36.9953 179.958 36.5312C179.201 36.0625 178.616 35.4091 178.204 34.571C177.797 33.7282 177.593 32.7481 177.593 31.6307C177.593 30.5133 177.797 29.5284 178.204 28.6761C178.616 27.8191 179.189 27.1515 179.923 26.6733C180.661 26.1903 181.523 25.9489 182.508 25.9489C183.076 25.9489 183.637 26.0436 184.191 26.233C184.745 26.4223 185.249 26.7301 185.704 27.1562C186.158 27.5777 186.521 28.1364 186.79 28.8324C187.06 29.5284 187.195 30.3854 187.195 31.4034V32.1136H178.786V30.6648H185.491C185.491 30.0492 185.368 29.5 185.121 29.017C184.88 28.5341 184.534 28.1529 184.085 27.8736C183.639 27.5942 183.114 27.4545 182.508 27.4545C181.84 27.4545 181.263 27.6203 180.775 27.9517C180.292 28.2784 179.92 28.7045 179.66 29.2301C179.399 29.7557 179.269 30.3191 179.269 30.9205V31.8864C179.269 32.7102 179.411 33.4086 179.695 33.9815C179.984 34.5497 180.384 34.983 180.896 35.2812C181.407 35.5748 182.001 35.7216 182.678 35.7216C183.119 35.7216 183.516 35.66 183.871 35.5369C184.231 35.4091 184.541 35.2197 184.802 34.9688C185.062 34.7131 185.263 34.3958 185.406 34.017L187.025 34.4716C186.854 35.0208 186.568 35.5038 186.165 35.9205C185.763 36.3324 185.266 36.6544 184.674 36.8864C184.082 37.1136 183.417 37.2273 182.678 37.2273ZM190.702 26.0909L193.316 30.5511L195.929 26.0909H197.861L194.338 31.5455L197.861 37H195.929L193.316 32.767L190.702 37H188.77L192.236 31.5455L188.77 26.0909H190.702ZM204.235 37.2273C203.213 37.2273 202.332 36.9858 201.593 36.5028C200.855 36.0199 200.287 35.3546 199.889 34.5071C199.491 33.6596 199.292 32.6913 199.292 31.6023C199.292 30.4943 199.496 29.5166 199.903 28.669C200.315 27.8168 200.888 27.1515 201.622 26.6733C202.36 26.1903 203.222 25.9489 204.207 25.9489C204.974 25.9489 205.665 26.0909 206.281 26.375C206.896 26.6591 207.401 27.0568 207.794 27.5682C208.187 28.0795 208.431 28.6761 208.525 29.358H206.849C206.721 28.8608 206.437 28.4205 205.997 28.0369C205.561 27.6487 204.974 27.4545 204.235 27.4545C203.582 27.4545 203.009 27.625 202.517 27.9659C202.029 28.3021 201.648 28.7779 201.373 29.3935C201.103 30.0043 200.968 30.7216 200.968 31.5455C200.968 32.3883 201.101 33.1222 201.366 33.7472C201.636 34.3722 202.015 34.8575 202.502 35.2031C202.995 35.5488 203.573 35.7216 204.235 35.7216C204.671 35.7216 205.066 35.6458 205.422 35.4943C205.777 35.3428 206.077 35.125 206.324 34.8409C206.57 34.5568 206.745 34.2159 206.849 33.8182H208.525C208.431 34.4621 208.196 35.0421 207.822 35.5582C207.453 36.0696 206.963 36.4768 206.352 36.7798C205.746 37.0781 205.04 37.2273 204.235 37.2273ZM212.652 22.4545V37H210.975V22.4545H212.652ZM222.597 32.5398V26.0909H224.273V37H222.597V35.1534H222.483C222.227 35.7074 221.83 36.1785 221.29 36.5668C220.75 36.9503 220.068 37.142 219.244 37.142C218.562 37.142 217.956 36.9929 217.426 36.6946C216.896 36.3916 216.479 35.937 216.176 35.331C215.873 34.7202 215.722 33.9508 215.722 33.0227V26.0909H217.398V32.9091C217.398 33.7045 217.62 34.339 218.065 34.8125C218.515 35.286 219.088 35.5227 219.784 35.5227C220.201 35.5227 220.625 35.4162 221.055 35.2031C221.491 34.9901 221.856 34.6634 222.149 34.223C222.447 33.7827 222.597 33.2216 222.597 32.5398ZM235.07 28.5341L233.564 28.9602C233.47 28.7093 233.33 28.4654 233.145 28.2287C232.965 27.9872 232.719 27.7884 232.407 27.6321C232.094 27.4759 231.694 27.3977 231.206 27.3977C230.539 27.3977 229.982 27.5516 229.537 27.8594C229.097 28.1624 228.877 28.5483 228.877 29.017C228.877 29.4337 229.028 29.7628 229.331 30.0043C229.634 30.2457 230.108 30.447 230.752 30.608L232.371 31.0057C233.346 31.2424 234.073 31.6046 234.551 32.0923C235.03 32.5753 235.269 33.1979 235.269 33.9602C235.269 34.5852 235.089 35.1439 234.729 35.6364C234.374 36.1288 233.877 36.517 233.238 36.8011C232.598 37.0852 231.855 37.2273 231.007 37.2273C229.895 37.2273 228.974 36.9858 228.245 36.5028C227.516 36.0199 227.054 35.3144 226.86 34.3864L228.451 33.9886C228.602 34.5758 228.889 35.0161 229.31 35.3097C229.736 35.6032 230.292 35.75 230.979 35.75C231.76 35.75 232.381 35.5843 232.84 35.2528C233.304 34.9167 233.536 34.5142 233.536 34.0455C233.536 33.6667 233.403 33.3494 233.138 33.0938C232.873 32.8333 232.466 32.6392 231.917 32.5114L230.098 32.0852C229.099 31.8485 228.365 31.4815 227.897 30.9844C227.433 30.4825 227.201 29.8551 227.201 29.1023C227.201 28.4867 227.373 27.9422 227.719 27.4688C228.069 26.9953 228.545 26.6236 229.147 26.3537C229.753 26.0838 230.439 25.9489 231.206 25.9489C232.286 25.9489 233.133 26.1856 233.749 26.6591C234.369 27.1326 234.81 27.7576 235.07 28.5341ZM237.792 37V26.0909H239.468V37H237.792ZM238.644 24.2727C238.317 24.2727 238.036 24.1615 237.799 23.9389C237.567 23.7164 237.451 23.4489 237.451 23.1364C237.451 22.8239 237.567 22.5563 237.799 22.3338C238.036 22.1113 238.317 22 238.644 22C238.971 22 239.25 22.1113 239.482 22.3338C239.719 22.5563 239.837 22.8239 239.837 23.1364C239.837 23.4489 239.719 23.7164 239.482 23.9389C239.25 24.1615 238.971 24.2727 238.644 24.2727ZM251.458 26.0909L247.424 37H245.72L241.686 26.0909H243.504L246.515 34.7841H246.629L249.64 26.0909H251.458ZM256.549 37.2557C255.858 37.2557 255.23 37.1255 254.667 36.8651C254.103 36.5999 253.656 36.2188 253.325 35.7216C252.993 35.2197 252.827 34.6136 252.827 33.9034C252.827 33.2784 252.951 32.7718 253.197 32.3835C253.443 31.9905 253.772 31.6828 254.184 31.4602C254.596 31.2377 255.05 31.072 255.548 30.9631C256.049 30.8494 256.554 30.7595 257.06 30.6932C257.723 30.608 258.261 30.544 258.673 30.5014C259.089 30.4541 259.392 30.3759 259.582 30.267C259.776 30.1581 259.873 29.9687 259.873 29.6989V29.642C259.873 28.9413 259.681 28.3968 259.298 28.0085C258.919 27.6203 258.344 27.4261 257.572 27.4261C256.772 27.4261 256.144 27.6013 255.69 27.9517C255.235 28.3021 254.915 28.6761 254.731 29.0739L253.14 28.5057C253.424 27.8428 253.803 27.3267 254.276 26.9574C254.754 26.5833 255.275 26.3229 255.839 26.1761C256.407 26.0246 256.966 25.9489 257.515 25.9489C257.865 25.9489 258.268 25.9915 258.722 26.0767C259.182 26.1572 259.624 26.3253 260.05 26.581C260.481 26.8366 260.839 27.2225 261.123 27.7386C261.407 28.2547 261.549 28.946 261.549 29.8125V37H259.873V35.5227H259.788C259.674 35.7595 259.485 36.0128 259.219 36.2827C258.954 36.5526 258.602 36.7822 258.161 36.9716C257.721 37.161 257.183 37.2557 256.549 37.2557ZM256.805 35.75C257.468 35.75 258.026 35.6198 258.481 35.3594C258.94 35.099 259.286 34.7628 259.518 34.3509C259.754 33.9389 259.873 33.5057 259.873 33.0511V31.517C259.802 31.6023 259.646 31.6804 259.404 31.7514C259.167 31.8177 258.893 31.8769 258.58 31.929C258.272 31.9763 257.972 32.0189 257.678 32.0568C257.389 32.09 257.155 32.1184 256.975 32.142C256.54 32.1989 256.132 32.2912 255.754 32.419C255.379 32.5421 255.076 32.7292 254.844 32.9801C254.617 33.2263 254.504 33.5625 254.504 33.9886C254.504 34.571 254.719 35.0114 255.15 35.3097C255.585 35.6032 256.137 35.75 256.805 35.75ZM272.336 28.5341L270.83 28.9602C270.735 28.7093 270.596 28.4654 270.411 28.2287C270.231 27.9872 269.985 27.7884 269.672 27.6321C269.36 27.4759 268.96 27.3977 268.472 27.3977C267.804 27.3977 267.248 27.5516 266.803 27.8594C266.363 28.1624 266.142 28.5483 266.142 29.017C266.142 29.4337 266.294 29.7628 266.597 30.0043C266.9 30.2457 267.373 30.447 268.017 30.608L269.637 31.0057C270.612 31.2424 271.339 31.6046 271.817 32.0923C272.295 32.5753 272.534 33.1979 272.534 33.9602C272.534 34.5852 272.355 35.1439 271.995 35.6364C271.64 36.1288 271.142 36.517 270.503 36.8011C269.864 37.0852 269.121 37.2273 268.273 37.2273C267.16 37.2273 266.239 36.9858 265.51 36.5028C264.781 36.0199 264.319 35.3144 264.125 34.3864L265.716 33.9886C265.868 34.5758 266.154 35.0161 266.576 35.3097C267.002 35.6032 267.558 35.75 268.245 35.75C269.026 35.75 269.646 35.5843 270.105 35.2528C270.569 34.9167 270.801 34.5142 270.801 34.0455C270.801 33.6667 270.669 33.3494 270.404 33.0938C270.139 32.8333 269.731 32.6392 269.182 32.5114L267.364 32.0852C266.365 31.8485 265.631 31.4815 265.162 30.9844C264.698 30.4825 264.466 29.8551 264.466 29.1023C264.466 28.4867 264.639 27.9422 264.985 27.4688C265.335 26.9953 265.811 26.6236 266.412 26.3537C267.018 26.0838 267.705 25.9489 268.472 25.9489C269.551 25.9489 270.399 26.1856 271.015 26.6591C271.635 27.1326 272.075 27.7576 272.336 28.5341ZM283.893 37.2557C283.201 37.2557 282.574 37.1255 282.011 36.8651C281.447 36.5999 281 36.2188 280.668 35.7216C280.337 35.2197 280.171 34.6136 280.171 33.9034C280.171 33.2784 280.294 32.7718 280.54 32.3835C280.787 31.9905 281.116 31.6828 281.528 31.4602C281.94 31.2377 282.394 31.072 282.891 30.9631C283.393 30.8494 283.897 30.7595 284.404 30.6932C285.067 30.608 285.604 30.544 286.016 30.5014C286.433 30.4541 286.736 30.3759 286.925 30.267C287.12 30.1581 287.217 29.9687 287.217 29.6989V29.642C287.217 28.9413 287.025 28.3968 286.641 28.0085C286.263 27.6203 285.687 27.4261 284.915 27.4261C284.115 27.4261 283.488 27.6013 283.033 27.9517C282.579 28.3021 282.259 28.6761 282.075 29.0739L280.484 28.5057C280.768 27.8428 281.147 27.3267 281.62 26.9574C282.098 26.5833 282.619 26.3229 283.183 26.1761C283.751 26.0246 284.309 25.9489 284.859 25.9489C285.209 25.9489 285.612 25.9915 286.066 26.0767C286.525 26.1572 286.968 26.3253 287.394 26.581C287.825 26.8366 288.183 27.2225 288.467 27.7386C288.751 28.2547 288.893 28.946 288.893 29.8125V37H287.217V35.5227H287.131C287.018 35.7595 286.828 36.0128 286.563 36.2827C286.298 36.5526 285.945 36.7822 285.505 36.9716C285.065 37.161 284.527 37.2557 283.893 37.2557ZM284.148 35.75C284.811 35.75 285.37 35.6198 285.825 35.3594C286.284 35.099 286.629 34.7628 286.862 34.3509C287.098 33.9389 287.217 33.5057 287.217 33.0511V31.517C287.146 31.6023 286.989 31.6804 286.748 31.7514C286.511 31.8177 286.237 31.8769 285.924 31.929C285.616 31.9763 285.316 32.0189 285.022 32.0568C284.733 32.09 284.499 32.1184 284.319 32.142C283.883 32.1989 283.476 32.2912 283.097 32.419C282.723 32.5421 282.42 32.7292 282.188 32.9801C281.961 33.2263 281.847 33.5625 281.847 33.9886C281.847 34.571 282.063 35.0114 282.494 35.3097C282.929 35.6032 283.481 35.75 284.148 35.75ZM293.628 30.4375V37H291.952V26.0909H293.571V27.7955H293.713C293.969 27.2415 294.357 26.7964 294.878 26.4602C295.399 26.1193 296.071 25.9489 296.895 25.9489C297.634 25.9489 298.28 26.1004 298.834 26.4034C299.388 26.7017 299.819 27.1562 300.127 27.767C300.435 28.3731 300.588 29.1402 300.588 30.0682V37H298.912V30.1818C298.912 29.3248 298.69 28.6572 298.245 28.179C297.8 27.696 297.189 27.4545 296.412 27.4545C295.877 27.4545 295.399 27.5705 294.978 27.8026C294.561 28.0346 294.232 28.3731 293.99 28.8182C293.749 29.2633 293.628 29.803 293.628 30.4375ZM308.396 26.0909V27.5114H302.742V26.0909H308.396ZM304.39 23.4773H306.066V33.875C306.066 34.3485 306.135 34.7036 306.272 34.9403C306.414 35.1723 306.594 35.3286 306.812 35.4091C307.034 35.4848 307.269 35.5227 307.515 35.5227C307.7 35.5227 307.851 35.5133 307.969 35.4943C308.088 35.4706 308.183 35.4517 308.254 35.4375L308.594 36.9432C308.481 36.9858 308.322 37.0284 308.119 37.071C307.915 37.1184 307.657 37.142 307.344 37.142C306.871 37.142 306.407 37.0402 305.952 36.8366C305.503 36.633 305.129 36.3229 304.83 35.9062C304.537 35.4896 304.39 34.964 304.39 34.3295V23.4773ZM315.374 37.2273C314.322 37.2273 313.416 36.9953 312.653 36.5312C311.896 36.0625 311.311 35.4091 310.899 34.571C310.492 33.7282 310.288 32.7481 310.288 31.6307C310.288 30.5133 310.492 29.5284 310.899 28.6761C311.311 27.8191 311.884 27.1515 312.618 26.6733C313.357 26.1903 314.218 25.9489 315.203 25.9489C315.771 25.9489 316.332 26.0436 316.886 26.233C317.44 26.4223 317.945 26.7301 318.399 27.1562C318.854 27.5777 319.216 28.1364 319.486 28.8324C319.756 29.5284 319.891 30.3854 319.891 31.4034V32.1136H311.482V30.6648H318.186C318.186 30.0492 318.063 29.5 317.817 29.017C317.575 28.5341 317.23 28.1529 316.78 27.8736C316.335 27.5942 315.809 27.4545 315.203 27.4545C314.536 27.4545 313.958 27.6203 313.47 27.9517C312.987 28.2784 312.616 28.7045 312.355 29.2301C312.095 29.7557 311.964 30.3191 311.964 30.9205V31.8864C311.964 32.7102 312.107 33.4086 312.391 33.9815C312.679 34.5497 313.08 34.983 313.591 35.2812C314.102 35.5748 314.696 35.7216 315.374 35.7216C315.814 35.7216 316.212 35.66 316.567 35.5369C316.927 35.4091 317.237 35.2197 317.497 34.9688C317.758 34.7131 317.959 34.3958 318.101 34.017L319.72 34.4716C319.55 35.0208 319.263 35.5038 318.861 35.9205C318.458 36.3324 317.961 36.6544 317.369 36.8864C316.777 37.1136 316.112 37.2273 315.374 37.2273ZM330.168 28.5341L328.662 28.9602C328.567 28.7093 328.428 28.4654 328.243 28.2287C328.063 27.9872 327.817 27.7884 327.504 27.6321C327.192 27.4759 326.792 27.3977 326.304 27.3977C325.636 27.3977 325.08 27.5516 324.635 27.8594C324.195 28.1624 323.974 28.5483 323.974 29.017C323.974 29.4337 324.126 29.7628 324.429 30.0043C324.732 30.2457 325.205 30.447 325.849 30.608L327.469 31.0057C328.444 31.2424 329.171 31.6046 329.649 32.0923C330.127 32.5753 330.366 33.1979 330.366 33.9602C330.366 34.5852 330.187 35.1439 329.827 35.6364C329.472 36.1288 328.974 36.517 328.335 36.8011C327.696 37.0852 326.953 37.2273 326.105 37.2273C324.992 37.2273 324.071 36.9858 323.342 36.5028C322.613 36.0199 322.152 35.3144 321.957 34.3864L323.548 33.9886C323.7 34.5758 323.986 35.0161 324.408 35.3097C324.834 35.6032 325.39 35.75 326.077 35.75C326.858 35.75 327.478 35.5843 327.938 35.2528C328.402 34.9167 328.634 34.5142 328.634 34.0455C328.634 33.6667 328.501 33.3494 328.236 33.0938C327.971 32.8333 327.563 32.6392 327.014 32.5114L325.196 32.0852C324.197 31.8485 323.463 31.4815 322.994 30.9844C322.53 30.4825 322.298 29.8551 322.298 29.1023C322.298 28.4867 322.471 27.9422 322.817 27.4688C323.167 26.9953 323.643 26.6236 324.244 26.3537C324.85 26.0838 325.537 25.9489 326.304 25.9489C327.384 25.9489 328.231 26.1856 328.847 26.6591C329.467 27.1326 329.907 27.7576 330.168 28.5341ZM345.958 41.0909V35.3239H345.816C345.693 35.5227 345.517 35.7737 345.29 36.0767C345.063 36.375 344.739 36.6425 344.317 36.8793C343.896 37.1113 343.335 37.2273 342.634 37.2273C341.725 37.2273 340.922 36.9976 340.226 36.5384C339.53 36.0743 338.986 35.4209 338.593 34.5781C338.2 33.7306 338.003 32.7292 338.003 31.5739C338.003 30.428 338.2 29.4337 338.593 28.5909C338.986 27.7481 339.533 27.0971 340.233 26.6378C340.934 26.1785 341.744 25.9489 342.662 25.9489C343.373 25.9489 343.934 26.0672 344.346 26.304C344.762 26.536 345.079 26.8011 345.297 27.0994C345.52 27.393 345.693 27.6345 345.816 27.8239H346.015V26.0909H347.634V41.0909H345.958ZM342.861 35.7216C343.533 35.7216 344.102 35.5464 344.566 35.196C345.03 34.8409 345.382 34.3509 345.624 33.7259C345.865 33.0961 345.986 32.3693 345.986 31.5455C345.986 30.7311 345.868 30.0185 345.631 29.4077C345.394 28.7921 345.044 28.3139 344.58 27.973C344.116 27.6274 343.543 27.4545 342.861 27.4545C342.151 27.4545 341.559 27.6368 341.086 28.0014C340.617 28.3613 340.264 28.8513 340.027 29.4716C339.795 30.0871 339.679 30.7784 339.679 31.5455C339.679 32.322 339.798 33.0275 340.034 33.6619C340.276 34.2917 340.631 34.7936 341.1 35.1676C341.573 35.5369 342.16 35.7216 342.861 35.7216ZM357.577 32.5398V26.0909H359.253V37H357.577V35.1534H357.463C357.208 35.7074 356.81 36.1785 356.27 36.5668C355.73 36.9503 355.049 37.142 354.225 37.142C353.543 37.142 352.937 36.9929 352.407 36.6946C351.876 36.3916 351.46 35.937 351.157 35.331C350.854 34.7202 350.702 33.9508 350.702 33.0227V26.0909H352.378V32.9091C352.378 33.7045 352.601 34.339 353.046 34.8125C353.496 35.286 354.069 35.5227 354.765 35.5227C355.181 35.5227 355.605 35.4162 356.036 35.2031C356.471 34.9901 356.836 34.6634 357.13 34.223C357.428 33.7827 357.577 33.2216 357.577 32.5398ZM366.897 37.2273C365.846 37.2273 364.939 36.9953 364.177 36.5312C363.419 36.0625 362.835 35.4091 362.423 34.571C362.015 33.7282 361.812 32.7481 361.812 31.6307C361.812 30.5133 362.015 29.5284 362.423 28.6761C362.835 27.8191 363.407 27.1515 364.141 26.6733C364.88 26.1903 365.742 25.9489 366.727 25.9489C367.295 25.9489 367.856 26.0436 368.41 26.233C368.964 26.4223 369.468 26.7301 369.923 27.1562C370.377 27.5777 370.739 28.1364 371.009 28.8324C371.279 29.5284 371.414 30.3854 371.414 31.4034V32.1136H363.005V30.6648H369.71C369.71 30.0492 369.586 29.5 369.34 29.017C369.099 28.5341 368.753 28.1529 368.303 27.8736C367.858 27.5942 367.333 27.4545 366.727 27.4545C366.059 27.4545 365.481 27.6203 364.994 27.9517C364.511 28.2784 364.139 28.7045 363.879 29.2301C363.618 29.7557 363.488 30.3191 363.488 30.9205V31.8864C363.488 32.7102 363.63 33.4086 363.914 33.9815C364.203 34.5497 364.603 34.983 365.114 35.2812C365.626 35.5748 366.22 35.7216 366.897 35.7216C367.337 35.7216 367.735 35.66 368.09 35.5369C368.45 35.4091 368.76 35.2197 369.021 34.9688C369.281 34.7131 369.482 34.3958 369.624 34.017L371.244 34.4716C371.073 35.0208 370.787 35.5038 370.384 35.9205C369.982 36.3324 369.485 36.6544 368.893 36.8864C368.301 37.1136 367.636 37.2273 366.897 37.2273ZM384.333 26.0909V27.5114H378.68V26.0909H384.333ZM380.327 23.4773H382.004V33.875C382.004 34.3485 382.072 34.7036 382.21 34.9403C382.352 35.1723 382.531 35.3286 382.749 35.4091C382.972 35.4848 383.206 35.5227 383.452 35.5227C383.637 35.5227 383.789 35.5133 383.907 35.4943C384.025 35.4706 384.12 35.4517 384.191 35.4375L384.532 36.9432C384.418 36.9858 384.26 37.0284 384.056 37.071C383.853 37.1184 383.594 37.142 383.282 37.142C382.808 37.142 382.344 37.0402 381.89 36.8366C381.44 36.633 381.066 36.3229 380.768 35.9062C380.474 35.4896 380.327 34.964 380.327 34.3295V23.4773ZM391.169 37.2273C390.184 37.2273 389.32 36.9929 388.577 36.5241C387.838 36.0554 387.26 35.3996 386.844 34.5568C386.432 33.714 386.226 32.7292 386.226 31.6023C386.226 30.4659 386.432 29.474 386.844 28.6264C387.26 27.7789 387.838 27.1207 388.577 26.652C389.32 26.1832 390.184 25.9489 391.169 25.9489C392.154 25.9489 393.016 26.1832 393.754 26.652C394.498 27.1207 395.075 27.7789 395.487 28.6264C395.904 29.474 396.112 30.4659 396.112 31.6023C396.112 32.7292 395.904 33.714 395.487 34.5568C395.075 35.3996 394.498 36.0554 393.754 36.5241C393.016 36.9929 392.154 37.2273 391.169 37.2273ZM391.169 35.7216C391.917 35.7216 392.533 35.5298 393.016 35.1463C393.499 34.7628 393.856 34.2585 394.088 33.6335C394.32 33.0085 394.436 32.3314 394.436 31.6023C394.436 30.8731 394.32 30.1937 394.088 29.5639C393.856 28.9342 393.499 28.4252 393.016 28.0369C392.533 27.6487 391.917 27.4545 391.169 27.4545C390.421 27.4545 389.805 27.6487 389.322 28.0369C388.839 28.4252 388.482 28.9342 388.25 29.5639C388.018 30.1937 387.902 30.8731 387.902 31.6023C387.902 32.3314 388.018 33.0085 388.25 33.6335C388.482 34.2585 388.839 34.7628 389.322 35.1463C389.805 35.5298 390.421 35.7216 391.169 35.7216ZM402.79 37.2273C401.881 37.2273 401.078 36.9976 400.382 36.5384C399.686 36.0743 399.142 35.4209 398.749 34.5781C398.356 33.7306 398.159 32.7292 398.159 31.5739C398.159 30.428 398.356 29.4337 398.749 28.5909C399.142 27.7481 399.689 27.0971 400.39 26.6378C401.09 26.1785 401.9 25.9489 402.819 25.9489C403.529 25.9489 404.09 26.0672 404.502 26.304C404.918 26.536 405.236 26.8011 405.453 27.0994C405.676 27.393 405.849 27.6345 405.972 27.8239H406.114V22.4545H407.79V37H406.171V35.3239H405.972C405.849 35.5227 405.674 35.7737 405.446 36.0767C405.219 36.375 404.895 36.6425 404.473 36.8793C404.052 37.1113 403.491 37.2273 402.79 37.2273ZM403.017 35.7216C403.69 35.7216 404.258 35.5464 404.722 35.196C405.186 34.8409 405.539 34.3509 405.78 33.7259C406.022 33.0961 406.142 32.3693 406.142 31.5455C406.142 30.7311 406.024 30.0185 405.787 29.4077C405.551 28.7921 405.2 28.3139 404.736 27.973C404.272 27.6274 403.699 27.4545 403.017 27.4545C402.307 27.4545 401.715 27.6368 401.242 28.0014C400.773 28.3613 400.42 28.8513 400.184 29.4716C399.952 30.0871 399.836 30.7784 399.836 31.5455C399.836 32.322 399.954 33.0275 400.191 33.6619C400.432 34.2917 400.787 34.7936 401.256 35.1676C401.73 35.5369 402.317 35.7216 403.017 35.7216ZM412.343 26.0909L414.956 30.5511L417.57 26.0909H419.502L415.979 31.5455L419.502 37H417.57L414.956 32.767L412.343 37H410.411L413.877 31.5455L410.411 26.0909H412.343ZM429.621 28.5341L428.115 28.9602C428.02 28.7093 427.881 28.4654 427.696 28.2287C427.516 27.9872 427.27 27.7884 426.957 27.6321C426.645 27.4759 426.245 27.3977 425.757 27.3977C425.089 27.3977 424.533 27.5516 424.088 27.8594C423.648 28.1624 423.428 28.5483 423.428 29.017C423.428 29.4337 423.579 29.7628 423.882 30.0043C424.185 30.2457 424.659 30.447 425.303 30.608L426.922 31.0057C427.897 31.2424 428.624 31.6046 429.102 32.0923C429.58 32.5753 429.82 33.1979 429.82 33.9602C429.82 34.5852 429.64 35.1439 429.28 35.6364C428.925 36.1288 428.428 36.517 427.788 36.8011C427.149 37.0852 426.406 37.2273 425.558 37.2273C424.446 37.2273 423.525 36.9858 422.795 36.5028C422.066 36.0199 421.605 35.3144 421.411 34.3864L423.001 33.9886C423.153 34.5758 423.439 35.0161 423.861 35.3097C424.287 35.6032 424.843 35.75 425.53 35.75C426.311 35.75 426.931 35.5843 427.391 35.2528C427.855 34.9167 428.087 34.5142 428.087 34.0455C428.087 33.6667 427.954 33.3494 427.689 33.0938C427.424 32.8333 427.017 32.6392 426.467 32.5114L424.649 32.0852C423.65 31.8485 422.916 31.4815 422.447 30.9844C421.983 30.4825 421.751 29.8551 421.751 29.1023C421.751 28.4867 421.924 27.9422 422.27 27.4688C422.62 26.9953 423.096 26.6236 423.697 26.3537C424.304 26.0838 424.99 25.9489 425.757 25.9489C426.837 25.9489 427.684 26.1856 428.3 26.6591C428.92 27.1326 429.36 27.7576 429.621 28.5341ZM439.644 22.4545V37H437.968V22.4545H439.644ZM443.964 26.0909L446.577 30.5511L449.191 26.0909H451.123L447.6 31.5455L451.123 37H449.191L446.577 32.767L443.964 37H442.032L445.498 31.5455L442.032 26.0909H443.964ZM461.242 28.5341L459.736 28.9602C459.641 28.7093 459.502 28.4654 459.317 28.2287C459.137 27.9872 458.891 27.7884 458.578 27.6321C458.266 27.4759 457.866 27.3977 457.378 27.3977C456.711 27.3977 456.154 27.5516 455.709 27.8594C455.269 28.1624 455.049 28.5483 455.049 29.017C455.049 29.4337 455.2 29.7628 455.503 30.0043C455.806 30.2457 456.28 30.447 456.924 30.608L458.543 31.0057C459.518 31.2424 460.245 31.6046 460.723 32.0923C461.202 32.5753 461.441 33.1979 461.441 33.9602C461.441 34.5852 461.261 35.1439 460.901 35.6364C460.546 36.1288 460.049 36.517 459.409 36.8011C458.77 37.0852 458.027 37.2273 457.179 37.2273C456.067 37.2273 455.146 36.9858 454.417 36.5028C453.687 36.0199 453.226 35.3144 453.032 34.3864L454.623 33.9886C454.774 34.5758 455.06 35.0161 455.482 35.3097C455.908 35.6032 456.464 35.75 457.151 35.75C457.932 35.75 458.552 35.5843 459.012 35.2528C459.476 34.9167 459.708 34.5142 459.708 34.0455C459.708 33.6667 459.575 33.3494 459.31 33.0938C459.045 32.8333 458.638 32.6392 458.088 32.5114L456.27 32.0852C455.271 31.8485 454.537 31.4815 454.069 30.9844C453.605 30.4825 453.373 29.8551 453.373 29.1023C453.373 28.4867 453.545 27.9422 453.891 27.4688C454.241 26.9953 454.717 26.6236 455.319 26.3537C455.925 26.0838 456.611 25.9489 457.378 25.9489C458.458 25.9489 459.305 26.1856 459.921 26.6591C460.541 27.1326 460.981 27.7576 461.242 28.5341ZM473.708 37.2273C472.799 37.2273 471.996 36.9976 471.3 36.5384C470.604 36.0743 470.06 35.4209 469.667 34.5781C469.274 33.7306 469.077 32.7292 469.077 31.5739C469.077 30.428 469.274 29.4337 469.667 28.5909C470.06 27.7481 470.607 27.0971 471.308 26.6378C472.008 26.1785 472.818 25.9489 473.737 25.9489C474.447 25.9489 475.008 26.0672 475.42 26.304C475.836 26.536 476.154 26.8011 476.371 27.0994C476.594 27.393 476.767 27.6345 476.89 27.8239H477.032V22.4545H478.708V37H477.089V35.3239H476.89C476.767 35.5227 476.592 35.7737 476.364 36.0767C476.137 36.375 475.813 36.6425 475.391 36.8793C474.97 37.1113 474.409 37.2273 473.708 37.2273ZM473.935 35.7216C474.608 35.7216 475.176 35.5464 475.64 35.196C476.104 34.8409 476.457 34.3509 476.698 33.7259C476.94 33.0961 477.06 32.3693 477.06 31.5455C477.06 30.7311 476.942 30.0185 476.705 29.4077C476.469 28.7921 476.118 28.3139 475.654 27.973C475.19 27.6274 474.617 27.4545 473.935 27.4545C473.225 27.4545 472.633 27.6368 472.16 28.0014C471.691 28.3613 471.338 28.8513 471.102 29.4716C470.87 30.0871 470.754 30.7784 470.754 31.5455C470.754 32.322 470.872 33.0275 471.109 33.6619C471.35 34.2917 471.705 34.7936 472.174 35.1676C472.647 35.5369 473.235 35.7216 473.935 35.7216ZM486.585 37.2273C485.533 37.2273 484.627 36.9953 483.864 36.5312C483.107 36.0625 482.522 35.4091 482.11 34.571C481.703 33.7282 481.499 32.7481 481.499 31.6307C481.499 30.5133 481.703 29.5284 482.11 28.6761C482.522 27.8191 483.095 27.1515 483.829 26.6733C484.567 26.1903 485.429 25.9489 486.414 25.9489C486.982 25.9489 487.543 26.0436 488.097 26.233C488.651 26.4223 489.156 26.7301 489.61 27.1562C490.065 27.5777 490.427 28.1364 490.697 28.8324C490.967 29.5284 491.102 30.3854 491.102 31.4034V32.1136H482.692V30.6648H489.397C489.397 30.0492 489.274 29.5 489.028 29.017C488.786 28.5341 488.441 28.1529 487.991 27.8736C487.546 27.5942 487.02 27.4545 486.414 27.4545C485.746 27.4545 485.169 27.6203 484.681 27.9517C484.198 28.2784 483.826 28.7045 483.566 29.2301C483.306 29.7557 483.175 30.3191 483.175 30.9205V31.8864C483.175 32.7102 483.317 33.4086 483.602 33.9815C483.89 34.5497 484.29 34.983 484.802 35.2812C485.313 35.5748 485.907 35.7216 486.585 35.7216C487.025 35.7216 487.423 35.66 487.778 35.5369C488.138 35.4091 488.448 35.2197 488.708 34.9688C488.969 34.7131 489.17 34.3958 489.312 34.017L490.931 34.4716C490.761 35.0208 490.474 35.5038 490.072 35.9205C489.669 36.3324 489.172 36.6544 488.58 36.8864C487.988 37.1136 487.323 37.2273 486.585 37.2273ZM493.651 37V26.0909H495.271V27.7955H495.413C495.64 27.2131 496.007 26.7609 496.513 26.4389C497.02 26.1122 497.629 25.9489 498.339 25.9489C499.058 25.9489 499.657 26.1122 500.136 26.4389C500.619 26.7609 500.995 27.2131 501.265 27.7955H501.379C501.658 27.232 502.077 26.7846 502.636 26.4531C503.194 26.117 503.864 25.9489 504.646 25.9489C505.621 25.9489 506.419 26.2543 507.039 26.8651C507.659 27.4711 507.969 28.4157 507.969 29.6989V37H506.293V29.6989C506.293 28.8939 506.073 28.3187 505.633 27.973C505.192 27.6274 504.674 27.4545 504.077 27.4545C503.31 27.4545 502.716 27.6866 502.295 28.1506C501.873 28.6098 501.663 29.1922 501.663 29.8977V37H499.958V29.5284C499.958 28.9081 499.757 28.4086 499.354 28.0298C498.952 27.6463 498.433 27.4545 497.799 27.4545C497.363 27.4545 496.956 27.5705 496.577 27.8026C496.203 28.0346 495.9 28.3565 495.668 28.7685C495.441 29.1757 495.327 29.6468 495.327 30.1818V37H493.651ZM514.244 37.2557C513.553 37.2557 512.926 37.1255 512.362 36.8651C511.799 36.5999 511.351 36.2188 511.02 35.7216C510.688 35.2197 510.523 34.6136 510.523 33.9034C510.523 33.2784 510.646 32.7718 510.892 32.3835C511.138 31.9905 511.467 31.6828 511.879 31.4602C512.291 31.2377 512.746 31.072 513.243 30.9631C513.745 30.8494 514.249 30.7595 514.756 30.6932C515.419 30.608 515.956 30.544 516.368 30.5014C516.785 30.4541 517.088 30.3759 517.277 30.267C517.471 30.1581 517.568 29.9687 517.568 29.6989V29.642C517.568 28.9413 517.376 28.3968 516.993 28.0085C516.614 27.6203 516.039 27.4261 515.267 27.4261C514.467 27.4261 513.839 27.6013 513.385 27.9517C512.93 28.3021 512.611 28.6761 512.426 29.0739L510.835 28.5057C511.119 27.8428 511.498 27.3267 511.972 26.9574C512.45 26.5833 512.971 26.3229 513.534 26.1761C514.102 26.0246 514.661 25.9489 515.21 25.9489C515.561 25.9489 515.963 25.9915 516.418 26.0767C516.877 26.1572 517.32 26.3253 517.746 26.581C518.177 26.8366 518.534 27.2225 518.818 27.7386C519.102 28.2547 519.244 28.946 519.244 29.8125V37H517.568V35.5227H517.483C517.369 35.7595 517.18 36.0128 516.915 36.2827C516.65 36.5526 516.297 36.7822 515.857 36.9716C515.416 37.161 514.879 37.2557 514.244 37.2557ZM514.5 35.75C515.163 35.75 515.722 35.6198 516.176 35.3594C516.635 35.099 516.981 34.7628 517.213 34.3509C517.45 33.9389 517.568 33.5057 517.568 33.0511V31.517C517.497 31.6023 517.341 31.6804 517.099 31.7514C516.863 31.8177 516.588 31.8769 516.276 31.929C515.968 31.9763 515.667 32.0189 515.374 32.0568C515.085 32.09 514.85 32.1184 514.67 32.142C514.235 32.1989 513.828 32.2912 513.449 32.419C513.075 32.5421 512.772 32.7292 512.54 32.9801C512.313 33.2263 512.199 33.5625 512.199 33.9886C512.199 34.571 512.414 35.0114 512.845 35.3097C513.281 35.6032 513.832 35.75 514.5 35.75ZM514.557 24.6136L516.29 21.3182H518.25L516.034 24.6136H514.557ZM530.031 28.5341L528.525 28.9602C528.431 28.7093 528.291 28.4654 528.106 28.2287C527.926 27.9872 527.68 27.7884 527.368 27.6321C527.055 27.4759 526.655 27.3977 526.167 27.3977C525.5 27.3977 524.943 27.5516 524.498 27.8594C524.058 28.1624 523.838 28.5483 523.838 29.017C523.838 29.4337 523.989 29.7628 524.292 30.0043C524.595 30.2457 525.069 30.447 525.713 30.608L527.332 31.0057C528.307 31.2424 529.034 31.6046 529.512 32.0923C529.991 32.5753 530.23 33.1979 530.23 33.9602C530.23 34.5852 530.05 35.1439 529.69 35.6364C529.335 36.1288 528.838 36.517 528.199 36.8011C527.559 37.0852 526.816 37.2273 525.968 37.2273C524.856 37.2273 523.935 36.9858 523.206 36.5028C522.476 36.0199 522.015 35.3144 521.821 34.3864L523.412 33.9886C523.563 34.5758 523.85 35.0161 524.271 35.3097C524.697 35.6032 525.253 35.75 525.94 35.75C526.721 35.75 527.342 35.5843 527.801 35.2528C528.265 34.9167 528.497 34.5142 528.497 34.0455C528.497 33.6667 528.364 33.3494 528.099 33.0938C527.834 32.8333 527.427 32.6392 526.877 32.5114L525.059 32.0852C524.06 31.8485 523.326 31.4815 522.858 30.9844C522.394 30.4825 522.162 29.8551 522.162 29.1023C522.162 28.4867 522.334 27.9422 522.68 27.4688C523.03 26.9953 523.506 26.6236 524.108 26.3537C524.714 26.0838 525.4 25.9489 526.167 25.9489C527.247 25.9489 528.094 26.1856 528.71 26.6591C529.33 27.1326 529.77 27.7576 530.031 28.5341Z" fill="#EDE8E2"/>
</g>
<defs>
<clipPath id="clip0_34_47">
<rect width="563" height="40" fill="white"/>
</clipPath>
</defs>
</svg>
